<svg id="iviiv-logo" viewBox="0 0 512 512" xmlns="http://www.w3.org/2000/svg" xmlns:dc="http://purl.org/dc/elements/1.1/" xmlns:cc="http://creativecommons.org/ns#" xmlns:rdf="http://www.w3.org/1999/02/22-rdf-syntax-ns#"><title>logo 164.gr</title><metadata><rdf:RDF><cc:Work rdf:about=""><dc:format>image/svg+xml</dc:format><dc:type rdf:resource="http://purl.org/dc/dcmitype/StillImage"/><dc:title>logotype 164 group</dc:title><cc:license rdf:recource="http://license.164.gr"/><dc:date>Thursday 7 June 2019</dc:date><dc:creator><cc:Agent><dc:title>drawing 164 group</dc:title></cc:Agent></dc:creator><dc:language>en, ru, fr</dc:language><dc:subject><rdf:Bag><rdf:li>logo 164 iviiv group logotype clxiv 164gr 164g</rdf:li></rdf:Bag></dc:subject><dc:coverage>Coverage</dc:coverage><dc:description>The main chevron-type logo is a watermark for product logos, teams,services of the group.</dc:description><dc:contributor><cc:Agent><dc:title>drawing 164 group</dc:title></cc:Agent></dc:contributor></cc:Work></rdf:RDF></metadata><style>#iviiv-logo{height:100%;width:100%;fill:#fff;stroke:#888;stroke-width:5;cursor:pointer}#iviiv-00b[data-pattern="paint"]{fill:#00b}#iviiv-b00[data-pattern="paint"]{fill:#b00}#iviiv-0b0[data-pattern="paint"]{fill:#0b0}#iviiv-b00[data-pattern="black"],#iviiv-0b0[data-pattern="black"],#iviiv-00b[data-pattern="black"]{fill:#000;stroke:#000}</style><defs><pattern id="iviiv-b00"></pattern><pattern id="iviiv-00b"></pattern><pattern id="iviiv-0b0"></pattern></defs><path d="M451 123l-34 20c-21 14-2 40 17 31l35-21c20-13 2-41-18-30zM43 153l34 20c24 11 37-20 18-30l-35-20c-21-12-37 19-17 30zM106 77c-18 19 6 41 22 27 45-37 104-54 163-43 26 1 25-31 6-35-68-13-144 10-191 51zM393 53l-46 17c-19 8-15 50 32 26-12 54 32 43 33 23l5-48c3-11-11-24-24-18z"/><path d="M238 452v40c4 26 35 22 36 0v-40c-4-26-35-22-36 0zM26 215c-12 68 7 138 51 191 20 20 41-8 27-22-38-45-55-105-43-163 1-26-31-25-35-6zM140 428l8 49c3 13 17 19 28 11l40-28c17-13 2-54-38-17 2-48-39-40-38-15z"/><path d="M451 222c18 93-37 188-128 221-23 13-6 39 12 33a234 234 0 0 0 151-261c-6-25-38-14-35 7z"/><script>(() => {
// <![CDATA[
let d = document.createElementNS('http://www.w3.org/2000/svg', 'defs'),l = document.getElementById('iviiv-logo'),p = l.querySelectorAll('pattern'),t = [['iviiv-b00', 'iviiv-00b', 'iviiv-0b0'],['rotate(0)', 'rotate(90)', 'rotate(-60)'], 'M5,0 5,15M15-5v30h-30v-30'], c;l.querySelectorAll('path').forEach((e, n) => ['fill', 'stroke'].map(x => e.setAttribute(x, `url('#${t[0][n]}')`)));p.forEach((p, n) => {let h = document.createElementNS('http://www.w3.org/2000/svg', 'path');h.setAttribute('d', t[2]);p.setAttribute('patternTransform', t[1][n]);['width', 'height'].map(i => p.setAttribute(i, 10));p.setAttribute('patternUnits', 'userSpaceOnUse');p.append(h);});c = x => p.forEach(p => p.dataset.pattern = x);l.addEventListener('mouseover', e => {if(p[0].dataset.pattern != 'black') c('paint')});l.addEventListener('mouseout', e => {if(p[0].dataset.pattern != 'black') c('')});window.addEventListener('resize', e => Math.min(l.clientWidth, l.clientHeight) < 32 ? c('black') : c(''));
// ]]>
})()</script></svg>