<svg xmlns="http://www.w3.org/2000/svg" id="iviiv-logo" viewBox="0 0 512 512" width="100%" height="100%" stroke-width="5" stroke="#888"><defs><pattern patternUnits="userSpaceOnUse" width="10" height="10" id="iviiv-f00"><path d="M 5,0 5,15"/></pattern><pattern patternUnits="userSpaceOnUse" width="10" height="10" id="iviiv-00f"><path d="M 0,5 15,5"/></pattern><pattern patternUnits="userSpaceOnUse" width="10" height="10" id="iviiv-0f0" patternTransform="rotate(30)"><path d="M 5,0 5,15"/></pattern></defs><path d="M451 123l-34 20c-21 14-2 40 17 31l35-21c20-13 2-41-18-30zM43 153l34 20c24 11 37-20 18-30l-35-20c-21-12-37 19-17 30zM106 77c-18 19 6 41 22 27 45-37 104-54 163-43 26 1 25-31 6-35-68-13-144 10-191 51zM393 53l-46 17c-19 8-15 50 32 26-12 54 32 43 33 23l5-48c3-11-11-24-24-18z" fill="url('#iviiv-f00')"/><path d="M451 222c18 93-37 188-128 221-23 13-6 39 12 33a234 234 0 0 0 151-261c-6-25-38-14-35 7z" fill="url('#iviiv-00f')"/><path d="M238 452v40c4 26 35 22 36 0v-40c-4-26-35-22-36 0zM26 215c-12 68 7 138 51 191 20 20 41-8 27-22-38-45-55-105-43-163 1-26-31-25-35-6zM140 428l8 49c3 13 17 19 28 11l40-28c17-13 2-54-38-17 2-48-39-40-38-15z" fill="url('#iviiv-0f0')"/></svg>