<svg xmlns="http://www.w3.org/2000/svg" xmlns:dc="http://purl.org/dc/elements/1.1/" xmlns:cc="http://creativecommons.org/ns#" xmlns:rdf="http://www.w3.org/1999/02/22-rdf-syntax-ns#" id="iviiv-logo" viewBox="0 0 512 512" width="100%" height="100%" stroke-width="5" stroke="#888"><defs><pattern patternUnits="userSpaceOnUse" width="10" height="10" id="iviiv-f00"><path d="M 5,0 5,15"/></pattern><pattern patternUnits="userSpaceOnUse" width="10" height="10" id="iviiv-00f"><path d="M 0,5 15,5"/></pattern><pattern patternUnits="userSpaceOnUse" width="10" height="10" id="iviiv-0f0" patternTransform="rotate(30)"><path d="M 5,0 5,15"/></pattern></defs><metadata><rdf:RDF><cc:Work rdf:about=""><dc:format>image/svg+xml</dc:format><dc:type rdf:resource="http://purl.org/dc/dcmitype/StillImage"/><dc:title>logo 164 group</dc:title><cc:license rdf:resource="http://liecense.164.gr"/><dc:date>Thursday 6 June 2019</dc:date><dc:creator><cc:Agent><dc:title>drawing 164 group</dc:title></cc:Agent></dc:creator><dc:language>en, ru, fr</dc:language><dc:subject><rdf:Bag><rdf:li>logo 164 iviiv group logotype clxiv 164gr 164g</rdf:li></rdf:Bag></dc:subject><dc:coverage>Coverage</dc:coverage><dc:description>The main chevron-type logo is a watermark for product logos, teams, services of the group.</dc:description><dc:contributor><cc:Agent><dc:title>drawing 164 group</dc:title></cc:Agent></dc:contributor></cc:Work></rdf:RDF></metadata><script>(() =&gt; {
// <![CDATA[
let l = document.querySelector('#iviiv-logo'), d = document.createElementNS('http://www.w3.org/2000/svg', 'defs'), t = [['iviiv-f00', 'iviiv-00f', 'iviiv-0f0'], [0, 0, 'rotate(30)'], ['M 5,0 5,15', 'M 0,5 15,5', 'M 5,0 5,15']], i = 0, c, r, pr, pg, pb; l.setAttribute('stroke-width', 5); l.firstElementChild.replaceWith(d); do { let p = document.createElementNS('http://www.w3.org/2000/svg', 'pattern'), h = document.createElementNS('http://www.w3.org/2000/svg', 'path'); h.setAttribute('d', t[2][i]); p.setAttribute('patternUnits', 'userSpaceOnUse'); p.setAttribute('width', 10); p.setAttribute('height', 10); p.setAttribute('id', `${t[0][i]}`); if (t[1][i]) p.setAttribute('patternTransform', t[1][i]); p.append(h); d.append(p); } while (i++ < 2); pr = document.createElementNS('http://www.w3.org/2000/svg', 'path'); pg = pr.cloneNode(); pb = pr.cloneNode(); pr.setAttribute('d', 'M451 123l-34 20c-21 14-2 40 17 31l35-21c20-13 2-41-18-30zM43 153l34 20c24 11 37-20 18-30l-35-20c-21-12-37 19-17 30zM106 77c-18 19 6 41 22 27 45-37 104-54 163-43 26 1 25-31 6-35-68-13-144 10-191 51zM393 53l-46 17c-19 8-15 50 32 26-12 54 32 43 33 23l5-48c3-11-11-24-24-18z'); pg.setAttribute('d', 'M238 452v40c4 26 35 22 36 0v-40c-4-26-35-22-36 0zM26 215c-12 68 7 138 51 191 20 20 41-8 27-22-38-45-55-105-43-163 1-26-31-25-35-6zM140 428l8 49c3 13 17 19 28 11l40-28c17-13 2-54-38-17 2-48-39-40-38-15z'); pb.setAttribute('d', 'M451 222c18 93-37 188-128 221-23 13-6 39 12 33a234 234 0 0 0 151-261c-6-25-38-14-35 7z'); l.append(pr, pg, pb); i = x => l.setAttribute('stroke', x); r = () => { if (Math.min(l.clientWidth, l.clientHeight) < 32) i('#000'); else i('#888'); }; c = (x) => { if (x) { pr.setAttribute('fill', '#b00'); pg.setAttribute('fill', '#0b0'); pb.setAttribute('fill', '#00b'); } else { pr.setAttribute('fill', `url('#iviiv-f00')`); pg.setAttribute('fill', `url('#iviiv-00f')`); pb.setAttribute('fill', `url('#iviiv-0f0')`); } }; l.addEventListener('mouseover', c.bind(this, 1)); l.addEventListener('mouseout', c.bind(this, 0)); window.addEventListener('resize', r); r(); c();
// ]]>
})();</script><path d="M451 123l-34 20c-21 14-2 40 17 31l35-21c20-13 2-41-18-30zM43 153l34 20c24 11 37-20 18-30l-35-20c-21-12-37 19-17 30zM106 77c-18 19 6 41 22 27 45-37 104-54 163-43 26 1 25-31 6-35-68-13-144 10-191 51zM393 53l-46 17c-19 8-15 50 32 26-12 54 32 43 33 23l5-48c3-11-11-24-24-18z" fill="url('#iviiv-f00')"/><path d="M238 452v40c4 26 35 22 36 0v-40c-4-26-35-22-36 0zM26 215c-12 68 7 138 51 191 20 20 41-8 27-22-38-45-55-105-43-163 1-26-31-25-35-6zM140 428l8 49c3 13 17 19 28 11l40-28c17-13 2-54-38-17 2-48-39-40-38-15z" fill="url('#iviiv-00f')"/><path d="M451 222c18 93-37 188-128 221-23 13-6 39 12 33a234 234 0 0 0 151-261c-6-25-38-14-35 7z" fill="url('#iviiv-0f0')"/></svg>