<?xml version="1.0" encoding="UTF-8" standalone="no"?>
<!-- Created with Inkscape (http://www.inkscape.org/) -->

<svg
   xmlns:dc="http://purl.org/dc/elements/1.1/"
   xmlns:cc="http://creativecommons.org/ns#"
   xmlns:rdf="http://www.w3.org/1999/02/22-rdf-syntax-ns#"
   xmlns:svg="http://www.w3.org/2000/svg"
   xmlns="http://www.w3.org/2000/svg"
   xmlns:sodipodi="http://sodipodi.sourceforge.net/DTD/sodipodi-0.dtd"
   xmlns:inkscape="http://www.inkscape.org/namespaces/inkscape"
   width="1436.5015"
   height="1024"
   viewBox="0 0 380.07433 270.93334"
   version="1.1"
   id="svg4758"
   inkscape:export-filename="/Users/vajnberg/bitmap.png"
   inkscape:export-xdpi="96"
   inkscape:export-ydpi="96"
   inkscape:version="0.92.2 5c3e80d, 2017-08-06"
   sodipodi:docname="drawing.svg">
  <defs
     id="defs4752" />
  <sodipodi:namedview
     id="base"
     pagecolor="#ffffff"
     bordercolor="#666666"
     borderopacity="1.0"
     inkscape:pageopacity="0.0"
     inkscape:pageshadow="2"
     inkscape:zoom="0.5"
     inkscape:cx="765.35827"
     inkscape:cy="519.26283"
     inkscape:document-units="px"
     inkscape:current-layer="layer1"
     showgrid="true"
     units="px"
     showguides="false"
     fit-margin-top="64"
     fit-margin-left="64"
     fit-margin-right="64"
     fit-margin-bottom="64"
     inkscape:window-width="1440"
     inkscape:window-height="775"
     inkscape:window-x="0"
     inkscape:window-y="1"
     inkscape:window-maximized="1" />
  <metadata
     id="metadata4755">
    <rdf:RDF>
      <cc:Work
         rdf:about="">
        <dc:format>image/svg+xml</dc:format>
        <dc:type
           rdf:resource="http://purl.org/dc/dcmitype/StillImage" />
        <dc:title></dc:title>
      </cc:Work>
    </rdf:RDF>
  </metadata>
  <g
     inkscape:label="Layer 1"
     inkscape:groupmode="layer"
     id="layer1"
     transform="translate(16.933333,-144.59999)">
    <path
       style="color:#000000;font-style:normal;font-variant:normal;font-weight:normal;font-stretch:normal;font-size:medium;line-height:normal;font-family:sans-serif;font-variant-ligatures:normal;font-variant-position:normal;font-variant-caps:normal;font-variant-numeric:normal;font-variant-alternates:normal;font-feature-settings:normal;text-indent:0;text-align:start;text-decoration:none;text-decoration-line:none;text-decoration-style:solid;text-decoration-color:#000000;letter-spacing:normal;word-spacing:normal;text-transform:none;writing-mode:lr-tb;direction:ltr;text-orientation:mixed;dominant-baseline:auto;baseline-shift:baseline;text-anchor:start;white-space:normal;shape-padding:0;clip-rule:nonzero;display:inline;overflow:visible;visibility:visible;opacity:1;isolation:auto;mix-blend-mode:normal;color-interpolation:sRGB;color-interpolation-filters:linearRGB;solid-color:#000000;solid-opacity:1;vector-effect:none;fill:#364e59;fill-opacity:1;fill-rule:nonzero;stroke:none;stroke-width:75;stroke-linecap:round;stroke-linejoin:miter;stroke-miterlimit:25.20000076;stroke-dasharray:none;stroke-dashoffset:0;stroke-opacity:1;paint-order:fill markers stroke;color-rendering:auto;image-rendering:auto;shape-rendering:auto;text-rendering:auto;enable-background:accumulate"
       d="m 462.49023,143.28906 a 37.503751,37.503751 0 0 0 -36.4082,50.80274 c 18.30716,50.29859 13.43325,106.05079 -13.33008,152.40625 -26.76332,46.35541 -72.61077,78.45324 -125.32422,87.74804 a 37.503751,37.503751 0 1 0 13.02344,73.86329 c 74.49819,-13.13602 139.43017,-58.5987 177.25391,-124.11133 37.8237,-65.5126 44.73232,-144.47324 18.85937,-215.5586 a 37.503751,37.503751 0 0 0 -34.07422,-25.15039 z m -4.67773,7.64844 37.23242,37.23242 c 5.06115,17.83839 8.07878,36.0576 9.07031,54.32422 l -71.5,-71.49805 c 3.59106,-10.61523 13.0738,-18.80763 25.19727,-20.05859 z m -15.77344,74.73633 60.58789,60.58789 c -1.55864,12.70504 -4.08048,25.29965 -7.59179,37.66211 L 443.76562,272.6543 c 1.38459,-15.61171 0.8157,-31.39517 -1.72656,-46.98047 z m -5.61914,84.88867 46.5586,46.56055 c -3.50464,7.86678 -7.41934,15.59023 -11.76954,23.125 -1.26131,2.18465 -2.5601,4.34029 -3.88281,6.47851 L 423.3418,342.74023 c 5.37931,-10.37502 9.74155,-21.14756 13.07812,-32.17773 z m -30.64258,59.86914 42.71289,42.71289 c -6.77977,8.303 -14.07462,16.12278 -21.8164,23.4375 l -42.43164,-42.43164 c 7.80444,-7.24464 15.01048,-15.17707 21.53515,-23.71875 z m -46.96093,43.54883 43.11914,43.11719 c -8.85729,6.42702 -18.13282,12.26973 -27.77344,17.48242 l -44.90625,-44.90625 c 10.32704,-4.35522 20.216,-9.612 29.56055,-15.69336 z m -64.03321,26.47656 48.26953,48.26953 c -11.33874,4.24237 -23.03609,7.67279 -35.01562,10.23828 l -41.32227,-41.32226 c 4.16589,-8.21102 12.06672,-14.37305 21.9336,-15.99219 l 0.0371,-0.006 0.043,-0.008 c 2.02912,-0.35779 4.04569,-0.7574 6.05468,-1.17969 z"
       transform="matrix(0.26458333,0,0,0.26458333,0,161.53332)"
       id="circle5364"
       inkscape:connector-curvature="0" />
    <path
       style="color:#000000;font-style:normal;font-variant:normal;font-weight:normal;font-stretch:normal;font-size:medium;line-height:normal;font-family:sans-serif;font-variant-ligatures:normal;font-variant-position:normal;font-variant-caps:normal;font-variant-numeric:normal;font-variant-alternates:normal;font-feature-settings:normal;text-indent:0;text-align:start;text-decoration:none;text-decoration-line:none;text-decoration-style:solid;text-decoration-color:#000000;letter-spacing:normal;word-spacing:normal;text-transform:none;writing-mode:lr-tb;direction:ltr;text-orientation:mixed;dominant-baseline:auto;baseline-shift:baseline;text-anchor:start;white-space:normal;shape-padding:0;clip-rule:nonzero;display:inline;overflow:visible;visibility:visible;opacity:1;isolation:auto;mix-blend-mode:normal;color-interpolation:sRGB;color-interpolation-filters:linearRGB;solid-color:#000000;solid-opacity:1;vector-effect:none;fill:#364e59;fill-opacity:1;fill-rule:nonzero;stroke:none;stroke-width:75;stroke-linecap:round;stroke-linejoin:miter;stroke-miterlimit:25.20000076;stroke-dasharray:none;stroke-dashoffset:0;stroke-opacity:1;paint-order:fill markers stroke;color-rendering:auto;image-rendering:auto;shape-rendering:auto;text-rendering:auto;enable-background:accumulate"
       d="m 52.130859,143.28906 a 37.503751,37.503751 0 0 0 -36.695312,25.15039 c -25.872952,71.08536 -18.9623963,150.046 18.861328,215.5586 C 72.1206,449.51068 137.04477,494.97332 211.54297,508.10938 a 37.503751,37.503751 0 1 0 13.0293,-73.86329 C 171.85882,424.95129 126.01331,392.85346 99.25,346.49805 72.486681,300.14259 67.61078,244.39039 85.917969,194.0918 a 37.503751,37.503751 0 0 0 -33.78711,-50.80274 z m -0.257812,7.49219 h 0.0078 c 17.428228,0.59133 29.814149,15.09941 29.009766,31.23047 H 18.787109 c 1.15034,-3.68835 2.369258,-7.36109 3.697266,-11.00977 l 0.01563,-0.0449 0.02148,-0.0527 c 4.332285,-12.4427 16.183859,-20.57168 29.351563,-20.12305 z m -40.777344,63.23047 h 61.15625 c -2.417163,10.57105 -3.91296,21.27503 -4.482422,32 H 7.7226562 c 0.4287973,-10.69783 1.5546238,-21.38558 3.3730468,-32 z m -2.6074218,64 H 68.789062 c 1.271313,10.8129 3.493144,21.5184 6.628907,32 H 13.457031 c -2.349946,-10.55801 -4.012271,-21.24748 -4.9687498,-32 z m 14.3886718,64 h 65.402344 c 1.422537,2.7731 2.90776,5.52246 4.474609,8.23633 4.84314,8.38856 10.299534,16.31771 16.277344,23.76367 H 37.314453 c -5.598523,-10.37391 -10.406048,-21.07044 -14.4375,-32 z m 35.039063,64 h 83.964844 c 19.2932,14.67655 41.37547,25.60872 65.13281,32 H 86.832031 c -10.502974,-9.75948 -20.178685,-20.46375 -28.916015,-32 z m 71.820314,64 h 118.69336 c 0.0792,2.11369 -0.0578,4.27051 -0.44141,6.44531 -2.91546,16.5281 -18.56727,27.36498 -35.06445,24.2793 l -0.0371,-0.008 -0.0449,-0.008 c -29.65954,-5.22976 -57.74789,-15.74595 -83.10547,-30.70898 z"
       transform="matrix(0.26458333,0,0,0.26458333,0,161.53332)"
       id="circle5366"
       inkscape:connector-curvature="0" />
    <path
       style="color:#000000;font-style:normal;font-variant:normal;font-weight:normal;font-stretch:normal;font-size:medium;line-height:normal;font-family:sans-serif;font-variant-ligatures:normal;font-variant-position:normal;font-variant-caps:normal;font-variant-numeric:normal;font-variant-alternates:normal;font-feature-settings:normal;text-indent:0;text-align:start;text-decoration:none;text-decoration-line:none;text-decoration-style:solid;text-decoration-color:#000000;letter-spacing:normal;word-spacing:normal;text-transform:none;writing-mode:lr-tb;direction:ltr;text-orientation:mixed;dominant-baseline:auto;baseline-shift:baseline;text-anchor:start;white-space:normal;shape-padding:0;clip-rule:nonzero;display:inline;overflow:visible;visibility:visible;opacity:1;isolation:auto;mix-blend-mode:normal;color-interpolation:sRGB;color-interpolation-filters:linearRGB;solid-color:#000000;solid-opacity:1;vector-effect:none;fill:#364e59;fill-opacity:1;fill-rule:nonzero;stroke:none;stroke-width:75;stroke-linecap:round;stroke-linejoin:miter;stroke-miterlimit:25.20000076;stroke-dasharray:none;stroke-dashoffset:0;stroke-opacity:1;paint-order:fill markers stroke;color-rendering:auto;image-rendering:auto;shape-rendering:auto;text-rendering:auto;enable-background:accumulate"
       d="M 255.99609,0 C 180.34864,0 108.51392,33.497923 59.888672,91.447266 A 37.503751,37.503751 0 1 0 117.3418,139.6582 C 151.74806,98.65441 202.46946,75 255.99609,75 c 53.52665,0 104.24803,23.65441 138.6543,64.6582 A 37.503751,37.503751 0 1 0 452.10352,91.447266 C 403.47827,33.497923 331.64355,0 255.99609,0 Z M 240,8.0351562 V 68.183594 c -10.87012,0.924428 -21.57066,2.794995 -32,5.541015 V 12.1875 c 10.5136,-2.070808 21.20149,-3.4557566 32,-4.1523438 z m 32,0.00195 c 10.79816,0.696882 21.48677,2.0813308 32,4.1523438 v 61.539063 c -10.42946,-2.74656 -21.12968,-4.61807 -32,-5.542969 z M 176,20.734375 v 64.583984 c -11.24526,5.271027 -21.96331,11.662218 -32,19.078121 V 34.1875 c 10.33517,-5.217742 21.02563,-9.720325 32,-13.453125 z m 160,0.002 c 10.97447,3.733228 21.6648,8.236865 32,13.455078 V 104.40234 C 357.96319,96.985624 347.24556,90.593949 336,85.322266 Z M 112,53.498047 v 80.875003 c -0.13209,0.15638 -0.26876,0.30797 -0.40039,0.46484 l -0.0371,0.0371 -0.0293,0.0371 C 103.64622,144.5612 91.17287,148.03217 80,144.78516 V 80.574219 c 9.936575,-9.968632 20.65206,-19.009178 32,-27.076172 z m 288,0.0039 c 11.34878,8.068078 22.0629,17.110035 32,27.080078 V 144.7832 c -11.17439,3.25001 -23.65071,-0.22021 -31.53906,-9.87109 l -0.0293,-0.0371 -0.0391,-0.0371 c -0.12899,-0.15372 -0.26316,-0.30183 -0.39258,-0.45508 z"
       id="path5362"
       transform="matrix(0.26458333,0,0,0.26458333,0,161.53332)"
       inkscape:connector-curvature="0" />
    <text
       xml:space="preserve"
       style="font-style:normal;font-variant:normal;font-weight:normal;font-stretch:normal;font-size:69.77759552px;line-height:1.25;font-family:'154and164';-inkscape-font-specification:'154and164';letter-spacing:0px;word-spacing:0px;fill:#364e59;fill-opacity:1;stroke:none;stroke-width:1.74443996"
       x="138.5103"
       y="299.04425"
       id="text5637"><tspan
         sodipodi:role="line"
         id="tspan5635"
         x="138.5103"
         y="299.04425"
         style="fill:#364e59;stroke-width:1.74443996">164</tspan></text>
    <text
       id="text5641"
       y="400.4343"
       x="0"
       style="font-style:normal;font-variant:normal;font-weight:normal;font-stretch:normal;font-size:69.56763458px;line-height:1.25;font-family:'154and164';-inkscape-font-specification:'154and164';letter-spacing:0px;word-spacing:0px;fill:#364e59;fill-opacity:1;stroke:none;stroke-width:1.73919082"
       xml:space="preserve"><tspan
         style="fill:#364e59;stroke-width:1.73919082"
         y="400.4343"
         x="0"
         id="tspan5639"
         sodipodi:role="line">group</tspan></text>
  </g>
</svg>
