<?xml version="1.0" encoding="UTF-8" standalone="no"?>
<!-- Created with Inkscape (http://www.inkscape.org/) -->

<svg
   xmlns:dc="http://purl.org/dc/elements/1.1/"
   xmlns:cc="http://creativecommons.org/ns#"
   xmlns:rdf="http://www.w3.org/1999/02/22-rdf-syntax-ns#"
   xmlns:svg="http://www.w3.org/2000/svg"
   xmlns="http://www.w3.org/2000/svg"
   xmlns:sodipodi="http://sodipodi.sourceforge.net/DTD/sodipodi-0.dtd"
   xmlns:inkscape="http://www.inkscape.org/namespaces/inkscape"
   width="512"
   height="512"
   viewBox="0 0 135.46666 135.46667"
   version="1.1"
   id="svg8"
   inkscape:version="0.92.2 5c3e80d, 2017-08-06"
   sodipodi:docname="drawing-3.svg"
   inkscape:export-filename="/Users/prokhor/Downloads/iviiv.png"
   inkscape:export-xdpi="192"
   inkscape:export-ydpi="192">
  <defs
     id="defs2">
    <marker
       inkscape:isstock="true"
       style="overflow:visible"
       id="SquareL"
       refX="0"
       refY="0"
       orient="auto"
       inkscape:stockid="SquareL">
      <path
         inkscape:connector-curvature="0"
         transform="scale(0.8)"
         style="fill:#f2f2f2;fill-opacity:1;fill-rule:evenodd;stroke:#133f75;stroke-width:1.00000003pt;stroke-opacity:1"
         d="M -5,-5 V 5 H 5 V -5 Z"
         id="path1027" />
    </marker>
    <marker
       inkscape:isstock="true"
       style="overflow:visible"
       id="Arrow1Lend"
       refX="0"
       refY="0"
       orient="auto"
       inkscape:stockid="Arrow1Lend">
      <path
         inkscape:connector-curvature="0"
         transform="matrix(-0.8,0,0,-0.8,-10,0)"
         style="fill:#f2f2f2;fill-opacity:1;fill-rule:evenodd;stroke:#133f75;stroke-width:1.00000003pt;stroke-opacity:1"
         d="M 0,0 5,-5 -12.5,0 5,5 Z"
         id="path960" />
    </marker>
    <marker
       inkscape:isstock="true"
       style="overflow:visible"
       id="DiamondLend"
       refX="0"
       refY="0"
       orient="auto"
       inkscape:stockid="DiamondLend">
      <path
         inkscape:connector-curvature="0"
         transform="matrix(0.8,0,0,0.8,-5.6,0)"
         style="fill:#f2f2f2;fill-opacity:1;fill-rule:evenodd;stroke:#133f75;stroke-width:1.00000003pt;stroke-opacity:1"
         d="M 0,-7.0710768 -7.0710894,0 0,7.0710589 7.0710462,0 Z"
         id="path1054" />
    </marker>
    <marker
       inkscape:isstock="true"
       style="overflow:visible"
       id="marker1241"
       refX="0"
       refY="0"
       orient="auto"
       inkscape:stockid="DotL">
      <path
         inkscape:connector-curvature="0"
         transform="matrix(0.8,0,0,0.8,5.92,0.8)"
         style="fill:#f2f2f2;fill-opacity:1;fill-rule:evenodd;stroke:#133f75;stroke-width:1.00000003pt;stroke-opacity:1"
         d="m -2.5,-1 c 0,2.76 -2.24,5 -5,5 -2.76,0 -5,-2.24 -5,-5 0,-2.76 2.24,-5 5,-5 2.76,0 5,2.24 5,5 z"
         id="path1239" />
    </marker>
    <marker
       inkscape:isstock="true"
       style="overflow:visible"
       id="DotL"
       refX="0"
       refY="0"
       orient="auto"
       inkscape:stockid="DotL">
      <path
         inkscape:connector-curvature="0"
         transform="matrix(0.8,0,0,0.8,5.92,0.8)"
         style="fill:#f2f2f2;fill-opacity:1;fill-rule:evenodd;stroke:#133f75;stroke-width:1.00000003pt;stroke-opacity:1"
         d="m -2.5,-1 c 0,2.76 -2.24,5 -5,5 -2.76,0 -5,-2.24 -5,-5 0,-2.76 2.24,-5 5,-5 2.76,0 5,2.24 5,5 z"
         id="path1018" />
    </marker>
    <inkscape:perspective
       sodipodi:type="inkscape:persp3d"
       inkscape:vp_x="0 : 148.49997 : 1"
       inkscape:vp_y="0 : 999.99992 : 0"
       inkscape:vp_z="210.00003 : 148.49997 : 1"
       inkscape:persp3d-origin="105 : 98.999997 : 1"
       id="perspective815" />
    <mask
       maskUnits="userSpaceOnUse"
       id="mask887">
      <ellipse
         style="opacity:1;fill:#ff0000;fill-opacity:1;stroke-width:0.25579071"
         id="ellipse889"
         cx="103.16604"
         cy="141.44913"
         rx="76.439079"
         ry="79.646324" />
    </mask>
    <filter
       inkscape:label="Dragee"
       inkscape:menu="Ridges"
       inkscape:menu-tooltip="Gel Ridge with a pearlescent look"
       height="1.5"
       width="1.5"
       y="-0.25"
       x="-0.25"
       style="color-interpolation-filters:sRGB"
       id="filter4635">
      <feGaussianBlur
         stdDeviation="0.01"
         result="result1"
         id="feGaussianBlur4611" />
      <feBlend
         in="result1"
         mode="screen"
         result="result5"
         in2="result1"
         id="feBlend4613" />
      <feGaussianBlur
         stdDeviation="6"
         result="result6"
         id="feGaussianBlur4615" />
      <feComposite
         operator="xor"
         result="fbSourceGraphic"
         in="result6"
         in2="result6"
         id="feComposite4617" />
      <feColorMatrix
         result="fbSourceGraphicAlpha"
         in="fbSourceGraphic"
         values="0 0 0 -1 0 0 0 0 -1 0 0 0 0 -1 0 0 0 0 2 0 "
         id="feColorMatrix4619" />
      <feGaussianBlur
         result="result0"
         in="fbSourceGraphicAlpha"
         stdDeviation="2"
         id="feGaussianBlur4621" />
      <feSpecularLighting
         specularExponent="35"
         specularConstant="1"
         surfaceScale="3"
         lighting-color="#ffffff"
         result="result1"
         in="result0"
         id="feSpecularLighting4625">
        <feDistantLight
           azimuth="235"
           elevation="55"
           id="feDistantLight4623" />
      </feSpecularLighting>
      <feComposite
         operator="in"
         result="result2"
         in="result1"
         in2="fbSourceGraphicAlpha"
         id="feComposite4627" />
      <feComposite
         k3="1"
         k2="1"
         operator="arithmetic"
         result="result4"
         in="fbSourceGraphic"
         in2="result2"
         id="feComposite4629"
         k1="0"
         k4="0" />
      <feComposite
         operator="out"
         in2="result4"
         result="result91"
         id="feComposite4631" />
      <feBlend
         mode="multiply"
         in2="result91"
         id="feBlend4633" />
    </filter>
    <marker
       inkscape:stockid="SquareL"
       orient="auto"
       refY="0"
       refX="0"
       id="SquareL-3"
       style="overflow:visible"
       inkscape:isstock="true">
      <path
         id="path1027-8"
         d="M -5,-5 V 5 H 5 V -5 Z"
         style="fill:#f2f2f2;fill-opacity:1;fill-rule:evenodd;stroke:#133f75;stroke-width:1.00000003pt;stroke-opacity:1"
         transform="scale(0.8)"
         inkscape:connector-curvature="0" />
    </marker>
    <marker
       inkscape:stockid="Arrow1Lend"
       orient="auto"
       refY="0"
       refX="0"
       id="Arrow1Lend-0"
       style="overflow:visible"
       inkscape:isstock="true">
      <path
         id="path960-2"
         d="M 0,0 5,-5 -12.5,0 5,5 Z"
         style="fill:#f2f2f2;fill-opacity:1;fill-rule:evenodd;stroke:#133f75;stroke-width:1.00000003pt;stroke-opacity:1"
         transform="matrix(-0.8,0,0,-0.8,-10,0)"
         inkscape:connector-curvature="0" />
    </marker>
    <marker
       inkscape:stockid="DiamondLend"
       orient="auto"
       refY="0"
       refX="0"
       id="DiamondLend-4"
       style="overflow:visible"
       inkscape:isstock="true">
      <path
         id="path1054-8"
         d="M 0,-7.0710768 -7.0710894,0 0,7.0710589 7.0710462,0 Z"
         style="fill:#f2f2f2;fill-opacity:1;fill-rule:evenodd;stroke:#133f75;stroke-width:1.00000003pt;stroke-opacity:1"
         transform="matrix(0.8,0,0,0.8,-5.6,0)"
         inkscape:connector-curvature="0" />
    </marker>
    <marker
       inkscape:stockid="DotL"
       orient="auto"
       refY="0"
       refX="0"
       id="marker1241-3"
       style="overflow:visible"
       inkscape:isstock="true">
      <path
         id="path1239-9"
         d="m -2.5,-1 c 0,2.76 -2.24,5 -5,5 -2.76,0 -5,-2.24 -5,-5 0,-2.76 2.24,-5 5,-5 2.76,0 5,2.24 5,5 z"
         style="fill:#f2f2f2;fill-opacity:1;fill-rule:evenodd;stroke:#133f75;stroke-width:1.00000003pt;stroke-opacity:1"
         transform="matrix(0.8,0,0,0.8,5.92,0.8)"
         inkscape:connector-curvature="0" />
    </marker>
    <marker
       inkscape:stockid="DotL"
       orient="auto"
       refY="0"
       refX="0"
       id="DotL-0"
       style="overflow:visible"
       inkscape:isstock="true">
      <path
         id="path1018-5"
         d="m -2.5,-1 c 0,2.76 -2.24,5 -5,5 -2.76,0 -5,-2.24 -5,-5 0,-2.76 2.24,-5 5,-5 2.76,0 5,2.24 5,5 z"
         style="fill:#f2f2f2;fill-opacity:1;fill-rule:evenodd;stroke:#133f75;stroke-width:1.00000003pt;stroke-opacity:1"
         transform="matrix(0.8,0,0,0.8,5.92,0.8)"
         inkscape:connector-curvature="0" />
    </marker>
    <inkscape:perspective
       id="perspective815-2"
       inkscape:persp3d-origin="105 : 98.999992 : 1"
       inkscape:vp_z="210.00001 : 148.49997 : 1"
       inkscape:vp_y="0 : 999.99987 : 0"
       inkscape:vp_x="0 : 148.49997 : 1"
       sodipodi:type="inkscape:persp3d" />
    <mask
       id="mask887-2"
       maskUnits="userSpaceOnUse">
      <ellipse
         ry="79.646324"
         rx="76.439079"
         cy="141.44913"
         cx="103.16604"
         id="ellipse889-7"
         style="opacity:1;fill:#ff0000;fill-opacity:1;stroke-width:0.25579071" />
    </mask>
    <filter
       id="filter4635-3"
       style="color-interpolation-filters:sRGB"
       x="-0.25"
       y="-0.25"
       width="1.5"
       height="1.5"
       inkscape:menu-tooltip="Gel Ridge with a pearlescent look"
       inkscape:menu="Ridges"
       inkscape:label="Dragee">
      <feGaussianBlur
         id="feGaussianBlur4611-7"
         result="result1"
         stdDeviation="0.01" />
      <feBlend
         id="feBlend4613-9"
         in2="result1"
         result="result5"
         mode="screen"
         in="result1" />
      <feGaussianBlur
         id="feGaussianBlur4615-0"
         result="result6"
         stdDeviation="6" />
      <feComposite
         id="feComposite4617-2"
         in2="result6"
         in="result6"
         result="fbSourceGraphic"
         operator="xor" />
      <feColorMatrix
         id="feColorMatrix4619-3"
         values="0 0 0 -1 0 0 0 0 -1 0 0 0 0 -1 0 0 0 0 2 0 "
         in="fbSourceGraphic"
         result="fbSourceGraphicAlpha" />
      <feGaussianBlur
         id="feGaussianBlur4621-9"
         stdDeviation="2"
         in="fbSourceGraphicAlpha"
         result="result0" />
      <feSpecularLighting
         id="feSpecularLighting4625-9"
         in="result0"
         result="result1"
         lighting-color="#ffffff"
         surfaceScale="3"
         specularConstant="1"
         specularExponent="35">
        <feDistantLight
           id="feDistantLight4623-7"
           elevation="55"
           azimuth="235" />
      </feSpecularLighting>
      <feComposite
         id="feComposite4627-0"
         in2="fbSourceGraphicAlpha"
         in="result1"
         result="result2"
         operator="in" />
      <feComposite
         k4="0"
         k1="0"
         id="feComposite4629-3"
         in2="result2"
         in="fbSourceGraphic"
         result="result4"
         operator="arithmetic"
         k2="1"
         k3="1" />
      <feComposite
         id="feComposite4631-9"
         result="result91"
         in2="result4"
         operator="out" />
      <feBlend
         id="feBlend4633-8"
         in2="result91"
         mode="multiply" />
    </filter>
  </defs>
  <sodipodi:namedview
     id="base"
     pagecolor="#ffffff"
     bordercolor="#666666"
     borderopacity="1.0"
     inkscape:pageopacity="0"
     inkscape:pageshadow="2"
     inkscape:zoom="0.64453125"
     inkscape:cx="256"
     inkscape:cy="409.59216"
     inkscape:document-units="px"
     inkscape:current-layer="layer1"
     showgrid="false"
     units="px"
     inkscape:pagecheckerboard="true"
     inkscape:window-width="1440"
     inkscape:window-height="855"
     inkscape:window-x="0"
     inkscape:window-y="1"
     inkscape:window-maximized="1"
     inkscape:showpageshadow="true"
     showborder="true" />
  <metadata
     id="metadata5">
    <rdf:RDF>
      <cc:Work
         rdf:about="">
        <dc:format>image/svg+xml</dc:format>
        <dc:type
           rdf:resource="http://purl.org/dc/dcmitype/StillImage" />
        <dc:title></dc:title>
      </cc:Work>
    </rdf:RDF>
  </metadata>
  <g
     inkscape:label="Layer 1"
     inkscape:groupmode="layer"
     id="layer1"
     transform="translate(0,-161.53331)">
    <path
       style="opacity:1;fill:#00a4ff;fill-opacity:1;stroke:none;stroke-width:25.13215446;stroke-linecap:round;stroke-linejoin:miter;stroke-miterlimit:25.20000076;stroke-dasharray:none;stroke-opacity:1;paint-order:fill markers stroke"
       d="m 126.43983,195.39946 a 67.73333,67.73333 0 0 1 0.31161,0.60772 l -1.36426,-1e-5 z m 1.37562,2.68459 a 67.73333,67.73333 0 0 1 0.50799,0.99167 h -8.25118 l 1.71772,-0.99167 z m 1.57252,3.06855 a 67.73333,67.73333 0 0 1 0.42168,0.99167 h -15.05231 l 1.71773,-0.99167 z m 1.23558,3.06854 a 67.73333,67.73333 0 0 1 0.38912,0.99219 H 109.4419 l 1.71824,-0.99219 z m 1.20303,3.06855 a 67.73333,67.73333 0 0 1 0.32762,0.99219 h -21.43073 a 47.894687,47.894687 0 0 0 -0.45319,-0.99219 z m 0.91002,3.06907 a 67.73333,67.73333 0 0 1 0.27853,0.99166 l -20.89226,10e-6 a 47.894687,47.894687 0 0 0 -0.45216,-0.99167 z m 0.86145,3.06854 a 67.73333,67.73333 0 0 1 0.25993,0.99167 h -20.6561 a 47.894687,47.894687 0 0 0 -0.33694,-0.99167 z m 0.62425,3.06855 a 67.73333,67.73333 0 0 1 0.17415,0.99219 h -20.29127 a 47.894687,47.894687 0 0 0 -0.22996,-0.99219 z m 0.53795,3.06854 a 67.73333,67.73333 0 0 1 0.17415,0.99219 h -20.11764 a 47.894687,47.894687 0 0 0 -0.22996,-0.99219 z m 0.3638,3.06907 a 67.73333,67.73333 0 0 1 0.0734,0.99167 h -19.95537 a 47.894687,47.894687 0 0 0 -0.12764,-0.99167 z m 0.22635,3.06855 a 67.73333,67.73333 0 0 1 0.0734,0.99166 H 115.5268 a 47.894687,47.894687 0 0 0 -0.0279,-0.99167 z m 0.11626,3.06854 a 67.73333,67.73333 0 0 1 -0.0263,0.99219 h -19.82876 a 47.894687,47.894687 0 0 0 -0.0274,-0.99219 z m -0.0811,3.06906 a 67.73333,67.73333 0 0 1 -0.0263,0.99167 H 115.4529 a 47.894687,47.894687 0 0 0 0.0713,-0.99166 z m -0.12867,3.06855 a 67.73333,67.73333 0 0 1 -0.12609,0.99167 h -19.97449 a 47.894687,47.894687 0 0 0 0.14676,-0.99167 z m -0.39015,3.06855 a 67.73333,67.73333 0 0 1 -0.1261,0.99218 h -20.11815 a 47.894687,47.894687 0 0 0 0.1726,-0.99218 z m -0.39016,3.06855 a 67.73333,67.73333 0 0 1 -0.21704,0.99218 h -20.39773 a 47.894687,47.894687 0 0 0 0.27647,-0.99218 z m -0.69557,3.06906 a 67.73333,67.73333 0 0 1 -0.22841,0.99167 l -20.6158,-1e-5 a 47.894687,47.894687 0 0 0 0.3452,-0.99166 z m -0.70693,3.06854 a 67.73333,67.73333 0 0 1 -0.2744,0.99168 l -21.06073,-1e-5 a 47.894687,47.894687 0 0 0 0.38706,-0.99167 z m -0.97721,3.06855 a 67.73333,67.73333 0 0 1 -0.33589,0.99219 H 110.2651 a 47.894687,47.894687 0 0 0 0.50644,-0.99219 z m -1.03921,3.06855 a 67.73333,67.73333 0 0 1 -0.35295,0.99218 l -22.11596,1e-5 a 47.894687,47.894687 0 0 0 0.60564,-0.9922 z m -1.29656,3.06906 a 67.73333,67.73333 0 0 1 -0.4501,0.99167 h -22.83375 a 47.894687,47.894687 0 0 0 0.71004,-0.99167 z m -1.39371,3.06855 a 67.73333,67.73333 0 0 1 -0.46146,0.99167 h -23.86004 a 47.894687,47.894687 0 0 0 0.87229,-0.99167 z m -1.59577,3.06854 a 67.73333,67.73333 0 0 1 -0.33175,0.60721 67.73333,67.73333 0 0 1 -0.24859,0.38497 h -25.02172 a 47.894687,47.894687 0 0 0 1.04954,-0.99218 z m -1.92185,3.06855 a 67.73333,67.73333 0 0 1 -0.64131,0.99218 H 97.69946 a 47.894687,47.894687 0 0 0 1.239205,-0.99218 z m -1.98282,3.06906 a 67.73333,67.73333 0 0 1 -0.76792,0.99167 H 93.377759 a 47.894687,47.894687 0 0 0 1.586471,-0.99167 z m -2.42569,3.06855 a 67.73333,67.73333 0 0 1 -0.79168,0.99219 H 87.724364 a 47.894687,47.894687 0 0 0 2.056722,-0.99219 z m -2.57194,3.06855 a 67.73333,67.73333 0 0 1 -0.96893,0.99219 l -38.129974,-10e-6 a 47.894687,47.894687 0 0 0 3.674192,-0.99219 z m -2.99724,3.06906 a 67.73333,67.73333 0 0 1 -0.9684,0.99167 H 67.780359 l 4e-6,-0.99167 z m -3.4282,3.06855 a 67.73333,67.73333 0 0 1 -1.18391,0.99167 H 67.780364 l -3e-6,-0.99168 z m -3.85868,3.06854 a 67.73333,67.73333 0 0 1 -1.45935,0.99219 H 67.780363 l -5e-6,-0.99219 z m -4.51291,3.06855 a 67.73333,67.73333 0 0 1 -1.81539,0.99219 H 67.780879 l -5e-6,-0.99219 z m -5.641518,3.06906 a 67.73333,67.73333 0 0 1 -2.258775,0.99167 H 67.780876 l -4e-6,-0.99167 z m -7.434684,3.06855 a 67.73333,67.73333 0 0 1 -3.237532,0.99167 H 67.780873 l 5e-6,-0.99167 z m -12.42405,3.06854 a 67.73333,67.73333 0 0 1 -9.791134,0.71831 l 10e-7,-0.71831 z"
       id="path827"
       inkscape:connector-curvature="0" />
    <path
       id="path6699"
       d="M 9.03154,263.13324 A 67.73333,67.73333 0 0 1 8.80497,262.6912 l 17.16953,-9.91283 a 47.894687,47.894687 0 0 0 0.23774,0.43558 47.894687,47.894687 0 0 0 0.26995,0.41698 l -17.19235,9.92601 a 67.73333,67.73333 0 0 1 -0.25835,-0.42367 z m 1.33931,2.19775 17.24249,-9.95494 a 47.894687,47.894687 0 0 0 0.54017,0.83321 l -17.24293,9.95521 a 67.73333,67.73333 0 0 1 -0.53966,-0.83352 z m -2.51434,-4.49036 a 67.73333,67.73333 0 0 1 -0.45288,-0.88361 l 17.18609,-9.92239 a 47.894687,47.894687 0 0 0 0.41174,0.90736 z M 6.45515,258.10645 A 67.73333,67.73333 0 0 1 6.00271,257.2226 l 17.31318,-9.99577 a 47.894687,47.894687 0 0 0 0.41174,0.90735 z m 5.66879,9.75565 17.23576,-9.95107 a 47.894687,47.894687 0 0 0 0.62697,0.7831 l -17.2832,9.97846 a 67.73333,67.73333 0 0 1 -0.5795,-0.81051 z m 1.79339,2.50784 17.38255,-10.03582 a 47.894687,47.894687 0 0 0 0.64424,0.77372 l -17.447,10.07303 a 67.73333,67.73333 0 0 1 -0.57975,-0.81095 z M 5.22476,255.27356 a 67.73333,67.73333 0 0 1 -0.36631,-0.93418 l 17.42328,-10.05934 a 47.894687,47.894687 0 0 0 0.3238,0.95874 z m -1.13284,-2.88921 a 67.73333,67.73333 0 0 1 -0.36631,-0.93418 l 17.65376,-10.19241 a 47.894687,47.894687 0 0 0 0.23205,1.01171 z m 11.78207,20.39916 17.57008,-10.14409 a 47.894687,47.894687 0 0 0 0.71673,0.73188 l -17.61885,10.17225 a 67.73333,67.73333 0 0 1 -0.66796,-0.76004 z M 3.08447,249.42216 a 67.73333,67.73333 0 0 1 -0.27654,-0.98542 l 17.85246,-10.30711 a 47.894687,47.894687 0 0 0 0.23224,1.01099 z m 14.85547,25.71243 17.788011,-10.26992 a 47.894687,47.894687 0 0 0 0.810445,0.67718 L 18.60717,275.89443 a 67.73333,67.73333 0 0 1 -0.66723,-0.75984 z m 2.18901,2.27942 18.107544,-10.45439 a 47.894687,47.894687 0 0 0 0.837302,0.66167 L 20.88793,278.1209 a 67.73333,67.73333 0 0 1 -0.75898,-0.70689 z M 2.22884,246.37291 a 67.73333,67.73333 0 0 1 -0.27655,-0.98542 l 18.24808,-10.53553 a 47.894687,47.894687 0 0 0 0.13513,1.06706 z m -0.76363,-3.10238 a 67.73333,67.73333 0 0 1 -0.18237,-1.04038 l 18.63743,-10.76033 a 47.894687,47.894687 0 0 0 0.0293,1.12876 z m 21.01205,36.33094 18.5072,-10.68514 a 47.894687,47.894687 0 0 0 0.912745,0.6187 L 23.2365,280.30879 a 67.73333,67.73333 0 0 1 -0.75924,-0.70732 z m 2.44679,2.1306 19.007091,-10.97376 a 47.894687,47.894687 0 0 0 1.024628,0.55411 L 25.7804,282.38333 a 67.73333,67.73333 0 0 1 -0.85635,-0.65126 z M 0.90113,240.05296 a 67.73333,67.73333 0 0 1 -0.18237,-1.04039 l 19.12972,-11.04455 a 47.894687,47.894687 0 0 0 0.0105,1.1396 z m -0.4882,-3.26198 a 67.73333,67.73333 0 0 1 -0.081,-1.09834 l 19.79161,-11.42669 a 47.894687,47.894687 0 0 0 -0.0891,1.19651 z m 27.16039,46.95538 19.538753,-11.28071 a 47.894687,47.894687 0 0 0 1.150577,0.4808 l -19.83323,11.45072 a 67.73333,67.73333 0 0 1 -0.8561,-0.65081 z m 2.74484,1.95851 20.354605,-11.75174 a 47.894687,47.894687 0 0 0 1.201598,0.45135 L 31.28033,286.29445 a 67.73333,67.73333 0 0 1 -0.96217,-0.58958 z M 0.16215,233.39251 a 67.73333,67.73333 0 0 1 -0.081,-1.09832 l 20.63566,-11.91402 a 47.894687,47.894687 0 0 0 -0.22425,1.27456 z M 0,229.94287 a 67.73333,67.73333 0 0 1 0.0306,-1.16337 l 21.6601,-12.50543 a 47.894687,47.894687 0 0 0 -0.38465,1.36775 z m 33.29437,57.58694 21.2989,-12.29693 a 47.894687,47.894687 0 0 0 1.298968,0.39572 L 34.25679,288.11983 a 67.73333,67.73333 0 0 1 -0.96242,-0.59002 z m 3.106004,1.75 22.567202,-13.02918 a 47.894687,47.894687 0 0 0 1.477086,0.29288 l -22.964164,13.25836 a 67.73333,67.73333 0 0 1 -1.080124,-0.52206 z M 0.09514,226.34469 a 67.73333,67.73333 0 0 1 0.0306,-1.16338 l 23.04432,-13.3046 a 47.894687,47.894687 0 0 0 -0.58156,1.48144 z m 0.24172,-3.68341 a 67.73333,67.73333 0 0 1 0.15667,-1.23553 l 24.87019,-14.35881 a 47.894687,47.894687 0 0 0 -0.83513,1.62724 z M 39.742599,290.89403 63.96745,276.9078 a 47.894687,47.894687 0 0 0 1.725653,0.14878 l -24.87064,14.35907 a 67.73333,67.73333 0 0 1 -1.079864,-0.52162 z M 0.82289,218.83742 a 67.73333,67.73333 0 0 1 0.15668,-1.23553 l 23.25371,-13.42554 0.9917,0.57252 z m 42.482602,73.54282 24.385075,-14.07873 -2.24e-4,1.14581 -23.169125,13.3767 a 67.73333,67.73333 0 0 1 -1.215726,-0.44378 z m 3.759845,1.3725 20.625368,-11.90805 -2.19e-4,1.1458 -19.329312,11.15979 a 67.73333,67.73333 0 0 1 -1.295837,-0.39754 z M 1.59066,214.8509 a 67.73333,67.73333 0 0 1 0.30454,-1.32151 l 19.2689,-11.1249 0.99241,0.57271 z m 0.94435,-4.08907 a 67.73333,67.73333 0 0 1 0.48158,-1.42312 l 15.0791,-8.70592 0.9917,0.57251 z m 48.706169,84.12384 16.449444,-9.49708 -2.9e-5,1.14509 -15.074184,8.70308 a 67.73333,67.73333 0 0 1 -1.375231,-0.35109 z m 4.436056,0.9821 12.013081,-6.93576 -3.3e-5,1.14511 -10.441341,6.0283 a 67.73333,67.73333 0 0 1 -1.571707,-0.23765 z M 4.02563,206.35797 a 67.73333,67.73333 0 0 1 0.48202,-1.42339 l 10.51967,-6.07352 0.99125,0.57278 z m 56.515103,90.2451 7.149751,-4.1279 2.36e-4,1.14554 -5.386038,3.10963 a 67.73333,67.73333 0 0 1 -1.763949,-0.12727 z M 5.89573,201.73501 a 67.73333,67.73333 0 0 1 0.70508,-1.55276 l 5.3574,-3.09308 0.99195,0.57297 z m 2.35252,-4.90149 a 67.73333,67.73333 0 0 1 0.78331,-1.43381 l 0.85019,0.49073 z m 57.877817,100.08812 1.564568,-0.90331 -1.11e-4,0.98164 a 67.73333,67.73333 0 0 1 -1.564456,-0.0783 z"
       mask="none"
       style="opacity:1;fill:#4040ff;fill-opacity:1;stroke:none;stroke-width:25.13215446;stroke-linecap:round;stroke-linejoin:miter;stroke-miterlimit:25.20000076;stroke-dasharray:none;stroke-opacity:1;paint-order:fill markers stroke"
       inkscape:connector-curvature="0" />
    <path
       style="opacity:1;fill:#ffa400;fill-opacity:1;stroke:none;stroke-width:25.13215446;stroke-linecap:round;stroke-linejoin:miter;stroke-miterlimit:25.20000076;stroke-dasharray:none;stroke-opacity:1;paint-order:fill markers stroke;"
       mask="none"
       d="m 67.733333,161.53337 a 67.73333,67.73333 0 0 0 -0.49609,0.0248 v 19.82566 a 47.894687,47.894687 0 0 1 0.49609,-0.0119 47.894687,47.894687 0 0 1 0.4961,0.0253 v -19.85202 a 67.73333,67.73333 0 0 0 -0.4961,-0.0119 z m 2.57297,0.061 v 19.9099 a 47.894687,47.894687 0 0 1 0.99167,0.0512 v -19.91041 a 67.73333,67.73333 0 0 0 -0.99167,-0.0506 z m -5.14594,0.0677 a 67.73333,67.73333 0 0 0 -0.99167,0.0496 v 19.84478 a 47.894687,47.894687 0 0 1 0.99167,-0.0971 z m -3.06855,0.15347 a 67.73333,67.73333 0 0 0 -0.99166,0.0501 v 19.99155 a 47.894687,47.894687 0 0 1 0.99166,-0.0972 z m 11.28304,0.0315 v 19.90214 a 47.894687,47.894687 0 0 1 0.99167,0.15141 v -19.95692 a 67.73333,67.73333 0 0 0 -0.99167,-0.0966 z m 3.06854,0.2992 v 20.07165 a 47.894687,47.894687 0 0 1 0.99219,0.17105 v -20.14606 a 67.73333,67.73333 0 0 0 -0.99219,-0.0966 z m -17.42012,0.0202 a 67.73333,67.73333 0 0 0 -0.99219,0.14986 v 20.11867 a 47.894687,47.894687 0 0 1 0.99219,-0.19896 z m -3.06855,0.46354 a 67.73333,67.73333 0 0 0 -0.992181,0.14986 v 20.3848 a 47.894687,47.894687 0 0 1 0.992181,-0.30489 z m 23.557219,0.004 v 20.28817 a 47.894687,47.894687 0 0 1 0.99219,0.25476 v -20.34449 a 67.73333,67.73333 0 0 0 -0.99219,-0.19844 z m -26.62628,0.60461 a 67.73333,67.73333 0 0 0 -0.99167,0.25322 v 20.61424 a 47.894687,47.894687 0 0 1 0.99167,-0.30437 z m 29.69535,0.009 v 20.53983 a 47.894687,47.894687 0 0 1 0.991661,0.36329 v -20.7052 a 67.73333,67.73333 0 0 0 -0.991661,-0.19792 z m 3.06854,0.75602 v 20.90881 a 47.894687,47.894687 0 0 1 0.99167,0.39429 v -20.99924 a 67.73333,67.73333 0 0 0 -0.99167,-0.30386 z m -35.83244,0.0186 a 67.73333,67.73333 0 0 0 -0.99167,0.25321 v 21.07107 a 47.894687,47.894687 0 0 1 0.99167,-0.41651 z m -3.06854,0.88987 a 67.73333,67.73333 0 0 0 -0.99219,0.36225 v 21.52065 a 47.894687,47.894687 0 0 1 0.99219,-0.53899 z m 41.96953,0.0315 v 21.37027 a 47.894687,47.894687 0 0 1 0.992181,0.48111 v -21.54752 a 67.73333,67.73333 0 0 0 -0.992181,-0.30386 z m 3.06854,1.05368 v 21.9475 a 47.894687,47.894687 0 0 1 0.99219,0.6103 v -22.1418 a 67.73333,67.73333 0 0 0 -0.99219,-0.416 z m -48.10662,0.0351 a 67.73333,67.73333 0 0 0 -0.99219,0.36225 v 22.0891 a 47.894687,47.894687 0 0 1 0.99219,-0.5607 z m -3.06906,1.2082 a 67.73333,67.73333 0 0 0 -0.99167,0.47904 v 22.85338 a 47.894687,47.894687 0 0 1 0.99167,-0.67541 z m 54.24475,0.0439 v 22.56141 a 47.894687,47.894687 0 0 1 0.99167,0.75603 v -22.90144 a 67.73333,67.73333 0 0 0 -0.99167,-0.416 z m 3.06854,1.39785 v 23.50347 a 47.894687,47.894687 0 0 1 0.99167,0.81494 v -23.77994 a 67.73333,67.73333 0 0 0 -0.99167,-0.53847 z m -60.38184,0.0403 a 67.73333,67.73333 0 0 0 -0.99167,0.47904 v 23.828 a 47.894687,47.894687 0 0 1 0.99167,-0.83147 z m -3.06855,1.5844 a 67.73333,67.73333 0 0 0 -0.99218,0.60823 v 25.01087 a 47.894687,47.894687 0 0 1 0.99218,-1.01699 z m 66.518938,0.0403 v 24.59385 a 47.894687,47.894687 0 0 1 0.99219,0.92708 v -24.98247 a 67.73333,67.73333 0 0 0 -0.99219,-0.53847 z m 3.06855,1.81488 v 26.05836 a 47.894687,47.894687 0 0 1 0.99218,1.13275 v -26.51673 a 67.73333,67.73333 0 0 0 -0.99218,-0.67438 z m -72.656028,0.0263 a 67.73333,67.73333 0 0 0 -0.99219,0.60824 v 26.60922 a 47.894687,47.894687 0 0 1 0.99219,-1.24436 z m -3.06906,2.05104 a 67.73333,67.73333 0 0 0 -0.99168,0.75344 v 28.71763 a 47.894687,47.894687 0 0 1 0.99168,-1.53686 z m 78.794148,0.01 v 27.97245 a 47.894687,47.894687 0 0 1 0.99167,1.42007 v -28.71828 a 67.73333,67.73333 0 0 0 -0.99167,-0.67438 z m -81.862698,2.32286 a 67.73333,67.73333 0 0 0 -0.99167,0.75344 v 26.85107 l 0.99167,0.57258 z m 84.931248,0.0196 v 28.15746 l 0.99218,-0.57309 v -26.75341 a 67.73333,67.73333 0 0 0 -0.99218,-0.83096 z m 3.06854,2.56987 v 23.81612 l 0.99219,-0.57309 v -22.31957 a 67.73333,67.73333 0 0 0 -0.99219,-0.92346 z m -91.068338,0.0687 a 67.73333,67.73333 0 0 0 -0.99219,0.92449 v 22.24981 l 0.99219,0.57309 z m -3.06906,2.86236 a 67.73333,67.73333 0 0 0 -0.99167,1.12861 v 17.41186 l 0.99167,0.57258 z m 97.206468,0.11886 v 18.99419 l 0.99167,-0.57258 v -17.40617 a 67.73333,67.73333 0 0 0 -0.99167,-1.01544 z m 3.06854,3.3507 v 13.8715 l 0.99167,-0.57258 v -12.05662 a 67.73333,67.73333 0 0 0 -0.99167,-1.2423 z m -103.343558,0.0232 a 67.73333,67.73333 0 0 0 -0.99167,1.12913 v 12.14706 l 0.99167,0.57206 z m 106.412108,3.82096 v 8.25582 l 0.99219,-0.57257 v -6.21926 a 67.73333,67.73333 0 0 0 -0.99219,-1.46399 z m -109.480658,0.11007 a 67.73333,67.73333 0 0 0 -0.99218,1.38699 v 6.18619 l 0.99218,0.57257 z m -3.0685395,4.48809 a 67.73333,67.73333 0 0 0 -0.85008,1.39527 l 0.85008,0.49092 z M 125.5422,194.0844 v 1.80661 l 0.85008,-0.49092 a 67.73333,67.73333 0 0 0 -0.85008,-1.31569 z"
       id="circle819"
       inkscape:connector-curvature="0" />
    <path
       style="opacity:1;fill:#a42929;fill-opacity:1;stroke:none;stroke-width:36.09103775;stroke-linecap:round;stroke-linejoin:miter;stroke-miterlimit:25.20000076;stroke-dasharray:none;stroke-opacity:1;paint-order:fill markers stroke"
       d="m 68.215991,163.38488 -0.01705,0.01 h 2.037083 v 0.99218 h -3.755842 l -1.249535,0.72141 v -1.71359 h 0.983919 l 0.01705,-0.01 z m 2.02003,1.23093 v 1.14567 l -1.215946,0.70228 h 1.215946 v 0.99167 H 67.30235 l -2.071706,1.19631 v -1.14567 l 0.08733,-0.0506 h -0.08733 V 166.4638 H 67.0357 Z m 0,3.54397 v 1.14515 l -0.393774,0.22737 h 0.393774 v 0.99168 H 68.12504 l -2.894396,1.67121 v -1.14567 l 0.910537,-0.52554 h -0.910537 v -0.99168 h 2.628262 z m 0,3.54345 v 1.88981 h -1.289844 l -3.597195,2.07687 h 4.153751 l 0.733288,-0.42323 v 1.41491 h -0.466638 l -3.597195,2.07687 h 4.063833 v 0.80874 h -5.005377 v -1.41077 l 2.554364,-1.47484 h -2.554364 v -2.06861 l 1.732193,-0.99994 h -1.732193 v -0.99219 h 3.450434 z"
       id="path976"
       inkscape:connector-curvature="0" />
    <g
       id="g6502"
       transform="translate(3.2159057)" />
    <g
       id="g6765">
      <g
         id="g6630"
         transform="rotate(90,66.125378,230.87459)" />
    </g>
    <path
       inkscape:connector-curvature="0"
       style="opacity:1;fill:#a42929;fill-opacity:1;stroke:none;stroke-width:36.09103775;stroke-linecap:round;stroke-linejoin:miter;stroke-miterlimit:25.20000076;stroke-dasharray:none;stroke-opacity:1;paint-order:fill markers stroke"
       d="m 117.04351,243.98668 0.31316,0.38292 -0.80099,0.4625 z m 0.4811,0.58807 0.99167,1.2113 v 0.31212 l 0.17364,-0.10025 0.63613,0.77773 -0.80977,0.46716 v 2.3983 l 2.07688,-1.19889 v -0.11834 l 0.99219,1.21233 v 1.87637 l 1.04283,-0.60203 0.63717,0.77824 -1.68,0.96945 v 2.39831 l 2.07636,-1.19838 V 252.073 l 1.57251,1.92185 -0.58033,0.33486 v 2.39831 l 1.91358,-1.10433 1.15497,1.41128 v 0.77825 l -1.58647,2.74815 -1.48208,0.85576 v 0.5209 l -2.23087,-0.37879 1.23869,-0.7152 v -2.39778 l -2.07636,1.19889 v 1.77198 l -0.99219,-0.16898 v -1.03043 l -1.37873,0.79634 -1.68982,-0.28681 v -2.28099 l -2.07687,1.19889 v 0.72916 l -2.50786,-0.42634 1.51619,-0.8754 v -2.39778 l -2.07688,1.19889 v 1.97921 l -0.99219,-0.16847 v -1.23765 l -1.65674,0.95602 -1.44591,-0.24546 1.02578,-1.77664 V 258.5 l 2.07687,-1.19941 v -2.39727 l -0.96945,0.55966 0.40256,-0.69712 1.55908,0.35657 v 1.60559 l 1.99264,-1.15032 1.42111,0.32504 -0.3452,0.19947 V 258.5 l 2.07687,-1.19889 v -1.00253 l 0.99167,0.22686 v 0.20309 l 0.25219,-0.14521 1.42006,0.32453 -1.67225,0.96583 v 2.39831 l 2.07688,-1.19942 v -2.07222 l 0.99219,0.22686 V 258.5 l 2.07636,-1.19889 v -2.39831 l -2.07636,1.1989 v 0.18293 l -0.99219,-1.07797 v -2.07532 l -1.24747,0.72036 -0.68885,-0.74827 1.93632,-1.11776 v -2.39779 l -2.07688,1.19941 v 2.16318 l -0.99167,-1.07745 v -0.51315 l -0.3085,0.17828 -0.68885,-0.74827 0.99735,-0.5762 v -2.3983 l -2.07687,1.19941 v 0.60203 l -1.01699,-1.10484 1.01699,-1.76165 v 1.11931 l 2.07687,-1.19889 z m 9.20616,12.09952 -2.07688,1.19941 v 2.39779 l 2.07688,-1.1989 z m -18.8929,3.25717 1.47226,0.85007 v 1.26246 l 1.09347,-0.63149 1.97559,1.14102 v 1.26142 l 1.09296,-0.63097 1.97559,1.14102 v 1.26142 l 1.09244,-0.63097 1.9761,1.14102 v 1.26245 l 1.09348,-0.63097 1.97559,1.1405 v 0.57516 l -1.58595,2.74712 -1.3348,0.77049 -1.13999,-0.65784 v -2.22674 l -1.92856,1.11311 -1.13998,-0.65784 v -2.22725 l -1.92857,1.11363 -1.1405,-0.65836 v -2.22674 l -1.92856,1.11311 -1.13998,-0.65836 v -2.22673 l -1.92857,1.11311 -1.05471,-0.60875 0.9064,-1.56993 v 1.11983 l 2.07688,-1.19941 v -2.39779 l -0.96945,0.55966 z m 3.54913,2.05827 -2.07687,1.19889 v 2.39831 l 2.07687,-1.1989 z m 3.06907,1.77147 -2.07688,1.19889 v 2.3983 l 2.07688,-1.19941 z m 3.06854,1.77198 -2.07687,1.19889 v 2.39831 l 2.07687,-1.19889 z m 3.06855,1.77199 -2.07688,1.19889 v 2.3983 l 2.07688,-1.19941 z"
       id="path983" />
    <g
       aria-label="IV"
       transform="matrix(-0.5,-0.8660254,-0.8660254,0.5,135.81652,0)"
       style="font-style:normal;font-variant:normal;font-weight:normal;font-stretch:normal;font-size:22.57777786px;line-height:1.25;font-family:'Arial Black';-inkscape-font-specification:'Arial Black, ';text-align:start;letter-spacing:-0.936625px;word-spacing:0px;text-anchor:start;fill:#a400a4;fill-opacity:1;stroke:none;stroke-width:0.26458332"
       id="text6887">
      <path
         inkscape:connector-curvature="0"
         style="font-style:normal;font-variant:normal;font-weight:normal;font-stretch:normal;font-family:'Arial Black';-inkscape-font-specification:'Arial Black, ';fill:#a400a4;fill-opacity:1;stroke-width:0.99999994"
         d="m 440.50391,312.54297 -2.16407,3.75 h 5.24805 v 7.84765 h -7.84961 v -3.34179 l -4.0957,7.09179 h 0.34765 v 0.55079 l 3.74805,4.03711 v -4.5879 h 7.84961 v 7.84961 h -4.82031 l 3.48047,3.74805 h 1.33984 v 1.44336 l 3.74805,4.03711 v -5.48047 h 7.84961 v 7.84961 h -5.64844 l 3.48047,3.74805 h 2.16797 v 2.33594 l 3.75,4.03906 v -6.375 h 7.84765 v 7.84961 h -6.47851 l 2.57422,2.77148 -12.36719,-2.77148 h -3.17578 v -0.71094 l -3.74805,-0.8418 v 1.55274 h -7.84961 V 355.625 l -3.74805,-0.83984 v 4.15039 h -7.84961 v -5.91016 l -3.75,-0.83984 v 6.75 h -6.66992 l -4.92773,8.5332 v 1.38867 l 3.75,0.61524 v -6.78711 h 7.84765 v 7.84961 h -1.35742 l 22.88868,3.74804 h 1.66601 v 0.27344 l 3.74805,0.61328 v -0.88672 h 7.84961 v 2.17188 l 3.75,0.61523 v -2.78711 h 7.84765 v 4.07227 l 3.75,0.61328 v -4.68555 h 4.85938 l 2.16406,-3.74804 h -7.02344 v -7.84961 h 7.84961 v 6.41797 l 4.34766,-7.53125 -4.34766,-5.24805 v 2.61133 h -7.84961 v -7.84961 h 3.50977 l -3.10547,-3.74805 h -0.4043 v -0.48828 l -3.75,-4.52539 v 5.01367 h -7.84765 v -7.84961 h 5.49804 l -3.10351,-3.74805 h -2.39453 v -2.88867 l -3.75,-4.52734 v 7.41601 h -7.84961 v -7.84961 h 7.49023 l -3.10742,-3.75 h -4.38281 v -5.29101 l -5.22461,-6.30664 z m -16.36329,50.14258 h 7.84961 v 7.84961 h -7.84961 z m 11.59766,0 h 7.84961 v 7.84961 h -7.84961 z m 11.59766,0 h 7.84961 v 7.84961 h -7.84961 z m 11.59961,0 h 7.84765 v 7.84961 h -7.84765 z m -52.83594,9.44726 -1.24219,2.15039 h 3.93555 v 7.84961 h -7.84961 v -1.06836 l -3.74805,6.49414 v 1.27539 l 3.74805,2.16407 v -5.11719 h 7.84961 v 7.84961 h -3.11719 l 6.86719,3.96484 v -0.21484 h 7.84765 v 4.74609 l 3.75,2.16602 v -6.91211 h 7.84961 v 7.84765 h -6.22851 l 9.97656,5.75977 v -2.00977 h 7.84961 v 6.54102 l 5.95313,3.4375 1.22851,-2.12891 h -3.43359 v -7.84961 h 7.84961 v 0.20313 l 3.75,-6.49609 v -0.14844 l -3.75,-2.16602 v 4.85742 h -7.84961 v -7.84765 h 2.66797 l -6.49414,-3.75 h -7.77149 v -4.48633 l -3.74805,-2.16406 v 6.65039 h -7.84961 v -7.84961 h 5.77149 l -9.52149,-5.49805 v 1.75 h -7.84765 v -6.27929 z m 6.44336,13.74805 h 7.84765 v 7.84961 h -7.84765 z m 23.19531,11.59961 h 7.84961 v 7.84765 h -7.84961 z"
         transform="matrix(0.13229167,0.22913589,-0.22913589,0.13229167,-139.89195,80.766655)"
         id="path1033" />
    </g>
    <path
       style="display:none;fill:#ff0000;fill-opacity:1;stroke:none;stroke-width:5.08583641;stroke-miterlimit:4;stroke-dasharray:none;stroke-opacity:1"
       d="m 112.78297,399.08962 65.36302,10.14624 -10.14625,65.36303 -65.36302,-10.14624 z"
       id="rect14534"
       inkscape:connector-curvature="0" />
    <text
       xml:space="preserve"
       style="font-style:normal;font-variant:normal;font-weight:normal;font-stretch:normal;font-size:50.79999924px;line-height:1.25;font-family:'154and164';-inkscape-font-specification:'154and164';letter-spacing:0px;word-spacing:0px;fill:#000000;fill-opacity:1;stroke:none;stroke-width:0.26458332"
       x="49.875145"
       y="342.31277"
       id="text939"
       transform="rotate(8.82355)"><tspan
         sodipodi:role="line"
         id="tspan937"
         x="49.875145"
         y="389.29285"
         style="font-style:normal;font-variant:normal;font-weight:normal;font-stretch:normal;font-size:50.79999924px;font-family:'154and164';-inkscape-font-specification:'154and164';stroke-width:0.26458332" /></text>
    <rect
       style="opacity:0;fill:#363437;fill-opacity:1;stroke:none;stroke-width:2.11666656;stroke-linecap:butt;stroke-linejoin:miter;stroke-miterlimit:4;stroke-dasharray:none;stroke-dashoffset:0;stroke-opacity:1;paint-order:fill markers stroke"
       id="rect1430"
       width="1083.7333"
       height="1083.7333"
       x="-1391.1646"
       y="-538.25525"
       transform="matrix(-0.98816542,-0.15339201,-0.15339201,0.98816542,0,0)"
       inkscape:export-filename="/Users/prokhor/downloads/Code.png"
       inkscape:export-xdpi="192"
       inkscape:export-ydpi="192" />
    <rect
       style="opacity:1;fill:#ffa400;fill-opacity:1;stroke:none;stroke-width:33.86666489;stroke-linecap:round;stroke-linejoin:round;stroke-miterlimit:4;stroke-dasharray:none;stroke-dashoffset:0;stroke-opacity:1;paint-order:fill markers stroke"
       id="rect1816"
       width="103.04617"
       height="57.47364"
       x="18.000257"
       y="100.22081" />
    <rect
       y="296.77588"
       x="-99.49678"
       height="57.47364"
       width="103.04617"
       id="rect1818"
       style="opacity:1;fill:#a400ff;fill-opacity:1;stroke:none;stroke-width:33.86666489;stroke-linecap:round;stroke-linejoin:round;stroke-miterlimit:4;stroke-dasharray:none;stroke-dashoffset:0;stroke-opacity:1;paint-order:fill markers stroke" />
    <rect
       style="opacity:1;fill:#00a4ff;fill-opacity:1;stroke:none;stroke-width:33.86666489;stroke-linecap:round;stroke-linejoin:round;stroke-miterlimit:4;stroke-dasharray:none;stroke-dashoffset:0;stroke-opacity:1;paint-order:fill markers stroke"
       id="rect1820"
       width="103.04617"
       height="57.47364"
       x="140.37988"
       y="293.67081" />
    <rect
       y="101.04182"
       x="-96.530647"
       height="57.47364"
       width="103.04617"
       id="rect1822"
       style="opacity:1;fill:#a40000;fill-opacity:1;stroke:none;stroke-width:33.86666489;stroke-linecap:round;stroke-linejoin:round;stroke-miterlimit:4;stroke-dasharray:none;stroke-dashoffset:0;stroke-opacity:1;paint-order:fill markers stroke" />
    <rect
       y="99.810303"
       x="134.17319"
       height="57.47364"
       width="103.04617"
       id="rect1824"
       style="opacity:1;fill:#fdff00;fill-opacity:1;stroke:none;stroke-width:33.86666489;stroke-linecap:round;stroke-linejoin:round;stroke-miterlimit:4;stroke-dasharray:none;stroke-dashoffset:0;stroke-opacity:1;paint-order:fill markers stroke" />
    <rect
       y="199.66513"
       x="142.4324"
       height="57.47364"
       width="103.04617"
       id="rect1826"
       style="opacity:1;fill:#00a400;fill-opacity:1;stroke:none;stroke-width:33.86666489;stroke-linecap:round;stroke-linejoin:round;stroke-miterlimit:4;stroke-dasharray:none;stroke-dashoffset:0;stroke-opacity:1;paint-order:fill markers stroke" />
    <rect
       y="300.23889"
       x="24.206955"
       height="57.47364"
       width="103.04617"
       id="rect1828"
       style="opacity:1;fill:#0000a4;fill-opacity:1;stroke:none;stroke-width:33.86666489;stroke-linecap:round;stroke-linejoin:round;stroke-miterlimit:4;stroke-dasharray:none;stroke-dashoffset:0;stroke-opacity:1;paint-order:fill markers stroke" />
    <rect
       style="opacity:1;fill:#ff00a4;fill-opacity:1;stroke:none;stroke-width:33.86666489;stroke-linecap:round;stroke-linejoin:round;stroke-miterlimit:4;stroke-dasharray:none;stroke-dashoffset:0;stroke-opacity:1;paint-order:fill markers stroke"
       id="rect1830"
       width="103.04617"
       height="57.47364"
       x="-111.40143"
       y="199.89668" />
  </g>
</svg>
