<?xml version="1.0" encoding="UTF-8" standalone="no"?>
<!-- Created with Inkscape (http://www.inkscape.org/) -->

<svg
   xmlns:dc="http://purl.org/dc/elements/1.1/"
   xmlns:cc="http://creativecommons.org/ns#"
   xmlns:rdf="http://www.w3.org/1999/02/22-rdf-syntax-ns#"
   xmlns:svg="http://www.w3.org/2000/svg"
   xmlns="http://www.w3.org/2000/svg"
   xmlns:sodipodi="http://sodipodi.sourceforge.net/DTD/sodipodi-0.dtd"
   xmlns:inkscape="http://www.inkscape.org/namespaces/inkscape"
   width="512"
   height="512"
   viewBox="0 0 135.46666 135.46667"
   version="1.1"
   id="svg8"
   inkscape:version="0.92.2 5c3e80d, 2017-08-06"
   sodipodi:docname="drawing-3.svg"
   inkscape:export-filename="/Users/prokhor/Downloads/iviiv.png"
   inkscape:export-xdpi="192"
   inkscape:export-ydpi="192">
  <defs
     id="defs2">
    <marker
       inkscape:isstock="true"
       style="overflow:visible"
       id="SquareL"
       refX="0"
       refY="0"
       orient="auto"
       inkscape:stockid="SquareL">
      <path
         inkscape:connector-curvature="0"
         transform="scale(0.8)"
         style="fill:#f2f2f2;fill-opacity:1;fill-rule:evenodd;stroke:#133f75;stroke-width:1.00000003pt;stroke-opacity:1"
         d="M -5,-5 V 5 H 5 V -5 Z"
         id="path1027" />
    </marker>
    <marker
       inkscape:isstock="true"
       style="overflow:visible"
       id="Arrow1Lend"
       refX="0"
       refY="0"
       orient="auto"
       inkscape:stockid="Arrow1Lend">
      <path
         inkscape:connector-curvature="0"
         transform="matrix(-0.8,0,0,-0.8,-10,0)"
         style="fill:#f2f2f2;fill-opacity:1;fill-rule:evenodd;stroke:#133f75;stroke-width:1.00000003pt;stroke-opacity:1"
         d="M 0,0 5,-5 -12.5,0 5,5 Z"
         id="path960" />
    </marker>
    <marker
       inkscape:isstock="true"
       style="overflow:visible"
       id="DiamondLend"
       refX="0"
       refY="0"
       orient="auto"
       inkscape:stockid="DiamondLend">
      <path
         inkscape:connector-curvature="0"
         transform="matrix(0.8,0,0,0.8,-5.6,0)"
         style="fill:#f2f2f2;fill-opacity:1;fill-rule:evenodd;stroke:#133f75;stroke-width:1.00000003pt;stroke-opacity:1"
         d="M 0,-7.0710768 -7.0710894,0 0,7.0710589 7.0710462,0 Z"
         id="path1054" />
    </marker>
    <marker
       inkscape:isstock="true"
       style="overflow:visible"
       id="marker1241"
       refX="0"
       refY="0"
       orient="auto"
       inkscape:stockid="DotL">
      <path
         inkscape:connector-curvature="0"
         transform="matrix(0.8,0,0,0.8,5.92,0.8)"
         style="fill:#f2f2f2;fill-opacity:1;fill-rule:evenodd;stroke:#133f75;stroke-width:1.00000003pt;stroke-opacity:1"
         d="m -2.5,-1 c 0,2.76 -2.24,5 -5,5 -2.76,0 -5,-2.24 -5,-5 0,-2.76 2.24,-5 5,-5 2.76,0 5,2.24 5,5 z"
         id="path1239" />
    </marker>
    <marker
       inkscape:isstock="true"
       style="overflow:visible"
       id="DotL"
       refX="0"
       refY="0"
       orient="auto"
       inkscape:stockid="DotL">
      <path
         inkscape:connector-curvature="0"
         transform="matrix(0.8,0,0,0.8,5.92,0.8)"
         style="fill:#f2f2f2;fill-opacity:1;fill-rule:evenodd;stroke:#133f75;stroke-width:1.00000003pt;stroke-opacity:1"
         d="m -2.5,-1 c 0,2.76 -2.24,5 -5,5 -2.76,0 -5,-2.24 -5,-5 0,-2.76 2.24,-5 5,-5 2.76,0 5,2.24 5,5 z"
         id="path1018" />
    </marker>
    <inkscape:perspective
       sodipodi:type="inkscape:persp3d"
       inkscape:vp_x="0 : 148.49997 : 1"
       inkscape:vp_y="0 : 999.99992 : 0"
       inkscape:vp_z="210.00003 : 148.49997 : 1"
       inkscape:persp3d-origin="105 : 98.999997 : 1"
       id="perspective815" />
    <mask
       maskUnits="userSpaceOnUse"
       id="mask887">
      <ellipse
         style="opacity:1;fill:#ff0000;fill-opacity:1;stroke-width:0.25579071"
         id="ellipse889"
         cx="103.16604"
         cy="141.44913"
         rx="76.439079"
         ry="79.646324" />
    </mask>
    <filter
       inkscape:label="Dragee"
       inkscape:menu="Ridges"
       inkscape:menu-tooltip="Gel Ridge with a pearlescent look"
       height="1.5"
       width="1.5"
       y="-0.25"
       x="-0.25"
       style="color-interpolation-filters:sRGB"
       id="filter4635">
      <feGaussianBlur
         stdDeviation="0.01"
         result="result1"
         id="feGaussianBlur4611" />
      <feBlend
         in="result1"
         mode="screen"
         result="result5"
         in2="result1"
         id="feBlend4613" />
      <feGaussianBlur
         stdDeviation="6"
         result="result6"
         id="feGaussianBlur4615" />
      <feComposite
         operator="xor"
         result="fbSourceGraphic"
         in="result6"
         in2="result6"
         id="feComposite4617" />
      <feColorMatrix
         result="fbSourceGraphicAlpha"
         in="fbSourceGraphic"
         values="0 0 0 -1 0 0 0 0 -1 0 0 0 0 -1 0 0 0 0 2 0 "
         id="feColorMatrix4619" />
      <feGaussianBlur
         result="result0"
         in="fbSourceGraphicAlpha"
         stdDeviation="2"
         id="feGaussianBlur4621" />
      <feSpecularLighting
         specularExponent="35"
         specularConstant="1"
         surfaceScale="3"
         lighting-color="#ffffff"
         result="result1"
         in="result0"
         id="feSpecularLighting4625">
        <feDistantLight
           azimuth="235"
           elevation="55"
           id="feDistantLight4623" />
      </feSpecularLighting>
      <feComposite
         operator="in"
         result="result2"
         in="result1"
         in2="fbSourceGraphicAlpha"
         id="feComposite4627" />
      <feComposite
         k3="1"
         k2="1"
         operator="arithmetic"
         result="result4"
         in="fbSourceGraphic"
         in2="result2"
         id="feComposite4629"
         k1="0"
         k4="0" />
      <feComposite
         operator="out"
         in2="result4"
         result="result91"
         id="feComposite4631" />
      <feBlend
         mode="multiply"
         in2="result91"
         id="feBlend4633" />
    </filter>
    <marker
       inkscape:stockid="SquareL"
       orient="auto"
       refY="0"
       refX="0"
       id="SquareL-3"
       style="overflow:visible"
       inkscape:isstock="true">
      <path
         id="path1027-8"
         d="M -5,-5 V 5 H 5 V -5 Z"
         style="fill:#f2f2f2;fill-opacity:1;fill-rule:evenodd;stroke:#133f75;stroke-width:1.00000003pt;stroke-opacity:1"
         transform="scale(0.8)"
         inkscape:connector-curvature="0" />
    </marker>
    <marker
       inkscape:stockid="Arrow1Lend"
       orient="auto"
       refY="0"
       refX="0"
       id="Arrow1Lend-0"
       style="overflow:visible"
       inkscape:isstock="true">
      <path
         id="path960-2"
         d="M 0,0 5,-5 -12.5,0 5,5 Z"
         style="fill:#f2f2f2;fill-opacity:1;fill-rule:evenodd;stroke:#133f75;stroke-width:1.00000003pt;stroke-opacity:1"
         transform="matrix(-0.8,0,0,-0.8,-10,0)"
         inkscape:connector-curvature="0" />
    </marker>
    <marker
       inkscape:stockid="DiamondLend"
       orient="auto"
       refY="0"
       refX="0"
       id="DiamondLend-4"
       style="overflow:visible"
       inkscape:isstock="true">
      <path
         id="path1054-8"
         d="M 0,-7.0710768 -7.0710894,0 0,7.0710589 7.0710462,0 Z"
         style="fill:#f2f2f2;fill-opacity:1;fill-rule:evenodd;stroke:#133f75;stroke-width:1.00000003pt;stroke-opacity:1"
         transform="matrix(0.8,0,0,0.8,-5.6,0)"
         inkscape:connector-curvature="0" />
    </marker>
    <marker
       inkscape:stockid="DotL"
       orient="auto"
       refY="0"
       refX="0"
       id="marker1241-3"
       style="overflow:visible"
       inkscape:isstock="true">
      <path
         id="path1239-9"
         d="m -2.5,-1 c 0,2.76 -2.24,5 -5,5 -2.76,0 -5,-2.24 -5,-5 0,-2.76 2.24,-5 5,-5 2.76,0 5,2.24 5,5 z"
         style="fill:#f2f2f2;fill-opacity:1;fill-rule:evenodd;stroke:#133f75;stroke-width:1.00000003pt;stroke-opacity:1"
         transform="matrix(0.8,0,0,0.8,5.92,0.8)"
         inkscape:connector-curvature="0" />
    </marker>
    <marker
       inkscape:stockid="DotL"
       orient="auto"
       refY="0"
       refX="0"
       id="DotL-0"
       style="overflow:visible"
       inkscape:isstock="true">
      <path
         id="path1018-5"
         d="m -2.5,-1 c 0,2.76 -2.24,5 -5,5 -2.76,0 -5,-2.24 -5,-5 0,-2.76 2.24,-5 5,-5 2.76,0 5,2.24 5,5 z"
         style="fill:#f2f2f2;fill-opacity:1;fill-rule:evenodd;stroke:#133f75;stroke-width:1.00000003pt;stroke-opacity:1"
         transform="matrix(0.8,0,0,0.8,5.92,0.8)"
         inkscape:connector-curvature="0" />
    </marker>
    <inkscape:perspective
       id="perspective815-2"
       inkscape:persp3d-origin="105 : 98.999992 : 1"
       inkscape:vp_z="210.00001 : 148.49997 : 1"
       inkscape:vp_y="0 : 999.99987 : 0"
       inkscape:vp_x="0 : 148.49997 : 1"
       sodipodi:type="inkscape:persp3d" />
    <mask
       id="mask887-2"
       maskUnits="userSpaceOnUse">
      <ellipse
         ry="79.646324"
         rx="76.439079"
         cy="141.44913"
         cx="103.16604"
         id="ellipse889-7"
         style="opacity:1;fill:#ff0000;fill-opacity:1;stroke-width:0.25579071" />
    </mask>
    <filter
       id="filter4635-3"
       style="color-interpolation-filters:sRGB"
       x="-0.25"
       y="-0.25"
       width="1.5"
       height="1.5"
       inkscape:menu-tooltip="Gel Ridge with a pearlescent look"
       inkscape:menu="Ridges"
       inkscape:label="Dragee">
      <feGaussianBlur
         id="feGaussianBlur4611-7"
         result="result1"
         stdDeviation="0.01" />
      <feBlend
         id="feBlend4613-9"
         in2="result1"
         result="result5"
         mode="screen"
         in="result1" />
      <feGaussianBlur
         id="feGaussianBlur4615-0"
         result="result6"
         stdDeviation="6" />
      <feComposite
         id="feComposite4617-2"
         in2="result6"
         in="result6"
         result="fbSourceGraphic"
         operator="xor" />
      <feColorMatrix
         id="feColorMatrix4619-3"
         values="0 0 0 -1 0 0 0 0 -1 0 0 0 0 -1 0 0 0 0 2 0 "
         in="fbSourceGraphic"
         result="fbSourceGraphicAlpha" />
      <feGaussianBlur
         id="feGaussianBlur4621-9"
         stdDeviation="2"
         in="fbSourceGraphicAlpha"
         result="result0" />
      <feSpecularLighting
         id="feSpecularLighting4625-9"
         in="result0"
         result="result1"
         lighting-color="#ffffff"
         surfaceScale="3"
         specularConstant="1"
         specularExponent="35">
        <feDistantLight
           id="feDistantLight4623-7"
           elevation="55"
           azimuth="235" />
      </feSpecularLighting>
      <feComposite
         id="feComposite4627-0"
         in2="fbSourceGraphicAlpha"
         in="result1"
         result="result2"
         operator="in" />
      <feComposite
         k4="0"
         k1="0"
         id="feComposite4629-3"
         in2="result2"
         in="fbSourceGraphic"
         result="result4"
         operator="arithmetic"
         k2="1"
         k3="1" />
      <feComposite
         id="feComposite4631-9"
         result="result91"
         in2="result4"
         operator="out" />
      <feBlend
         id="feBlend4633-8"
         in2="result91"
         mode="multiply" />
    </filter>
  </defs>
  <sodipodi:namedview
     id="base"
     pagecolor="#ffffff"
     bordercolor="#666666"
     borderopacity="1.0"
     inkscape:pageopacity="0"
     inkscape:pageshadow="2"
     inkscape:zoom="0.64453125"
     inkscape:cx="256"
     inkscape:cy="409.59216"
     inkscape:document-units="px"
     inkscape:current-layer="layer1"
     showgrid="false"
     units="px"
     inkscape:pagecheckerboard="true"
     inkscape:window-width="1440"
     inkscape:window-height="855"
     inkscape:window-x="0"
     inkscape:window-y="1"
     inkscape:window-maximized="1"
     inkscape:showpageshadow="true"
     showborder="true"
     showguides="false" />
  <metadata
     id="metadata5">
    <rdf:RDF>
      <cc:Work
         rdf:about="">
        <dc:format>image/svg+xml</dc:format>
        <dc:type
           rdf:resource="http://purl.org/dc/dcmitype/StillImage" />
        <dc:title />
      </cc:Work>
    </rdf:RDF>
  </metadata>
  <g
     inkscape:label="Layer 1"
     inkscape:groupmode="layer"
     id="layer1"
     transform="translate(0,-161.53331)">
    <g
       id="g1017"
       style="fill:#696969;fill-opacity:1">
      <path
         inkscape:connector-curvature="0"
         id="circle819"
         d="m 67.733333,161.53337 a 67.73333,67.73333 0 0 0 -0.49609,0.0248 v 19.82566 a 47.894687,47.894687 0 0 1 0.49609,-0.0119 47.894687,47.894687 0 0 1 0.4961,0.0253 v -19.85202 a 67.73333,67.73333 0 0 0 -0.4961,-0.0119 z m 2.57297,0.061 v 19.9099 a 47.894687,47.894687 0 0 1 0.99167,0.0512 v -19.91041 a 67.73333,67.73333 0 0 0 -0.99167,-0.0506 z m -5.14594,0.0677 a 67.73333,67.73333 0 0 0 -0.99167,0.0496 v 19.84478 a 47.894687,47.894687 0 0 1 0.99167,-0.0971 z m -3.06855,0.15347 a 67.73333,67.73333 0 0 0 -0.99166,0.0501 v 19.99155 a 47.894687,47.894687 0 0 1 0.99166,-0.0972 z m 11.28304,0.0315 v 19.90214 a 47.894687,47.894687 0 0 1 0.99167,0.15141 v -19.95692 a 67.73333,67.73333 0 0 0 -0.99167,-0.0966 z m 3.06854,0.2992 v 20.07165 a 47.894687,47.894687 0 0 1 0.99219,0.17105 v -20.14606 a 67.73333,67.73333 0 0 0 -0.99219,-0.0966 z m -17.42012,0.0202 a 67.73333,67.73333 0 0 0 -0.99219,0.14986 v 20.11867 a 47.894687,47.894687 0 0 1 0.99219,-0.19896 z m -3.06855,0.46354 a 67.73333,67.73333 0 0 0 -0.992181,0.14986 v 20.3848 a 47.894687,47.894687 0 0 1 0.992181,-0.30489 z m 23.557219,0.004 v 20.28817 a 47.894687,47.894687 0 0 1 0.99219,0.25476 v -20.34449 a 67.73333,67.73333 0 0 0 -0.99219,-0.19844 z m -26.62628,0.60461 a 67.73333,67.73333 0 0 0 -0.99167,0.25322 v 20.61424 a 47.894687,47.894687 0 0 1 0.99167,-0.30437 z m 29.69535,0.009 v 20.53983 a 47.894687,47.894687 0 0 1 0.991661,0.36329 v -20.7052 a 67.73333,67.73333 0 0 0 -0.991661,-0.19792 z m 3.06854,0.75602 v 20.90881 a 47.894687,47.894687 0 0 1 0.99167,0.39429 v -20.99924 a 67.73333,67.73333 0 0 0 -0.99167,-0.30386 z m -35.83244,0.0186 a 67.73333,67.73333 0 0 0 -0.99167,0.25321 v 21.07107 a 47.894687,47.894687 0 0 1 0.99167,-0.41651 z m -3.06854,0.88987 a 67.73333,67.73333 0 0 0 -0.99219,0.36225 v 21.52065 a 47.894687,47.894687 0 0 1 0.99219,-0.53899 z m 41.96953,0.0315 v 21.37027 a 47.894687,47.894687 0 0 1 0.992181,0.48111 v -21.54752 a 67.73333,67.73333 0 0 0 -0.992181,-0.30386 z m 3.06854,1.05368 v 21.9475 a 47.894687,47.894687 0 0 1 0.99219,0.6103 v -22.1418 a 67.73333,67.73333 0 0 0 -0.99219,-0.416 z m -48.10662,0.0351 a 67.73333,67.73333 0 0 0 -0.99219,0.36225 v 22.0891 a 47.894687,47.894687 0 0 1 0.99219,-0.5607 z m -3.06906,1.2082 a 67.73333,67.73333 0 0 0 -0.99167,0.47904 v 22.85338 a 47.894687,47.894687 0 0 1 0.99167,-0.67541 z m 54.24475,0.0439 v 22.56141 a 47.894687,47.894687 0 0 1 0.99167,0.75603 v -22.90144 a 67.73333,67.73333 0 0 0 -0.99167,-0.416 z m 3.06854,1.39785 v 23.50347 a 47.894687,47.894687 0 0 1 0.99167,0.81494 v -23.77994 a 67.73333,67.73333 0 0 0 -0.99167,-0.53847 z m -60.38184,0.0403 a 67.73333,67.73333 0 0 0 -0.99167,0.47904 v 23.828 a 47.894687,47.894687 0 0 1 0.99167,-0.83147 z m -3.06855,1.5844 a 67.73333,67.73333 0 0 0 -0.99218,0.60823 v 25.01087 a 47.894687,47.894687 0 0 1 0.99218,-1.01699 z m 66.518938,0.0403 v 24.59385 a 47.894687,47.894687 0 0 1 0.99219,0.92708 v -24.98247 a 67.73333,67.73333 0 0 0 -0.99219,-0.53847 z m 3.06855,1.81488 v 26.05836 a 47.894687,47.894687 0 0 1 0.99218,1.13275 v -26.51673 a 67.73333,67.73333 0 0 0 -0.99218,-0.67438 z m -72.656028,0.0263 a 67.73333,67.73333 0 0 0 -0.99219,0.60824 v 26.60922 a 47.894687,47.894687 0 0 1 0.99219,-1.24436 z m -3.06906,2.05104 a 67.73333,67.73333 0 0 0 -0.99168,0.75344 v 28.71763 a 47.894687,47.894687 0 0 1 0.99168,-1.53686 z m 78.794148,0.01 v 27.97245 a 47.894687,47.894687 0 0 1 0.99167,1.42007 v -28.71828 a 67.73333,67.73333 0 0 0 -0.99167,-0.67438 z m -81.862698,2.32286 a 67.73333,67.73333 0 0 0 -0.99167,0.75344 v 26.85107 l 0.99167,0.57258 z m 84.931248,0.0196 v 28.15746 l 0.99218,-0.57309 v -26.75341 a 67.73333,67.73333 0 0 0 -0.99218,-0.83096 z m 3.06854,2.56987 v 23.81612 l 0.99219,-0.57309 v -22.31957 a 67.73333,67.73333 0 0 0 -0.99219,-0.92346 z m -91.068338,0.0687 a 67.73333,67.73333 0 0 0 -0.99219,0.92449 v 22.24981 l 0.99219,0.57309 z m -3.06906,2.86236 a 67.73333,67.73333 0 0 0 -0.99167,1.12861 v 17.41186 l 0.99167,0.57258 z m 97.206468,0.11886 v 18.99419 l 0.99167,-0.57258 v -17.40617 a 67.73333,67.73333 0 0 0 -0.99167,-1.01544 z m 3.06854,3.3507 v 13.8715 l 0.99167,-0.57258 v -12.05662 a 67.73333,67.73333 0 0 0 -0.99167,-1.2423 z m -103.343558,0.0232 a 67.73333,67.73333 0 0 0 -0.99167,1.12913 v 12.14706 l 0.99167,0.57206 z m 106.412108,3.82096 v 8.25582 l 0.99219,-0.57257 v -6.21926 a 67.73333,67.73333 0 0 0 -0.99219,-1.46399 z m -109.480658,0.11007 a 67.73333,67.73333 0 0 0 -0.99218,1.38699 v 6.18619 l 0.99218,0.57257 z m -3.0685395,4.48809 a 67.73333,67.73333 0 0 0 -0.85008,1.39527 l 0.85008,0.49092 z M 125.5422,194.0844 v 1.80661 l 0.85008,-0.49092 a 67.73333,67.73333 0 0 0 -0.85008,-1.31569 z"
         mask="none"
         style="opacity:1;fill:#696969;fill-opacity:1;stroke:none;stroke-width:25.13215446;stroke-linecap:round;stroke-linejoin:miter;stroke-miterlimit:25.20000076;stroke-dasharray:none;stroke-opacity:1;paint-order:fill markers stroke" />
      <text
         xml:space="preserve"
         style="font-style:normal;font-variant:normal;font-weight:normal;font-stretch:normal;font-size:22.57777786px;line-height:1.25;font-family:'SVGFont 1';-inkscape-font-specification:'SVGFont 1, ';letter-spacing:0px;word-spacing:0px;fill:#696969;fill-opacity:1;stroke:none;stroke-width:0.26458332"
         x="63.538586"
         y="179.69568"
         id="text999"><tspan
           sodipodi:role="line"
           id="tspan997"
           x="63.538586"
           y="179.69568"
           style="font-style:normal;font-variant:normal;font-weight:bold;font-stretch:normal;font-size:22.57777786px;font-family:'SVGFont 1';-inkscape-font-specification:'SVGFont 1 Bold';fill:#696969;fill-opacity:1;stroke-width:0.26458332">I</tspan></text>
    </g>
    <g
       id="g6502"
       transform="translate(3.2159057)" />
    <g
       id="g6765">
      <g
         id="g6630"
         transform="rotate(90,66.125378,230.87459)" />
    </g>
    <g
       id="g1009"
       style="fill:#696969">
      <path
         inkscape:connector-curvature="0"
         style="opacity:1;fill:#696969;fill-opacity:1;stroke:none;stroke-width:25.13215446;stroke-linecap:round;stroke-linejoin:miter;stroke-miterlimit:25.20000076;stroke-dasharray:none;stroke-opacity:1;paint-order:fill markers stroke"
         mask="none"
         d="M 9.0315441,263.13325 A 67.73333,67.73333 0 0 1 8.80497,262.69121 l 17.169526,-9.91282 a 47.894687,47.894687 0 0 0 0.237741,0.43558 47.894687,47.894687 0 0 0 0.269956,0.41697 l -17.192344,9.92601 a 67.73333,67.73333 0 0 1 -0.2583477,-0.42367 z m 1.3393089,2.19775 17.242494,-9.95494 a 47.894687,47.894687 0 0 0 0.540174,0.83321 l -17.24293,9.95521 a 67.73333,67.73333 0 0 1 -0.53966,-0.83352 z m -2.5143385,-4.49036 a 67.73333,67.73333 0 0 1 -0.4528796,-0.88361 l 17.1860941,-9.92239 a 47.894687,47.894687 0 0 0 0.411742,0.90736 z M 6.4551576,258.10646 A 67.73333,67.73333 0 0 1 6.002717,257.22261 l 17.313181,-9.99577 a 47.894687,47.894687 0 0 0 0.411738,0.90735 z m 5.6687974,9.75564 17.235759,-9.95106 a 47.894687,47.894687 0 0 0 0.626969,0.7831 l -17.2832,9.97846 a 67.73333,67.73333 0 0 1 -0.579494,-0.81052 z m 1.793389,2.50785 17.38255,-10.03582 a 47.894687,47.894687 0 0 0 0.644242,0.77372 l -17.447,10.07303 a 67.73333,67.73333 0 0 1 -0.579747,-0.81096 z M 5.2247709,255.27357 A 67.73333,67.73333 0 0 1 4.858464,254.33939 l 17.423277,-10.05934 a 47.894687,47.894687 0 0 0 0.323802,0.95874 z M 4.0919338,252.38436 A 67.73333,67.73333 0 0 1 3.7256269,251.45017 L 21.379387,241.25776 a 47.894687,47.894687 0 0 0 0.232045,1.01172 z M 15.874011,272.78351 33.44409,262.63942 a 47.894687,47.894687 0 0 0 0.716734,0.73188 L 16.54197,273.54355 a 67.73333,67.73333 0 0 1 -0.667959,-0.76004 z M 3.0844944,249.42216 A 67.73333,67.73333 0 0 1 2.8079548,248.43674 L 20.660416,238.12963 a 47.894687,47.894687 0 0 0 0.232239,1.01099 z m 14.8554706,25.71243 17.788011,-10.26992 a 47.894687,47.894687 0 0 0 0.81044,0.67718 l -17.93122,10.35258 a 67.73333,67.73333 0 0 1 -0.667231,-0.75984 z m 2.189011,2.27942 18.107537,-10.45439 a 47.894687,47.894687 0 0 0 0.837303,0.66167 l -18.18586,10.49961 a 67.73333,67.73333 0 0 1 -0.75898,-0.70689 z M 2.2288664,246.37291 A 67.73333,67.73333 0 0 1 1.9523157,245.38749 L 20.200391,234.85196 a 47.894687,47.894687 0 0 0 0.135133,1.06706 z M 1.4652302,243.27053 A 67.73333,67.73333 0 0 1 1.2828666,242.23015 L 19.920294,231.46982 a 47.894687,47.894687 0 0 0 0.0293,1.12876 z m 21.0120508,36.33094 18.507204,-10.68514 a 47.894687,47.894687 0 0 0 0.912745,0.6187 l -18.66071,10.77376 a 67.73333,67.73333 0 0 1 -0.759239,-0.70732 z m 2.446788,2.1306 19.007096,-10.97376 a 47.894687,47.894687 0 0 0 1.02463,0.55411 l -19.175376,11.07091 a 67.73333,67.73333 0 0 1 -0.85635,-0.65126 z M 0.90115267,240.05296 A 67.73333,67.73333 0 0 1 0.71878454,239.01257 L 19.848506,227.96802 a 47.894687,47.894687 0 0 0 0.0105,1.1396 z m -0.488197,-3.26198 a 67.73333,67.73333 0 0 1 -0.0810017,-1.09834 L 20.123562,224.26595 a 47.894687,47.894687 0 0 0 -0.0891,1.19651 z m 27.16039233,46.95538 19.53876,-11.28072 a 47.894687,47.894687 0 0 0 1.150569,0.48081 l -19.833229,11.45072 a 67.73333,67.73333 0 0 1 -0.8561,-0.65081 z m 2.744843,1.95851 20.354609,-11.75175 a 47.894687,47.894687 0 0 0 1.20159,0.45136 l -20.594032,11.88997 a 67.73333,67.73333 0 0 1 -0.962193,-0.58957 z M 0.16217297,233.39251 A 67.73333,67.73333 0 0 1 0.08117125,232.29419 L 20.716835,220.38017 a 47.894687,47.894687 0 0 0 -0.224253,1.27456 z M 2.1856063e-6,229.94288 A 67.73333,67.73333 0 0 1 0.03060618,228.77951 L 21.690705,216.27408 a 47.894687,47.894687 0 0 0 -0.384649,1.36775 z M 33.294372,287.52982 54.593278,275.23289 a 47.894687,47.894687 0 0 0 1.298968,0.39572 l -21.635454,12.49123 a 67.73333,67.73333 0 0 1 -0.96242,-0.59002 z m 3.106005,1.75 22.567202,-13.02918 a 47.894687,47.894687 0 0 0 1.477091,0.29288 l -22.964164,13.25836 a 67.73333,67.73333 0 0 1 -1.080129,-0.52206 z M 0.09513901,226.3447 A 67.73333,67.73333 0 0 1 0.1257387,225.18132 L 23.170053,211.87673 a 47.894687,47.894687 0 0 0 -0.581555,1.48144 z m 0.24171945,-3.68341 a 67.73333,67.73333 0 0 1 0.15666548,-1.23552 L 25.363713,207.06696 a 47.894687,47.894687 0 0 0 -0.835127,1.62724 z M 39.742601,290.89404 63.967459,276.90781 a 47.894687,47.894687 0 0 0 1.725645,0.14878 l -24.870639,14.35907 a 67.73333,67.73333 0 0 1 -1.079864,-0.52162 z M 0.82289337,218.83743 a 67.73333,67.73333 0 0 1 0.1566853,-1.23553 l 23.25370733,-13.42554 0.991702,0.57252 z m 42.48259963,73.54282 24.385076,-14.07873 -2.16e-4,1.14581 -23.169134,13.3767 a 67.73333,67.73333 0 0 1 -1.215726,-0.44378 z m 3.759853,1.3725 20.625361,-11.90805 -2.19e-4,1.1458 -19.329312,11.15979 a 67.73333,67.73333 0 0 1 -1.29583,-0.39754 z M 1.5906735,214.85091 a 67.73333,67.73333 0 0 1 0.304536,-1.32151 l 19.2689025,-11.1249 0.992413,0.57271 z m 0.9443533,-4.08908 a 67.73333,67.73333 0 0 1 0.4815796,-1.42312 l 15.0790966,-8.70591 0.991698,0.57251 z m 48.7061692,84.12384 16.449439,-9.49707 -2.9e-5,1.14509 -15.074179,8.70307 a 67.73333,67.73333 0 0 1 -1.375231,-0.35109 z m 4.43605,0.98211 12.013087,-6.93577 -3.9e-5,1.14512 -10.441335,6.02829 a 67.73333,67.73333 0 0 1 -1.571713,-0.23764 z M 4.0256425,206.35798 a 67.73333,67.73333 0 0 1 0.4820234,-1.42339 l 10.5196681,-6.07352 0.991252,0.57277 z m 56.5151075,90.24509 7.149746,-4.12789 2.41e-4,1.14553 -5.386037,3.10963 a 67.73333,67.73333 0 0 1 -1.76395,-0.12727 z M 5.895748,201.73501 a 67.73333,67.73333 0 0 1 0.7050736,-1.55275 l 5.3574044,-3.09309 0.991951,0.57297 z m 2.3525138,-4.90148 a 67.73333,67.73333 0 0 1 0.7833087,-1.43381 l 0.8501892,0.49073 z m 57.8778172,100.08812 1.564567,-0.90331 -1.05e-4,0.98163 a 67.73333,67.73333 0 0 1 -1.564458,-0.0783 z"
         id="path6699" />
      <text
         transform="rotate(60)"
         id="text960"
         y="121.73874"
         x="220.69426"
         style="font-style:normal;font-variant:normal;font-weight:normal;font-stretch:normal;font-size:22.57777786px;line-height:1.25;font-family:'SVGFont 1';-inkscape-font-specification:'SVGFont 1, ';letter-spacing:0px;word-spacing:0px;fill:#696969;fill-opacity:1;stroke:none;stroke-width:0.26458332"
         xml:space="preserve"><tspan
           style="font-style:normal;font-variant:normal;font-weight:bold;font-stretch:normal;font-size:22.57777786px;font-family:'SVGFont 1';-inkscape-font-specification:'SVGFont 1 Bold';fill:#696969;fill-opacity:1;stroke-width:0.26458332"
           y="121.73874"
           x="220.69426"
           id="tspan958"
           sodipodi:role="line">VI</tspan></text>
    </g>
    <path
       style="display:none;fill:#ff0000;fill-opacity:1;stroke:none;stroke-width:5.08583641;stroke-miterlimit:4;stroke-dasharray:none;stroke-opacity:1"
       d="m 112.78297,399.08962 65.36302,10.14624 -10.14625,65.36303 -65.36302,-10.14624 z"
       id="rect14534"
       inkscape:connector-curvature="0" />
    <text
       xml:space="preserve"
       style="font-style:normal;font-variant:normal;font-weight:normal;font-stretch:normal;font-size:50.79999924px;line-height:1.25;font-family:'154and164';-inkscape-font-specification:'154and164';letter-spacing:0px;word-spacing:0px;fill:#000000;fill-opacity:1;stroke:none;stroke-width:0.26458332"
       x="49.875145"
       y="342.31277"
       id="text939"
       transform="rotate(8.82355)"><tspan
         sodipodi:role="line"
         id="tspan937"
         x="49.875145"
         y="389.29285"
         style="font-style:normal;font-variant:normal;font-weight:normal;font-stretch:normal;font-size:50.79999924px;font-family:'154and164';-inkscape-font-specification:'154and164';stroke-width:0.26458332" /></text>
    <rect
       style="opacity:0;fill:#363437;fill-opacity:1;stroke:none;stroke-width:2.11666656;stroke-linecap:butt;stroke-linejoin:miter;stroke-miterlimit:4;stroke-dasharray:none;stroke-dashoffset:0;stroke-opacity:1;paint-order:fill markers stroke"
       id="rect1430"
       width="1083.7333"
       height="1083.7333"
       x="-1391.1646"
       y="-538.25525"
       transform="matrix(-0.98816542,-0.15339201,-0.15339201,0.98816542,0,0)"
       inkscape:export-filename="/Users/prokhor/downloads/Code.png"
       inkscape:export-xdpi="192"
       inkscape:export-ydpi="192" />
    <rect
       style="opacity:1;fill:#ffa400;fill-opacity:1;stroke:none;stroke-width:33.86666489;stroke-linecap:round;stroke-linejoin:round;stroke-miterlimit:4;stroke-dasharray:none;stroke-dashoffset:0;stroke-opacity:1;paint-order:fill markers stroke"
       id="rect1816"
       width="103.04617"
       height="57.47364"
       x="18.000257"
       y="100.22081" />
    <rect
       y="296.77588"
       x="-99.49678"
       height="57.47364"
       width="103.04617"
       id="rect1818"
       style="opacity:1;fill:#a400ff;fill-opacity:1;stroke:none;stroke-width:33.86666489;stroke-linecap:round;stroke-linejoin:round;stroke-miterlimit:4;stroke-dasharray:none;stroke-dashoffset:0;stroke-opacity:1;paint-order:fill markers stroke" />
    <rect
       style="opacity:1;fill:#00a4ff;fill-opacity:1;stroke:none;stroke-width:33.86666489;stroke-linecap:round;stroke-linejoin:round;stroke-miterlimit:4;stroke-dasharray:none;stroke-dashoffset:0;stroke-opacity:1;paint-order:fill markers stroke"
       id="rect1820"
       width="103.04617"
       height="57.47364"
       x="140.37988"
       y="293.67081" />
    <rect
       y="75.497971"
       x="-98.852814"
       height="57.47364"
       width="103.04617"
       id="rect1822"
       style="opacity:1;fill:#a40000;fill-opacity:1;stroke:none;stroke-width:33.86666489;stroke-linecap:round;stroke-linejoin:round;stroke-miterlimit:4;stroke-dasharray:none;stroke-dashoffset:0;stroke-opacity:1;paint-order:fill markers stroke" />
    <rect
       y="99.810303"
       x="134.17319"
       height="57.47364"
       width="103.04617"
       id="rect1824"
       style="opacity:1;fill:#fdff00;fill-opacity:1;stroke:none;stroke-width:33.86666489;stroke-linecap:round;stroke-linejoin:round;stroke-miterlimit:4;stroke-dasharray:none;stroke-dashoffset:0;stroke-opacity:1;paint-order:fill markers stroke" />
    <rect
       y="199.66513"
       x="142.4324"
       height="57.47364"
       width="103.04617"
       id="rect1826"
       style="opacity:1;fill:#00a400;fill-opacity:1;stroke:none;stroke-width:33.86666489;stroke-linecap:round;stroke-linejoin:round;stroke-miterlimit:4;stroke-dasharray:none;stroke-dashoffset:0;stroke-opacity:1;paint-order:fill markers stroke" />
    <rect
       y="300.23889"
       x="24.206955"
       height="57.47364"
       width="103.04617"
       id="rect1828"
       style="opacity:1;fill:#0000a4;fill-opacity:1;stroke:none;stroke-width:33.86666489;stroke-linecap:round;stroke-linejoin:round;stroke-miterlimit:4;stroke-dasharray:none;stroke-dashoffset:0;stroke-opacity:1;paint-order:fill markers stroke" />
    <rect
       style="opacity:1;fill:#ff00a4;fill-opacity:1;stroke:none;stroke-width:33.86666489;stroke-linecap:round;stroke-linejoin:round;stroke-miterlimit:4;stroke-dasharray:none;stroke-dashoffset:0;stroke-opacity:1;paint-order:fill markers stroke"
       id="rect1830"
       width="103.04617"
       height="57.47364"
       x="-111.40143"
       y="199.89668" />
    <text
       xml:space="preserve"
       style="font-style:normal;font-variant:normal;font-weight:normal;font-stretch:normal;font-size:22.57777786px;line-height:1.25;font-family:'Arial Black';-inkscape-font-specification:'Arial Black, ';letter-spacing:0px;word-spacing:0px;fill:#000000;fill-opacity:1;stroke:none;stroke-width:0.26458332;"
       x="17.241211"
       y="243.63432"
       id="text956"><tspan
         sodipodi:role="line"
         id="tspan954"
         x="17.241211"
         y="263.61035"
         style="stroke-width:0.26458332;-inkscape-font-specification:'Arial Black, ';font-family:'Arial Black';font-weight:normal;font-style:normal;font-stretch:normal;font-variant:normal;" /></text>
    <g
       id="g992"
       transform="matrix(-1,0,0,1,135.46667,4.9999998e-6)"
       style="fill:#696969;fill-opacity:1">
      <path
         id="path986"
         d="M 9.0315441,263.13325 A 67.73333,67.73333 0 0 1 8.80497,262.69121 l 17.169526,-9.91282 a 47.894687,47.894687 0 0 0 0.237741,0.43558 47.894687,47.894687 0 0 0 0.269956,0.41697 l -17.192344,9.92601 a 67.73333,67.73333 0 0 1 -0.2583477,-0.42367 z m 1.3393089,2.19775 17.242494,-9.95494 a 47.894687,47.894687 0 0 0 0.540174,0.83321 l -17.24293,9.95521 a 67.73333,67.73333 0 0 1 -0.53966,-0.83352 z m -2.5143385,-4.49036 a 67.73333,67.73333 0 0 1 -0.4528796,-0.88361 l 17.1860941,-9.92239 a 47.894687,47.894687 0 0 0 0.411742,0.90736 z M 6.4551576,258.10646 A 67.73333,67.73333 0 0 1 6.002717,257.22261 l 17.313181,-9.99577 a 47.894687,47.894687 0 0 0 0.411738,0.90735 z m 5.6687974,9.75564 17.235759,-9.95106 a 47.894687,47.894687 0 0 0 0.626969,0.7831 l -17.2832,9.97846 a 67.73333,67.73333 0 0 1 -0.579494,-0.81052 z m 1.793389,2.50785 17.38255,-10.03582 a 47.894687,47.894687 0 0 0 0.644242,0.77372 l -17.447,10.07303 a 67.73333,67.73333 0 0 1 -0.579747,-0.81096 z M 5.2247709,255.27357 A 67.73333,67.73333 0 0 1 4.858464,254.33939 l 17.423277,-10.05934 a 47.894687,47.894687 0 0 0 0.323802,0.95874 z M 4.0919338,252.38436 A 67.73333,67.73333 0 0 1 3.7256269,251.45017 L 21.379387,241.25776 a 47.894687,47.894687 0 0 0 0.232045,1.01172 z M 15.874011,272.78351 33.44409,262.63942 a 47.894687,47.894687 0 0 0 0.716734,0.73188 L 16.54197,273.54355 a 67.73333,67.73333 0 0 1 -0.667959,-0.76004 z M 3.0844944,249.42216 A 67.73333,67.73333 0 0 1 2.8079548,248.43674 L 20.660416,238.12963 a 47.894687,47.894687 0 0 0 0.232239,1.01099 z m 14.8554706,25.71243 17.788011,-10.26992 a 47.894687,47.894687 0 0 0 0.81044,0.67718 l -17.93122,10.35258 a 67.73333,67.73333 0 0 1 -0.667231,-0.75984 z m 2.189011,2.27942 18.107537,-10.45439 a 47.894687,47.894687 0 0 0 0.837303,0.66167 l -18.18586,10.49961 a 67.73333,67.73333 0 0 1 -0.75898,-0.70689 z M 2.2288664,246.37291 A 67.73333,67.73333 0 0 1 1.9523157,245.38749 L 20.200391,234.85196 a 47.894687,47.894687 0 0 0 0.135133,1.06706 z M 1.4652302,243.27053 A 67.73333,67.73333 0 0 1 1.2828666,242.23015 L 19.920294,231.46982 a 47.894687,47.894687 0 0 0 0.0293,1.12876 z m 21.0120508,36.33094 18.507204,-10.68514 a 47.894687,47.894687 0 0 0 0.912745,0.6187 l -18.66071,10.77376 a 67.73333,67.73333 0 0 1 -0.759239,-0.70732 z m 2.446788,2.1306 19.007096,-10.97376 a 47.894687,47.894687 0 0 0 1.02463,0.55411 l -19.175376,11.07091 a 67.73333,67.73333 0 0 1 -0.85635,-0.65126 z M 0.90115267,240.05296 A 67.73333,67.73333 0 0 1 0.71878454,239.01257 L 19.848506,227.96802 a 47.894687,47.894687 0 0 0 0.0105,1.1396 z m -0.488197,-3.26198 a 67.73333,67.73333 0 0 1 -0.0810017,-1.09834 L 20.123562,224.26595 a 47.894687,47.894687 0 0 0 -0.0891,1.19651 z m 27.16039233,46.95538 19.53876,-11.28072 a 47.894687,47.894687 0 0 0 1.150569,0.48081 l -19.833229,11.45072 a 67.73333,67.73333 0 0 1 -0.8561,-0.65081 z m 2.744843,1.95851 20.354609,-11.75175 a 47.894687,47.894687 0 0 0 1.20159,0.45136 l -20.594032,11.88997 a 67.73333,67.73333 0 0 1 -0.962193,-0.58957 z M 0.16217297,233.39251 A 67.73333,67.73333 0 0 1 0.08117125,232.29419 L 20.716835,220.38017 a 47.894687,47.894687 0 0 0 -0.224253,1.27456 z M 2.1856063e-6,229.94288 A 67.73333,67.73333 0 0 1 0.03060618,228.77951 L 21.690705,216.27408 a 47.894687,47.894687 0 0 0 -0.384649,1.36775 z M 33.294372,287.52982 54.593278,275.23289 a 47.894687,47.894687 0 0 0 1.298968,0.39572 l -21.635454,12.49123 a 67.73333,67.73333 0 0 1 -0.96242,-0.59002 z m 3.106005,1.75 22.567202,-13.02918 a 47.894687,47.894687 0 0 0 1.477091,0.29288 l -22.964164,13.25836 a 67.73333,67.73333 0 0 1 -1.080129,-0.52206 z M 0.09513901,226.3447 A 67.73333,67.73333 0 0 1 0.1257387,225.18132 L 23.170053,211.87673 a 47.894687,47.894687 0 0 0 -0.581555,1.48144 z m 0.24171945,-3.68341 a 67.73333,67.73333 0 0 1 0.15666548,-1.23552 L 25.363713,207.06696 a 47.894687,47.894687 0 0 0 -0.835127,1.62724 z M 39.742601,290.89404 63.967459,276.90781 a 47.894687,47.894687 0 0 0 1.725645,0.14878 l -24.870639,14.35907 a 67.73333,67.73333 0 0 1 -1.079864,-0.52162 z M 0.82289337,218.83743 a 67.73333,67.73333 0 0 1 0.1566853,-1.23553 l 23.25370733,-13.42554 0.991702,0.57252 z m 42.48259963,73.54282 24.385076,-14.07873 -2.16e-4,1.14581 -23.169134,13.3767 a 67.73333,67.73333 0 0 1 -1.215726,-0.44378 z m 3.759853,1.3725 20.625361,-11.90805 -2.19e-4,1.1458 -19.329312,11.15979 a 67.73333,67.73333 0 0 1 -1.29583,-0.39754 z M 1.5906735,214.85091 a 67.73333,67.73333 0 0 1 0.304536,-1.32151 l 19.2689025,-11.1249 0.992413,0.57271 z m 0.9443533,-4.08908 a 67.73333,67.73333 0 0 1 0.4815796,-1.42312 l 15.0790966,-8.70591 0.991698,0.57251 z m 48.7061692,84.12384 16.449439,-9.49707 -2.9e-5,1.14509 -15.074179,8.70307 a 67.73333,67.73333 0 0 1 -1.375231,-0.35109 z m 4.43605,0.98211 12.013087,-6.93577 -3.9e-5,1.14512 -10.441335,6.02829 a 67.73333,67.73333 0 0 1 -1.571713,-0.23764 z M 4.0256425,206.35798 a 67.73333,67.73333 0 0 1 0.4820234,-1.42339 l 10.5196681,-6.07352 0.991252,0.57277 z m 56.5151075,90.24509 7.149746,-4.12789 2.41e-4,1.14553 -5.386037,3.10963 a 67.73333,67.73333 0 0 1 -1.76395,-0.12727 z M 5.895748,201.73501 a 67.73333,67.73333 0 0 1 0.7050736,-1.55275 l 5.3574044,-3.09309 0.991951,0.57297 z m 2.3525138,-4.90148 a 67.73333,67.73333 0 0 1 0.7833087,-1.43381 l 0.8501892,0.49073 z m 57.8778172,100.08812 1.564567,-0.90331 -1.05e-4,0.98163 a 67.73333,67.73333 0 0 1 -1.564458,-0.0783 z"
         mask="none"
         style="opacity:1;fill:#696969;fill-opacity:1;stroke:none;stroke-width:25.13215446;stroke-linecap:round;stroke-linejoin:miter;stroke-miterlimit:25.20000076;stroke-dasharray:none;stroke-opacity:1;paint-order:fill markers stroke"
         inkscape:connector-curvature="0" />
      <text
         xml:space="preserve"
         style="font-style:normal;font-variant:normal;font-weight:normal;font-stretch:normal;font-size:22.57777786px;line-height:1.25;font-family:'SVGFont 1';-inkscape-font-specification:'SVGFont 1, ';letter-spacing:0px;word-spacing:0px;fill:#696969;fill-opacity:1;stroke:none;stroke-width:0.26458332"
         x="220.69426"
         y="121.73874"
         id="text990"
         transform="rotate(60)"><tspan
           sodipodi:role="line"
           id="tspan988"
           x="220.69426"
           y="121.73874"
           style="font-style:normal;font-variant:normal;font-weight:bold;font-stretch:normal;font-size:22.57777786px;font-family:'SVGFont 1';-inkscape-font-specification:'SVGFont 1 Bold';fill:#696969;fill-opacity:1;stroke-width:0.26458332">VI</tspan></text>
    </g>
  </g>
</svg>
