<?xml version="1.0" encoding="UTF-8" standalone="no"?>
<!-- Created with Inkscape (http://www.inkscape.org/) -->

<svg
   xmlns:osb="http://www.openswatchbook.org/uri/2009/osb"
   xmlns:dc="http://purl.org/dc/elements/1.1/"
   xmlns:cc="http://creativecommons.org/ns#"
   xmlns:rdf="http://www.w3.org/1999/02/22-rdf-syntax-ns#"
   xmlns:svg="http://www.w3.org/2000/svg"
   xmlns="http://www.w3.org/2000/svg"
   xmlns:sodipodi="http://sodipodi.sourceforge.net/DTD/sodipodi-0.dtd"
   xmlns:inkscape="http://www.inkscape.org/namespaces/inkscape"
   width="512"
   height="512"
   viewBox="0 0 135.46666 135.46667"
   version="1.1"
   id="svg1067"
   inkscape:export-filename="/Users/vajnberg/bitmap.png"
   inkscape:export-xdpi="96"
   inkscape:export-ydpi="96"
   inkscape:version="0.92.2 5c3e80d, 2017-08-06"
   sodipodi:docname="drawing-1.svg">
  <defs
     id="defs1061">
    <linearGradient
       id="linearGradient3890"
       osb:paint="solid">
      <stop
         style="stop-color:#009100;stop-opacity:1;"
         offset="0"
         id="stop3888" />
    </linearGradient>
  </defs>
  <sodipodi:namedview
     id="base"
     pagecolor="#ffffff"
     bordercolor="#666666"
     borderopacity="1.0"
     inkscape:pageopacity="0.0"
     inkscape:pageshadow="2"
     inkscape:zoom="0.49497475"
     inkscape:cx="358.8944"
     inkscape:cy="391.96184"
     inkscape:document-units="px"
     inkscape:current-layer="layer1"
     showgrid="false"
     units="px"
     showguides="false"
     inkscape:window-width="1440"
     inkscape:window-height="775"
     inkscape:window-x="0"
     inkscape:window-y="1"
     inkscape:window-maximized="1" />
  <metadata
     id="metadata1064">
    <rdf:RDF>
      <cc:Work
         rdf:about="">
        <dc:format>image/svg+xml</dc:format>
        <dc:type
           rdf:resource="http://purl.org/dc/dcmitype/StillImage" />
        <dc:title></dc:title>
      </cc:Work>
    </rdf:RDF>
  </metadata>
  <g
     inkscape:label="Layer 1"
     inkscape:groupmode="layer"
     id="layer1"
     transform="translate(0,-161.53331)">
    <path
       style="opacity:1;fill-opacity:1;stroke:none;stroke-width:142.38774109;stroke-linecap:round;stroke-linejoin:miter;stroke-miterlimit:25.20000076;stroke-dasharray:none;stroke-opacity:1;paint-order:fill markers stroke"
       d="m 240,0.66796875 c -7.17199,0.39555775 -14.32415,1.09278935 -21.4375,2.08984375 -0.063,0.0093 -0.12651,0.016041 -0.18945,0.025391 C 214.90146,3.4024402 211.44304,4.0933433 208,4.8554688 V 81.365234 c 10.32095,-2.803799 21.01473,-4.726003 32,-5.675781 z m 32,0.1328125 V 75.691406 c 10.98489,0.950202 21.67927,2.871709 32,5.675782 V 4.671875 C 293.42524,2.7105978 282.73739,1.417671 272,0.80078125 Z M 336,13.021484 v 80.425782 c 11.40068,5.588725 22.12078,12.330424 32,20.091794 V 26.154297 c -3.50558,-1.794478 -7.05209,-3.507824 -10.63672,-5.138672 -1.04977,-0.455684 -2.10127,-0.907668 -3.1582,-1.349609 C 348.22276,17.22219 342.15005,15.005758 336,13.021484 Z m -160,0.07617 c -2.04351,0.598274 -4.07947,1.222021 -6.10742,1.871094 -0.57296,0.205886 -1.15157,0.399513 -1.72266,0.609375 -0.005,0.0019 -0.0104,0.0039 -0.0156,0.0059 -7.03283,2.593597 -13.94835,5.49483 -20.72657,8.695313 -1.14864,0.541559 -2.28849,1.098282 -3.42773,1.65625 v 87.601563 c 9.87958,-7.76169 20.59871,-14.505061 32,-20.093751 z M 477.57227,128.07617 c -2.79785,-4.81921 -5.74927,-9.53713 -8.84571,-14.15234 -1.54044,-2.22865 -3.11616,-4.4327 -4.72656,-6.61133 L 432,70.521484 c -2.00729,-1.931583 -4.04597,-3.830273 -6.11523,-5.695312 -3.24482,-2.887746 -6.56266,-5.693402 -9.95118,-8.416016 -3.70673,-2.984618 -7.49596,-5.865295 -11.36328,-8.638672 C 403.06092,46.690301 401.53507,45.632441 400,44.585938 V 145.97266 c 17.2854,14.21979 17.4507,24.22146 26.09375,47.77148 l 84.76563,84.76563 c 0.88144,-9.44886 1.23681,-18.93942 1.06445,-28.42774 -0.002,-0.0669 -3.4e-4,-0.13429 -0.002,-0.20117 -0.20181,-8.49325 -0.82628,-16.97119 -1.8711,-25.40234 -0.003,-0.0221 -0.005,-0.0443 -0.008,-0.0664 -1.04778,-8.40929 -2.51248,-16.76137 -4.38867,-25.02539 -0.0197,-0.0865 -0.0388,-0.17332 -0.0586,-0.25977 -1.83975,-8.02583 -4.06565,-15.95823 -6.66992,-23.76953 -0.14216,-0.42586 -0.27363,-0.85638 -0.41797,-1.28125 l -0.002,-0.008 c -2.48203,-7.27972 -5.29087,-14.44389 -8.41797,-21.4707 -0.56712,-1.27584 -1.14512,-2.54567 -1.73242,-3.81055 -2.7853,-5.99674 -5.80189,-11.88332 -9.04297,-17.64649 -0.57599,-1.02427 -1.15062,-2.04886 -1.74023,-3.06445 m 0,0 -64.64258,37.32031 M 112,44.726562 c -1.97937,1.306022 -3.94049,2.639485 -5.88281,4 -3.04542,2.210592 -6.04336,4.483162 -8.986331,6.822266 -3.411407,2.712415 -6.752991,5.511504 -10.021484,8.394531 C 84.694067,66.070792 82.333539,68.257763 80,70.472656 L 64,88.802734 48,107.13281 c 0,0.14213 -0.0018,0.24969 -0.002,0.39063 -1.616608,1.95238 -2.227262,2.75475 -2.591797,3.28125 -3.153276,4.55044 -6.158111,9.20197 -9.009766,13.94726 -0.66307,1.10357 -1.323869,2.20808 -1.970703,3.32227 -2.462172,4.2412 -4.800343,8.56178 -7.021484,12.95117 -1.090716,2.30894 -2.146824,4.63407 -3.167969,6.97461 H 68.9375 74.46875 80 110.49805 c 0.50186,-0.67688 0.99085,-1.36369 1.50195,-2.0332 z M 11.794922,180 c -0.692033,1.96508 -1.360051,3.93853 -2.0039064,5.91992 -0.044402,0.15534 -0.086745,0.31142 -0.1308594,0.4668 C 7.2883061,194.81954 5.3508613,203.36855 3.8554688,212 H 80.347656 c 2.748834,-11.11448 6.507863,-21.81749 11.191406,-32 z M 0.54492188,244 c -0.36491574,5.94973 -0.52191248,11.9104 -0.47070313,17.87109 0.0021098,0.093 0.0016966,0.18632 0.0039063,0.2793 0.2151925,4.62492 0.55581263,9.24316 1.0214844,13.84961 H 76.089844 C 75.377282,269.43579 75,262.76649 75,256.00391 75,251.96903 75.132256,247.9669 75.388672,244 Z M 436.89648,249.80273 c 0.0684,2.05843 0.10352,4.12527 0.10352,6.20118 0,12.22305 -1.20138,24.14976 -3.48047,35.67578 l 59.89063,59.89062 0.0644,-0.14258 c 0.3266,-0.80776 0.65606,-1.61399 0.97461,-2.42578 2.9531,-7.52849 5.54781,-15.19268 7.77539,-22.96679 0.0364,-0.12735 0.0712,-0.25539 0.10742,-0.38282 0.69567,-2.81237 1.34355,-5.63634 1.94336,-8.4707 z M 5.5371094,308 c 0.2578345,1.55261 0.5299815,3.1028 0.8164062,4.65039 0.014929,0.0654 0.028006,0.13188 0.042969,0.19727 1.8440461,8.0492 4.0764736,16.00447 6.6894536,23.83789 0.13439,0.4024 0.258187,0.8094 0.394531,1.21093 0.271644,0.70238 0.546387,1.40356 0.824219,2.10352 h 81.15039 C 90.172244,329.86741 85.820829,319.16416 82.509766,308 Z M 422.95117,326.36523 c -4.34599,10.37191 -9.63334,20.24019 -15.74609,29.50977 l 53.49414,53.49414 c 2.00981,-2.67428 3.9682,-5.38951 5.875,-8.14258 3.16617,-4.56789 6.18274,-9.23769 9.04492,-14.00195 1.02738,-1.71026 2.0275,-3.43821 3.01563,-5.17383 z M 28.148438,372 c 1.469303,3.01148 2.997594,5.99383 4.583984,8.94531 3.279124,5.82641 6.771988,11.51758 10.482422,17.05274 1.402079,2.02117 2.833218,4.02203 4.292968,6.00195 H 151.41211 c -12.91292,-9.11334 -24.56023,-19.8813 -34.65039,-32 z m 359.005862,9.07812 c -7.38145,7.74076 -15.45594,14.81339 -24.11133,21.14258 l 53.13476,53.13477 c 2.96468,-2.37244 5.87621,-4.81054 8.73243,-7.3125 3.3928,-2.98883 6.70294,-6.06722 9.93359,-9.22852 1.67837,-1.67096 3.33348,-3.36514 4.96484,-5.08203 z M 334.75,419.18359 c -10.52048,5.05513 -21.61442,9.12345 -33.16406,12.08985 l 58.3789,58.3789 c 1.53221,-0.62516 3.05833,-1.26516 4.57813,-1.91992 1.50618,-0.70988 3.00402,-1.43363 4.49414,-2.17187 5.69353,-2.82041 11.28008,-5.8518 16.74805,-9.08789 1.30712,-0.77364 2.60541,-1.56055 3.89843,-2.35547 z M 74.349609,436 c 1.005837,1.01424 2.005128,2.0353 3.027344,3.0332 2.888877,2.82213 5.844131,5.57551 8.863281,8.25782 3.156182,2.80509 6.381839,5.5326 9.673828,8.18164 3.806963,3.07058 7.701138,6.03143 11.677738,8.8789 2.56712,1.83576 5.17652,3.61521 7.8125,5.35742 4.8788,3.2266 9.86676,6.28504 14.95508,9.16993 1.86587,1.05777 3.74621,2.09162 5.64062,3.10351 6.11086,3.2636 12.35167,6.2778 18.70703,9.03516 1.00853,0.43737 2.01809,0.87217 3.0332,1.29687 7.30182,3.05611 14.74146,5.77193 22.29493,8.13867 0.004,10e-4 0.008,0.003 0.0117,0.004 0.25192,0.0786 0.50749,0.14833 0.75976,0.22656 24.3601,7.49394 49.70272,11.30814 75.18945,11.31641 h 0.004 0.004 c 3.82902,-0.005 7.65746,-0.0951 11.48242,-0.27148 0.24572,-0.011 0.49274,-0.0156 0.73828,-0.0274 8.43382,-0.40301 16.84253,-1.22302 25.19531,-2.45703 0.0734,-0.0109 0.14732,-0.0204 0.2207,-0.0312 8.30441,-1.23807 16.54289,-2.88394 24.68555,-4.93164 0.18177,-0.0458 0.36526,-0.0866 0.54688,-0.13281 2.64959,-0.76464 5.28665,-1.57203 7.91015,-2.42188 L 261.95117,436.89453 C 259.9745,436.95758 257.99276,436.99996 256,437 h -0.004 c -6.48847,0 -12.89268,-0.34334 -19.19921,-1 z"
       transform="matrix(0.26458333,0,0,0.26458333,0,161.53331)"
       id="circle1622"
       inkscape:connector-curvature="0"
       sodipodi:nodetypes="cccccccccccccccccccccccccccccccccccccccccccccccccccccccccccccccccccccccccccccccccccccscccscccccccccccccccccccccccccccccccccccccccccccccccccccccccccccccccccccccccscc" />
    <g
       id="g3865"
       transform="translate(0,-22.224989)" />
    <g
       id="g3798"
       transform="translate(-8.466664)" />
    <g
       id="g3839"
       transform="rotate(-45,-7.8047679,-87.221593)">
      <g
         id="g3837" />
    </g>
  </g>
</svg>
