<?xml version="1.0" encoding="UTF-8" standalone="no"?>
<svg
   xmlns:dc="http://purl.org/dc/elements/1.1/"
   xmlns:cc="http://creativecommons.org/ns#"
   xmlns:rdf="http://www.w3.org/1999/02/22-rdf-syntax-ns#"
   xmlns:svg="http://www.w3.org/2000/svg"
   xmlns="http://www.w3.org/2000/svg"
   xmlns:sodipodi="http://sodipodi.sourceforge.net/DTD/sodipodi-0.dtd"
   xmlns:inkscape="http://www.inkscape.org/namespaces/inkscape"
   id="iviiv-logo"
   viewBox="0 0 512 512"
   version="1.1"
   sodipodi:docname="step to future 07.06.svg"
   inkscape:version="0.92.2 5c3e80d, 2017-08-06">
  <sodipodi:namedview
     pagecolor="#ffffff"
     bordercolor="#666666"
     borderopacity="1"
     objecttolerance="10"
     gridtolerance="10"
     guidetolerance="10"
     inkscape:pageopacity="0"
     inkscape:pageshadow="2"
     inkscape:window-width="1440"
     inkscape:window-height="855"
     id="namedview22"
     showgrid="true"
     inkscape:zoom="0.96902231"
     inkscape:cx="371.29023"
     inkscape:cy="238.55998"
     inkscape:window-x="0"
     inkscape:window-y="1"
     inkscape:window-maximized="1"
     inkscape:current-layer="iviiv-logo">
    <inkscape:grid
       type="xygrid"
       id="grid829"
       empspacing="40" />
  </sodipodi:namedview>
  <title
     id="title2">logo 164.gr</title>
  <metadata
     id="metadata4">
    <rdf:RDF>
      <cc:Work
         rdf:about="">
        <dc:format>image/svg+xml</dc:format>
        <dc:type
           rdf:resource="http://purl.org/dc/dcmitype/StillImage" />
        <dc:title>logo 164.gr</dc:title>
        <cc:license
           rdf:recource="http://license.164.gr" />
        <dc:date>Thursday 7 June 2019</dc:date>
        <dc:creator>
          <cc:Agent>
            <dc:title>drawing 164 group</dc:title>
          </cc:Agent>
        </dc:creator>
        <dc:language>en, ru, fr</dc:language>
        <dc:subject>
          <rdf:Bag>
            <rdf:li>logo 164 iviiv group logotype clxiv 164gr 164g</rdf:li>
          </rdf:Bag>
        </dc:subject>
        <dc:coverage>Coverage</dc:coverage>
        <dc:description>The main chevron-type logo is a watermark for product logos, teams,services of the group.</dc:description>
        <dc:contributor>
          <cc:Agent>
            <dc:title>drawing 164 group</dc:title>
          </cc:Agent>
        </dc:contributor>
      </cc:Work>
    </rdf:RDF>
  </metadata>
  <style
     id="style6">#iviiv-logo{height:100%;width:100%;fill:#fff;stroke:#888;stroke-width:5;cursor:pointer}#iviiv-00b[data-pattern=&quot;paint&quot;]{fill:#00b}#iviiv-b00[data-pattern=&quot;paint&quot;]{fill:#b00}#iviiv-0b0[data-pattern=&quot;paint&quot;]{fill:#0b0}#iviiv-b00[data-pattern=&quot;black&quot;],#iviiv-0b0[data-pattern=&quot;black&quot;],#iviiv-00b[data-pattern=&quot;black&quot;]{fill:#000;stroke:#000}</style>
  <defs
     id="defs11">
    <pattern
       id="iviiv-b00" />
    <pattern
       id="iviiv-00b" />
    <pattern
       id="iviiv-0b0" />
  </defs>
  <path
     d="M451 123l-34 20c-21 14-2 40 17 31l35-21c20-13 2-41-18-30zM43 153l34 20c24 11 37-20 18-30l-35-20c-21-12-37 19-17 30zM106 77c-18 19 6 41 22 27 45-37 104-54 163-43 26 1 25-31 6-35-68-13-144 10-191 51zM393 53l-46 17c-19 8-15 50 32 26-12 54 32 43 33 23l5-48c3-11-11-24-24-18z"
     id="path13" />
  <path
     d="M238 452v40c4 26 35 22 36 0v-40c-4-26-35-22-36 0zM26 215c-12 68 7 138 51 191 20 20 41-8 27-22-38-45-55-105-43-163 1-26-31-25-35-6zM140 428l8 49c3 13 17 19 28 11l40-28c17-13 2-54-38-17 2-48-39-40-38-15z"
     id="path15" />
  <script
     id="script19">(() =&gt; {
// <![CDATA[
let d = document.createElementNS('http://www.w3.org/2000/svg', 'defs'),l = document.getElementById('iviiv-logo'),p = l.querySelectorAll('pattern'),t = [['iviiv-b00', 'iviiv-00b', 'iviiv-0b0'],['rotate(0)', 'rotate(90)', 'rotate(30)'], 'M5,0 5,15M15-5v30h-30v-30'], c;l.querySelectorAll('path').forEach((e, n) => ['fill', 'stroke'].map(x => e.setAttribute(x, `url('#${t[0][n]}')`)));p.forEach((p, n) => {let h = document.createElementNS('http://www.w3.org/2000/svg', 'path');h.setAttribute('d', t[2]);p.setAttribute('patternTransform', t[1][n]);['width', 'height'].map(i => p.setAttribute(i, 10));p.setAttribute('patternUnits', 'userSpaceOnUse');p.append(h);});c = x => p.forEach(p => p.dataset.pattern = x);l.addEventListener('mouseover', e => {if(p[0].dataset.pattern != 'black') c('paint')});l.addEventListener('mouseout', e => {if(p[0].dataset.pattern != 'black') c('')});window.addEventListener('resize', e => Math.min(l.clientWidth, l.clientHeight) < 32 ? c('black') : c(''));
// ]]>
})()</script>
  <path
     style="fill:none;stroke:#000000;stroke-width:1px;stroke-linecap:butt;stroke-linejoin:miter;stroke-opacity:1"
     d="m 200,152 c -0.96471,-0.39626 -1.87115,-0.98577 -2.89412,-1.18879 -1.01222,-0.20089 -2.06393,0 -3.0959,0 -2.40792,0 -4.81585,0 -7.22378,0 -1.37595,0 -2.78468,0.29848 -4.12787,0 -1.80832,-0.40185 -3.3217,-1.83417 -5.15984,-2.06394 -1.07939,-0.13492 -2.01904,1.1858 -3.0959,1.03197 -1.52291,-0.21756 -2.75192,-1.37596 -4.12787,-2.06394 -1.37596,-0.68798 -2.92661,-1.10292 -4.12787,-2.06393 -0.60064,-0.48051 -0.40606,-1.61686 -1.03197,-2.06394 -2.06394,-1.03197 -4.12787,-2.06394 -6.19181,-3.0959 0,-1.03197 0.61918,-2.27033 0,-3.09591 -0.65267,-0.87023 -2.06394,-0.68798 -3.0959,-1.03197 -0.34399,-1.37595 -0.50523,-2.81101 -1.03197,-4.12787 -0.18067,-0.45168 -0.72807,-0.65209 -1.03197,-1.03197 -1.07444,-1.34305 -2.211,-2.65303 -3.0959,-4.12787 -0.17699,-0.29497 0.12775,-0.71258 0,-1.03197 -0.57134,-1.42833 -1.69083,-2.63543 -2.06394,-4.12787 -0.33372,-1.33487 0.43512,-2.82252 0,-4.12787 -0.15384,-0.46151 -0.68798,0.68798 -1.03197,1.03197 -0.34399,-1.03197 -1.03197,-2.00812 -1.03197,-3.09591 0,-0.48647 0.68798,1.37596 1.03197,1.03197 0.48648,-0.48647 0,-1.37595 0,-2.06393 0,-0.34399 0,1.37595 0,1.03196 0,-0.68797 0,-1.37595 0,-2.06393 0,-0.34399 -0.30767,-0.87813 0,-1.03197 0.61535,-0.30767 1.37596,0 2.06394,0 0.34399,0 -1.37596,0 -1.03197,0 0.68798,0 1.41126,0.21756 2.06394,0 0.46151,-0.15384 0.56001,-0.91398 1.03196,-1.03197 1.00116,-0.25029 2.1169,0.32634 3.09591,0 0.32633,-0.10878 0,-0.68798 0,-1.03197 1.03197,-0.34398 2.02291,-0.85313 3.0959,-1.03196 1.69655,-0.28276 3.47329,0.33731 5.15984,0 1.06667,-0.21334 2.02924,-0.81864 3.09591,-1.03197 0.67461,-0.13493 1.38531,0.1131 2.06393,0 1.39901,-0.23317 2.72052,-0.85605 4.12787,-1.03197 2.38933,-0.29867 4.81585,0 7.22378,0 4.81585,0 9.6317,0 14.44755,0 4.12787,0 8.25574,0 12.38362,0 1.37595,0 2.79299,-0.33372 4.12787,0 0.33372,0.0834 -0.10878,0.70563 0,1.03197 0.24324,0.72971 0.39197,1.63727 1.03197,2.06393 0.57243,0.38163 1.44859,-0.30767 2.06393,0 0.30768,0.15384 -0.24323,0.78874 0,1.03197 0.5439,0.5439 1.52004,0.48808 2.06394,1.03197 0.24324,0.24324 -1.27521,-0.24324 -1.03197,0 0.877,0.877 2.45779,1.00041 3.0959,2.06394 0.53095,0.8849 -0.72971,2.36619 0,3.0959 0.5439,0.5439 1.52005,-1.57586 2.06394,-1.03197 0.5439,0.5439 -1.03197,1.29475 -1.03197,2.06394 0,3.73379 1.27835,0.73912 2.06394,3.0959 0.21756,0.65268 0,1.37596 0,2.06394 0,0.34399 0,-1.37596 0,-1.03197 0,2.75191 0,5.50383 0,8.25574 0,0.34399 0,-1.37595 0,-1.03196 0,0.68797 0,1.37595 0,2.06393 0,0.34399 0.30767,0.87813 0,1.03197 -1.26857,0.63429 -2.8593,0.39768 -4.12787,1.03197 -0.30768,0.15383 0.15383,0.72429 0,1.03197 -0.21756,0.43511 -0.59686,0.81441 -1.03197,1.03196 -0.97295,0.48648 -2.12296,0.5455 -3.09591,1.03197 -0.43511,0.21756 -0.61482,0.78168 -1.03196,1.03197 -1.31914,0.79148 -2.89718,1.14092 -4.12788,2.06394 -0.27519,0.20639 0.31939,0.90421 0,1.03196 -1.62855,0.65143 -3.591,0.24756 -5.15984,1.03197 -0.68797,0.34399 -0.34398,1.71995 -1.03196,2.06394 -6.10808,3.05404 -0.0884,-3.54558 -6.19181,1.03197 -0.61535,0.46151 -0.3724,1.66819 -1.03197,2.06393 -1.21619,0.72971 -2.81101,0.50522 -4.12787,1.03197 -0.45168,0.18067 -0.55494,0.93656 -1.03197,1.03197 -1.34924,0.26985 -2.75191,0 -4.12787,0 -0.34399,0 -0.71258,-0.12776 -1.03197,0 -1.42834,0.57133 -2.80873,1.27245 -4.12787,2.06393 -0.41715,0.25029 -0.58029,0.8513 -1.03197,1.03197 -11.21813,4.48725 -1.07087,0.21418 -5.15984,1.03197 -1.39076,0.27815 -2.70957,1.03197 -4.12787,1.03197 -0.48648,0 -0.55494,-0.93656 -1.03197,-1.03197 -1.34924,-0.26985 -2.75191,0 -4.12787,0 -0.34399,0 -0.69466,-0.0675 -1.03197,0 -1.39076,0.27815 -2.73711,0.75382 -4.12787,1.03197 -0.33731,0.0675 -0.68798,0 -1.03197,0 -1.03197,0 -2.06393,0 -3.0959,0 -0.34399,0 -0.70563,-0.10878 -1.03197,0 -1.45942,0.48647 -2.61938,1.76224 -4.12787,2.06393 -1.01193,0.20239 -2.1169,-0.32633 -3.09591,0 -0.32633,0.10878 0.34399,1.03197 0,1.03197 -1.78003,0 -2.49288,-2.238 -3.0959,-1.03197 -0.30767,0.61535 0.38162,1.49151 0,2.06394 -0.42667,0.64 -1.29475,1.03197 -2.06394,1.03197 -0.48647,0 1.37596,-1.37596 1.03197,-1.03197 -0.68798,0.68798 -1.14091,1.75626 -2.06393,2.06394 -0.46151,0.15383 -0.68798,-1.37596 -1.03197,-1.03197 -0.48648,0.48647 0.21756,1.41126 0,2.06393 -0.15384,0.46151 -0.81441,0.59686 -1.03197,1.03197 -0.15384,0.30768 0.34399,1.03197 0,1.03197 -0.34399,0 0,-1.37596 0,-1.03197 0,0.68798 0,1.37596 0,2.06394 0,0.34399 0,-1.37596 0,-1.03197 0,3.58104 0,14.80955 0,21.67133 0,1.37595 0,2.75191 0,4.12787 0,1.63491 -0.30767,2.78823 1.03197,4.12787 0.24323,0.24324 0.75677,-0.20639 1.03197,0 1.03196,1.03197 2.06393,2.06394 3.0959,3.09591 -0.34399,-0.34399 -1.46708,-1.24953 -1.03197,-1.03197 1.10933,0.55466 1.98657,1.50927 3.09591,2.06393 0.30767,0.15384 0.72429,-0.15383 1.03196,0 1.10934,0.55467 1.91928,1.67173 3.09591,2.06394 0.62152,0.20717 7.36864,0 8.25574,0 6.5358,0 13.0716,0 19.60739,0 4.81585,0 9.6317,0 14.44755,0 2.40793,0 4.81586,0 7.22378,0 0.68798,0 1.41126,0.21756 2.06394,0 0.46151,-0.15384 0.58028,-0.8513 1.03196,-1.03197 1.31687,-0.52674 2.76414,-0.64233 4.12788,-1.03197 1.04593,-0.29884 2.04059,-0.76814 3.0959,-1.03196 3.66922,-0.91731 -4.12787,2.75191 4.12787,0 0.32634,-0.10878 0,-0.68798 0,-1.03197 0.34399,-0.34399 0.56002,-0.91398 1.03197,-1.03197 1.00116,-0.25029 2.06394,0 3.0959,0 0.34399,0 -1.2752,0.24324 -1.03196,0 0.877,-0.877 1.98657,-1.50927 3.0959,-2.06394 0.43512,-0.21755 -1.37596,1.37596 -1.03197,1.03197 0.68798,-0.68798 1.62882,-1.1937 2.06394,-2.06393 0.15384,-0.30768 -1.37596,0 -1.03197,0 0.68798,0 1.75626,0.61534 2.06394,0 0.34399,-0.68798 -1.57587,-1.52005 -1.03197,-2.06394 0.54389,-0.5439 1.37596,1.37596 2.06393,1.03197 0.61535,-0.30768 0,-1.37596 0,-2.06394 0,-0.34399 0,1.37596 0,1.03197 0,-1.03197 0,-2.06394 0,-3.0959 0,-0.34399 0,1.37595 0,1.03196 0,-1.6349 -0.30767,-2.78823 1.03197,-4.12787 0.24324,-0.24324 0,1.37596 0,1.03197 0,-4.31677 0,-5.87445 0,-13.41558 0,-1.37596 0,-2.75192 0,-4.12788 0,-1.37595 0.70793,-2.94799 0,-4.12787 -0.55966,-0.93277 -2.44323,-0.16173 -3.0959,-1.03197 -0.61918,-0.82557 0.32634,-2.11689 0,-3.0959 -0.10878,-0.32634 -0.78873,0.24324 -1.03197,0 -1.21619,-1.21619 -1.87972,-2.91169 -3.0959,-4.12787 -0.24324,-0.24324 0.24323,1.2752 0,1.03197 -0.87701,-0.87701 -1.07172,-2.35175 -2.06394,-3.09591 -0.55038,-0.41279 -1.57746,0.48648 -2.06394,0 -0.48647,-0.48647 0.65268,-1.84638 0,-2.06393 -1.03196,-0.34399 -2.12295,1.51844 -3.0959,1.03196 -0.68798,-0.34399 1.37596,-1.37595 1.03197,-2.06393 -0.17912,-0.35824 -5.26861,0.81443 -6.19181,-1.03197 -0.21756,-0.43512 1.51844,-1.03197 1.03197,-1.03197 -0.71572,0 -2.03529,1.56228 -3.09591,1.03197 -0.87023,-0.43512 -1.1937,-1.62882 -2.06393,-2.06394 -0.61535,-0.30767 -2.06394,0.68798 -2.06394,0 0,-0.34399 1.37596,0 1.03197,0 -6.76512,0 3.66922,0 -3.0959,0 -1.61441,0 -5.88016,0 -7.22378,0 -0.34399,0 1.37596,0 1.03197,0 -4.47186,0 -8.94372,0 -13.41558,0 -0.81983,0 -2.80118,-0.48647 -3.09591,1.03197 -0.27214,1.40207 0,2.85647 0,4.2847"
     id="path919"
     inkscape:connector-curvature="0" />
  <path
     style="fill:none;stroke:#000000;stroke-width:1px;stroke-linecap:butt;stroke-linejoin:miter;stroke-opacity:1"
     d="m 320,152 c -6.90884,-0.18726 -13.81924,-0.15683 -20.72928,-0.15683 -1.37596,0 -2.76575,0.19459 -4.12788,0 -14.33795,-2.04828 2.2732,0.0523 -6.1918,-2.06393 -1.33488,-0.33372 -2.85033,0.51102 -4.12788,0 -1.15156,-0.46063 -1.98657,-1.50927 -3.0959,-2.06394 -0.30767,-0.15383 -0.68798,0 -1.03197,0 -1.03197,-0.34399 -2.19081,-0.42857 -3.0959,-1.03197 -0.28622,-0.19081 0.34399,-1.03196 0,-1.03196 -1.52122,0 -2.33056,2.23018 -4.12787,1.03196 -2.52831,-5.0566 0.33759,-0.86316 -2.06394,-2.06393 -0.43512,-0.21756 -0.54549,-1.03197 -1.03197,-1.03197 -0.48647,0 -0.57046,1.1858 -1.03197,1.03197 -0.92302,-0.30768 -1.52424,-1.2544 -2.06393,-2.06394 -0.19081,-0.28621 0.34399,-1.03197 0,-1.03197 -0.48648,0 -0.68798,1.37596 -1.03197,1.03197 -0.48647,-0.48647 0.61535,-1.75626 0,-2.06393 -0.68798,-0.34399 -1.37596,1.37595 -2.06394,1.03196 -0.61534,-0.30767 0.21756,-1.41126 0,-2.06393 -0.30767,-0.92302 -1.52424,-1.2544 -2.06393,-2.06394 -0.42667,-0.64 -0.48808,-1.52004 -1.03197,-2.06393 -0.24324,-0.24324 -0.87813,0.30767 -1.03197,0 -0.30767,-0.61535 0,-1.37596 0,-2.06394 0,-0.34399 0.15384,1.33964 0,1.03197 -1.60667,-3.21335 -1.03197,-2.09737 -1.03197,-6.19181 0,-0.34399 0,1.37596 0,1.03197 0,-1.03197 0,-2.06394 0,-3.09591 0,-0.34399 0,1.37596 0,1.03197 0,-9.97569 0,3.09591 0,-4.12787 0,-0.34399 0,1.37596 0,1.03197 0,-0.68798 0,-1.37596 0,-2.06394 0,-0.34399 0,1.37596 0,1.03197 0,-1.03197 0,-2.06394 0,-3.0959 0,-0.34399 -0.34399,-1.03197 0,-1.03197 0.48648,0 0.5455,1.03197 1.03197,1.03197 0.97295,0 1.09099,-2.06394 2.06394,-2.06394 0.34399,0 -0.24324,0.78873 0,1.03197 0.24323,0.24324 0.68798,0 1.03197,0 0.34399,0 0.78873,0.24324 1.03196,0 0.24324,-0.24324 -0.24323,-0.78873 0,-1.03197 4.0275,-4.0275 0.55422,0.23888 3.09591,-1.03197 0.43511,-0.21756 0.54549,-1.03197 1.03197,-1.03197 0.71572,0 2.03528,1.56228 3.0959,1.03197 0.43512,-0.21756 0.56002,-0.91398 1.03197,-1.03197 1.00115,-0.25028 2.08397,0.20239 3.0959,0 0.75425,-0.15084 1.31772,-0.84541 2.06394,-1.03196 0.66743,-0.16686 1.3965,0.16686 2.06393,0 0.74622,-0.18656 1.30969,-0.88112 2.06394,-1.03197 1.01193,-0.20239 2.06394,0 3.0959,0 2.40793,0 4.81585,0 7.22378,0 8.59973,0 17.19947,0 25.7992,0 6.19181,0 12.38361,0 18.57542,0 0.78604,0 6.57723,-0.21552 7.22378,0 0.46151,0.15384 0.68798,0.68798 1.03197,1.03197 0.34399,0.34399 0.81441,0.59685 1.03196,1.03196 0.15384,0.30768 -0.30767,0.87814 0,1.03197 0.61535,0.30768 1.37596,0 2.06394,0 0.34399,0 -1.2752,-0.24323 -1.03197,0 0.5439,0.5439 1.52004,0.48808 2.06394,1.03197 0.24324,0.24324 -0.34399,1.03197 0,1.03197 0.48647,0 0.68798,-1.37596 1.03197,-1.03197 0.48647,0.48647 0,1.37596 0,2.06394 0,0.34399 -0.24324,-1.27521 0,-1.03197 0.54389,0.54389 0.48807,1.52004 1.03196,2.06393 0.24324,0.24324 0,-1.37595 0,-1.03196 0,1.71994 0,3.43989 0,5.15984 0,0.67811 0.19408,2.51367 0,3.0959 -0.24323,0.72971 -0.34399,1.71995 -1.03196,2.06394 -0.43512,0.21755 -0.59686,-1.24953 -1.03197,-1.03197 -0.68798,0.34399 -0.48807,1.52004 -1.03197,2.06393 -0.28237,0.28237 -3.56804,-0.27991 -4.12787,0 -0.43512,0.21756 -0.59685,0.81441 -1.03197,1.03197 -0.30767,0.15384 -0.72429,-0.15383 -1.03197,0 -0.43511,0.21756 -0.58029,0.8513 -1.03197,1.03197 -1.31686,0.52675 -2.78235,0.58346 -4.12787,1.03197 -0.72971,0.24324 -1.31772,0.84541 -2.06393,1.03197 -1.33488,0.33371 -2.89718,-0.61535 -4.12788,0 -0.87023,0.43511 -1.16057,1.70259 -2.06393,2.06393 -0.95816,0.38327 -2.08398,-0.20238 -3.09591,0 -0.75424,0.15085 -1.30968,0.88112 -2.06393,1.03197 -1.01193,0.20239 -2.08398,-0.20239 -3.09591,0 -0.75424,0.15085 -1.30968,0.88112 -2.06393,1.03197 -1.01193,0.20238 -2.08398,-0.20239 -3.09591,0 -0.75424,0.15085 -1.34976,0.7463 -2.06393,1.03197 -1.00999,0.40399 -2.02924,0.81863 -3.09591,1.03196 -0.67461,0.13493 -1.38931,-0.13492 -2.06393,0 -1.06667,0.21334 -2.00812,1.03197 -3.0959,1.03197 -0.76919,0 -1.29476,-1.03197 -2.06394,-1.03197 -1.08779,0 -2.02924,0.81864 -3.0959,1.03197 -2.86658,0.57332 -1.71995,-0.85997 -5.15984,0 -0.47195,0.11799 -0.56002,0.91398 -1.03197,1.03197 -7.87251,0 0.81407,-0.46151 -5.15984,1.03197 -1.33488,0.33372 -2.82253,-0.43512 -4.12787,0 -0.46151,0.15383 -0.58029,0.85129 -1.03197,1.03197 -1.31687,0.52674 -2.81101,0.50522 -4.12787,1.03196 -0.45168,0.18068 -0.56002,0.91398 -1.03197,1.03197 -1.00116,0.25029 -2.17289,-0.46151 -3.09591,0 -0.68798,0.34399 -0.3178,1.77827 -1.03196,2.06394 -1.27755,0.51102 -2.793,-0.33372 -4.12788,0 -0.33372,0.0834 0.32634,0.92319 0,1.03197 -0.97901,0.32633 -2.17288,-0.46151 -3.0959,0 -0.68798,0.34399 -0.39197,1.63727 -1.03197,2.06393 -0.57243,0.38162 -1.41126,-0.21756 -2.06393,0 -0.46151,0.15384 -0.59686,0.81441 -1.03197,1.03197 -0.30768,0.15384 -0.69825,-0.0834 -1.03197,0 -1.05531,0.26383 -2.12296,0.54549 -3.0959,1.03197 -0.30768,0.15383 1.03196,-0.34399 1.03196,0 0,0.76918 -0.39196,1.63727 -1.03196,2.06393 -0.57244,0.38163 -1.57747,-0.48647 -2.06394,0 -0.34399,0.34399 1.03197,0.5455 1.03197,1.03197 0,0.34399 -0.7243,-0.15383 -1.03197,0 -0.43512,0.21756 -1.03197,0.5455 -1.03197,1.03197 0,0.34399 0.87813,-0.30767 1.03197,0 0.30767,0.61535 0,1.37596 0,2.06394 0,0.34399 0,-1.37596 0,-1.03197 0,0.68798 0,1.37596 0,2.06393 0,1.71995 0,3.4399 0,5.15984 0,0.34399 0,-1.37595 0,-1.03196 0,0.68797 -0.48647,1.57746 0,2.06393 0.48647,0.48648 1.57746,-0.48647 2.06394,0 0.34399,0.34399 -1.24953,0.59685 -1.03197,1.03197 0.007,0.0148 3.0959,1.26899 3.0959,2.06394 0,0.48647 -1.1858,0.57045 -1.03197,1.03196 0.30768,0.92302 1.37596,1.37596 2.06394,2.06394 0.34399,0.34399 1.03197,0.54549 1.03197,1.03197 0,0.48647 -1.30182,0.62719 -1.03197,1.03197 0.68798,1.03196 2.2189,1.18693 3.0959,2.06393 0.5439,0.5439 0.78873,1.33423 1.03197,2.06394 0.10878,0.32633 -0.24324,0.78873 0,1.03197 0.5439,0.54389 1.63727,0.39196 2.06394,1.03196 0.38162,0.57244 -0.48648,1.57746 0,2.06394 0.48647,0.48647 1.57746,-0.48648 2.06393,0 0.76919,0.76918 0.26279,2.32672 1.03197,3.0959 0.34399,0.34399 0.68798,-1.37595 1.03197,-1.03196 0.76918,0.76918 0.26278,2.32672 1.03197,3.0959 0.48647,0.48647 1.44859,-0.30767 2.06393,0 0.30768,0.15384 -0.30767,0.87813 0,1.03197 0.61535,0.30767 1.57747,-0.48648 2.06394,0 0.48647,0.48647 -0.48647,1.57746 0,2.06393 0.48647,0.48648 1.3965,-0.16686 2.06394,0 2.04937,0.51235 4.14243,2.58356 6.1918,3.09591 0.66744,0.16686 1.42517,-0.25551 2.06394,0 1.15156,0.46062 1.89266,1.76312 3.0959,2.06393 0.47195,0.11799 0.5455,-1.03196 1.03197,-1.03196 1.7113,0 3.618,1.44719 5.15984,2.06393 1.00999,0.404 2.04997,0.73313 3.09591,1.03197 1.36373,0.38964 2.811,0.50522 4.12787,1.03197 0.45168,0.18067 0.55494,0.93656 1.03197,1.03197 1.34923,0.26984 2.76574,-0.19459 4.12787,0 1.07685,0.15383 2.02924,0.81863 3.0959,1.03196 0.67462,0.13493 1.38287,-0.0973 2.06394,0 1.73638,0.24806 3.41937,0.81441 5.15984,1.03197 1.024,0.128 2.09474,-0.25029 3.0959,0 0.47195,0.11799 0.54549,1.03197 1.03197,1.03197 1.75401,0 3.41938,-0.81441 5.15984,-1.03197 1.68363,-0.21045 6.80512,0 8.25574,0 3.4399,0 6.87979,0 10.31968,0 1.19881,0 4.22431,0.23388 5.15984,0 6.95107,-1.73777 0.0159,-0.0159 2.06394,-2.06393 0.24324,-0.24324 0.72429,0.15383 1.03197,0 0.43511,-0.21756 0.59685,-0.81441 1.03196,-1.03197 0.30768,-0.15384 1.03197,-0.34399 1.03197,0 0,0.34399 -1.37596,0 -1.03197,0 0.68798,0 1.57747,0.48647 2.06394,0 0.34399,-0.34399 -1.03197,-0.5455 -1.03197,-1.03197 0,-0.34399 0.78873,0.24324 1.03197,0 0.24324,-0.24324 -0.15384,-0.7243 0,-1.03197 0.21756,-0.43511 1.03197,-0.54549 1.03197,-1.03197 0,-0.48647 -0.81441,-0.59685 -1.03197,-1.03196 -0.15384,-0.30768 0,-0.68798 0,-1.03197 0,-0.34399 0,-0.68798 0,-1.03197 0,-2.40793 0,-4.81585 0,-7.22378 0,-6.87978 0,-13.75957 0,-20.63936 0,-2.40792 0,-4.81585 0,-7.22377 0,-0.34399 0,-0.68798 0,-1.03197 0,-0.34399 0.30767,-0.87813 0,-1.03197 -0.61535,-0.30767 -1.37596,0 -2.06394,0 -1.03196,0 -2.06393,0 -3.0959,0 -3.43989,0 -6.87979,0 -10.31968,0 -1.37596,0 -2.76254,0.17067 -4.12787,0 -1.40735,-0.17592 -2.73711,-0.75381 -4.12787,-1.03197 -0.33731,-0.0675 -0.68798,0 -1.03197,0 -1.03197,0 -2.09475,0.25029 -3.09591,0 -0.47194,-0.11798 -0.56001,-0.91398 -1.03196,-1.03196 -0.74161,-0.18541 -5.05394,0 -6.19181,0 -0.34399,0 1.37596,0 1.03197,0 -1.03197,0 -2.06394,0 -3.09591,0 -0.34399,0 1.37596,0 1.03197,0 -3.55011,0 -0.46157,0 -5.15984,0 -0.34399,0 0.81671,0.26831 1.03197,0 C 318.78846,154.79647 319.28205,153.32368 320,152"
     id="path921"
     inkscape:connector-curvature="0" />
  <path
     style="fill:none;stroke:#000000;stroke-width:1px;stroke-linecap:butt;stroke-linejoin:miter;stroke-opacity:1"
     d="m 200,215.82519 c 1.44322,0 2.95231,-0.43103 4.32966,0 0.46427,0.14529 -0.54549,1.03197 -1.03197,1.03197 -1.15179,0 -2.60661,-1.95341 -3.29769,-1.03197 -1.03276,1.37701 1.02373,3.64751 0.20179,5.15984 -0.73461,1.35164 -2.80873,1.27245 -4.12787,2.06393 -0.41715,0.25029 -0.68798,0.68798 -1.03197,1.03197 -1.03197,1.03197 -1.97475,2.16161 -3.09591,3.09591 -0.9528,0.794 -2.45778,1.00041 -3.0959,2.06393 -0.53094,0.88491 0.82558,2.47673 0,3.09591 -1.10076,0.82557 -2.93321,-0.68267 -4.12787,0 -6.63062,3.78892 -0.95234,3.01628 -4.12787,6.1918 -0.87701,0.87701 -2.03238,1.42583 -3.09591,2.06394 -0.65957,0.39574 -1.60242,0.41662 -2.06393,1.03197 -0.65268,0.87023 -0.26279,2.32672 -1.03197,3.0959 -0.48648,0.48648 -1.37596,0 -2.06394,0 -0.68798,0.68798 -1.48016,1.28558 -2.06393,2.06394 -0.46151,0.61535 -0.48808,1.52004 -1.03197,2.06393 -0.5439,0.5439 -1.71995,0.34399 -2.06394,1.03197 -0.21755,0.43512 1.46709,0.81441 1.03197,1.03197 -0.92302,0.46151 -2.23725,-0.57243 -3.0959,0 -0.57244,0.38162 0.38162,1.4915 0,2.06394 -0.42667,0.64 -1.52004,0.48807 -2.06394,1.03196 -0.54389,0.5439 -0.34399,1.71995 -1.03197,2.06394 -0.43511,0.21756 -0.68798,-1.37596 -1.03196,-1.03197 -0.76919,0.76919 -0.12688,2.49251 -1.03197,3.09591 -0.64,0.42666 -1.52004,-1.57587 -2.06394,-1.03197 -0.54389,0.54389 1.37596,1.37596 1.03197,2.06393 -5.22954,0 0.30767,-0.61534 -1.03197,2.06394 -0.30767,0.61535 -1.44859,-0.30767 -2.06393,0 -0.30768,0.15384 0.24323,0.78873 0,1.03197 -0.24324,0.24324 -0.7243,-0.15384 -1.03197,0 -0.5734,0.2867 -1.73119,2.06393 -2.06394,2.06393 -0.34399,0 0.24324,-1.2752 0,-1.03196 -0.54389,0.54389 -0.48807,1.52004 -1.03197,2.06393 -0.24323,0.24324 -1.03196,-0.34399 -1.03196,0 0,0.48648 1.37595,0.68798 1.03196,1.03197 -0.48647,0.48647 -1.57746,-0.48647 -2.06393,0 -0.7856,0.78559 5.20087,2.06394 -1.03197,2.06394 -0.34399,0 0.24324,-1.27521 0,-1.03197 -0.5439,0.54389 -0.48807,1.52004 -1.03197,2.06393 -0.24324,0.24324 0,-1.37595 0,-1.03196 0,0.68797 0.48648,1.57746 0,2.06393 -0.34399,0.34399 -0.54549,-1.03197 -1.03197,-1.03197 -0.48647,0 -1.03196,0.5455 -1.03196,1.03197 0,0.48648 1.03196,0.5455 1.03196,1.03197 0,2 -2.06393,0.53197 -2.06393,1.03197 0,0.48647 0.54549,1.03197 1.03197,1.03197 0.34398,0 0.30767,-0.87814 0,-1.03197 -0.61535,-0.30768 -1.37596,0 -2.06394,0 -0.34399,0 0.78873,-0.24324 1.03197,0 0.24323,0.24324 0.29944,1.20126 0,1.03197 -0.55623,-0.31447 -0.68798,-1.07693 -1.03197,-1.6154"
     id="path923"
     inkscape:connector-curvature="0" />
  <path
     style="fill:none;stroke:#000000;stroke-width:1px;stroke-linecap:butt;stroke-linejoin:miter;stroke-opacity:1"
     d="m 140.34765,215.82519 c 2.06897,1.43581 5.07006,-1.07686 7.22377,0 0.68798,0.34399 0.3178,1.77827 1.03197,2.06393 1.27754,0.51102 2.75191,0 4.12787,0 1.03197,0 2.17289,-0.46151 3.09591,0 0.68797,0.34399 0.48807,1.52005 1.03196,2.06394 0.5439,0.5439 1.37596,0.68798 2.06394,1.03197 1.37596,0.68798 2.63544,1.69083 4.12787,2.06393 0.33372,0.0834 -0.24324,-1.2752 0,-1.03196 0.87701,0.877 1.03197,2.40792 2.06394,3.0959 0.40477,0.26985 0.54549,-1.03197 1.03197,-1.03197 1.08779,0 2.12295,0.5455 3.0959,1.03197 0.43512,0.21756 0.76212,0.6272 1.03197,1.03197 0.42666,0.64 0.28575,1.87738 1.03197,2.06393 1.05531,0.26383 2.06393,-1.37595 3.0959,-1.03196 0.65267,0.21755 -0.38162,1.4915 0,2.06393 0.42667,0.64 1.42394,0.6053 2.06394,1.03197 0.40477,0.26985 0.81441,0.59685 1.03196,1.03197 0.15384,0.30767 -0.34399,1.03197 0,1.03197 1.08779,0 2.12296,-1.51845 3.09591,-1.03197 0.68798,0.34399 -1.57587,1.52004 -1.03197,2.06393 0.72971,0.72972 2.06394,0 3.0959,0 0.34399,0 -1.03196,-0.34398 -1.03196,0 0,0.76919 0.48807,1.52005 1.03196,2.06394 0.24324,0.24324 -0.30767,-1.1858 0,-1.03197 0.87023,0.43512 1.19371,1.62882 2.06394,2.06394 0.30767,0.15384 0,-1.37596 0,-1.03197 0,0.68798 -0.48648,1.57746 0,2.06394 0.34399,0.34399 0.68798,-1.37596 1.03197,-1.03197 0.48647,0.48647 -0.21756,1.41126 0,2.06393 0.15383,0.46151 0.54549,1.03197 1.03196,1.03197 0.34399,0 -0.24323,-1.2752 0,-1.03197 0.5439,0.5439 0.48808,1.52005 1.03197,2.06394 0.24324,0.24324 -0.30767,-1.1858 0,-1.03197 0.87023,0.43512 1.37596,1.37596 2.06394,2.06394 0.34399,0.34399 -1.37596,-1.37596 -1.03197,-1.03197 0.68798,0.68798 1.62882,1.1937 2.06394,2.06394 0.30767,0.61534 -0.48648,1.57746 0,2.06393 0.34399,0.34399 0.68798,-1.37595 1.03196,-1.03197 0.48648,0.48648 -0.30767,1.44859 0,2.06394 0.15384,0.30767 0.87814,-0.30767 1.03197,0 0.30768,0.61535 -0.48647,1.57746 0,2.06394 1.51845,1.51844 1.03197,-5.81325 1.03197,1.03196 0,0.34399 -0.24324,-1.2752 0,-1.03196 1.06329,1.06329 1.27285,3.0959 1.03197,3.0959 -0.34399,0 -0.24324,-1.2752 0,-1.03197 0.54389,0.5439 0.48807,1.52004 1.03197,2.06394 0.24323,0.24324 0,-1.37596 0,-1.03197 0,0.68798 0,1.37596 0,2.06394 0,0.34399 -0.34399,-1.03197 0,-1.03197 0.48647,0 0.81441,0.59685 1.03196,1.03197 0.15384,0.30767 -0.34398,1.03196 0,1.03196 0.48648,0 0.59686,-1.24952 1.03197,-1.03196 5.2133,2.60665 0,1.95882 0,2.06393 0,0.48648 0.81441,0.59685 1.03197,1.03197 0.15384,0.30767 -0.34399,1.03197 0,1.03197 0.48648,0 0.54549,-1.03197 1.03197,-1.03197 0.68798,0 -0.68798,2.06394 0,2.06394 0.48647,0 0.59685,-1.24953 1.03197,-1.03197 3.19955,6.3991 0.13139,1.03197 1.03196,1.03197 0.34399,0 -0.15383,0.72429 0,1.03196 0.21756,0.43512 0.5455,1.03197 1.03197,1.03197 0.48648,0 0.68798,-1.37596 1.03197,-1.03197 0.48648,0.48648 -0.30767,1.44859 0,2.06394 0.30767,0.61535 1.75626,-0.61535 2.06394,0 2.3489,4.69781 -2.14741,1.03197 1.03196,1.03197 0.68798,0 -0.68797,2.06393 0,2.06393 0.48648,0 0.59686,-1.24952 1.03197,-1.03196 0.68798,0.34399 0.34399,1.71994 1.03197,2.06393 0.43512,0.21756 0.68798,-1.37596 1.03197,-1.03197 0.48647,0.48648 -0.30767,1.44859 0,2.06394 0.15384,0.30767 0.72429,-0.15384 1.03197,0 0.43511,0.21756 0.81441,0.59685 1.03196,1.03197 0.30768,0.61534 -0.68797,2.06393 0,2.06393 0.48648,0 0.68798,-1.37595 1.03197,-1.03196 0.48648,0.48647 0,1.37595 0,2.06393 0,0.4935 0,0.98701 0,1.48051"
     id="path925"
     inkscape:connector-curvature="0" />
  <path
     style="fill:none;stroke:#000000;stroke-width:1px;stroke-linecap:butt;stroke-linejoin:miter;stroke-opacity:1"
     d="m 345.43598,206.56403 c 1.05231,3.48467 2.87909,6.82455 3.15691,10.45403 0.0788,1.02895 -1.45942,1.45942 -2.18913,2.18913 -2.67561,2.67561 -5.35122,5.35122 -8.02683,8.02683 -1.94589,1.94589 -3.8918,3.8918 -5.83769,5.83769 -0.97295,0.97295 -1.9459,1.9459 -2.91885,2.91885 -0.48647,0.48647 -0.89959,1.05954 -1.45942,1.45942 -1.15413,0.82437 -2.52902,1.31838 -3.64856,2.18913 -1.08612,0.84476 -1.79918,2.1191 -2.91885,2.91885 -0.6259,0.44708 -1.47496,0.44405 -2.18913,0.72971 -1.71995,0.68798 -3.51953,1.23607 -5.10798,2.18914 -0.88491,0.53094 -1.45943,1.45943 -2.18914,2.18914 -0.7297,0.7297 -1.45942,1.45942 -2.18913,2.18913 -0.48648,0.48648 -0.90904,1.04664 -1.45943,1.45943 -1.4032,1.05239 -3.00861,1.82312 -4.37827,2.91884 -1.07444,0.85955 -1.81807,2.09327 -2.91884,2.91885 -0.87023,0.65266 -1.98607,0.89975 -2.91885,1.45941 -0.29495,0.17701 -0.48647,0.48648 -0.72971,0.72972 -1.45943,0.97295 -2.80943,2.13443 -4.37827,2.91884 -0.43511,0.21756 -1.02431,-0.21755 -1.45943,0 -2.91883,1.45943 -0.36484,1.09457 -2.18913,2.18913 -0.93276,0.55967 -2.14965,0.69025 -2.91884,1.45943 -0.24323,0.24324 0.48648,0.48648 0.72971,0.72971 -0.48648,0.48647 -0.86949,1.10546 -1.45943,1.45942 -0.65956,0.39575 -1.41994,0.72972 -2.18913,0.72972 -0.34398,0 0.97295,-0.97295 0.72971,-0.72971 -0.48647,0.48647 -0.77144,1.45942 -1.45941,1.45942 -0.48648,0 0.34398,-1.80341 -10e-6,-1.45942 -0.54389,0.54389 -0.72971,1.41995 -0.72971,2.18913 0,0.34399 0.97295,-0.97294 0.72972,-0.72971 -2.56264,2.56264 -0.23461,0.92257 -2.91886,1.45942 -0.75425,0.15085 -1.45942,0.97295 -2.18913,0.72971 -0.46151,-0.15384 -0.48324,-1.51539 -1e-5,-1.45942 0.92042,0.10662 1.45943,1.14201 2.18914,1.713"
     id="path927"
     inkscape:connector-curvature="0" />
  <path
     style="fill:none;stroke:#000000;stroke-width:1px;stroke-linecap:butt;stroke-linejoin:miter;stroke-opacity:1"
     d="m 145.50749,312 c 1.71994,-3.16317 3.43989,-6.32633 5.15984,-9.4895 0,-0.34399 -0.28622,-0.84116 0,-1.03197 0.90509,-0.6034 2.12295,-0.54549 3.0959,-1.03197 0.43512,-0.21755 0.59685,-0.81441 1.03197,-1.03196 0.97295,-0.48648 2.22567,-0.3793 3.0959,-1.03197 0.61535,-0.46151 0.41662,-1.60243 1.03197,-2.06394 0.87023,-0.65267 2.22567,-0.37929 3.0959,-1.03197 0.61535,-0.46151 0.34399,-1.71994 1.03197,-2.06393 0.92302,-0.46151 2.13775,0.38326 3.09591,0 0.90336,-0.36135 1.37595,-1.37596 2.06393,-2.06394 1.03197,0 2.09475,0.25029 3.09591,0 0.47194,-0.11799 0.59685,-0.81441 1.03196,-1.03197 0.30768,-0.15383 0.7243,0.15384 1.03197,0 1.10933,-0.55466 2.10369,-1.31977 3.09591,-2.06393 0.38917,-0.29189 0.59685,-0.81441 1.03196,-1.03197 12.56728,-6.28364 -6.37546,4.2197 6.19181,-2.06394 0.43512,-0.21755 0.59685,-0.81441 1.03197,-1.03196 1.03197,-0.51599 2.06393,1.03196 3.0959,0 0.48648,-0.48648 -0.48647,-1.57747 0,-2.06394 1.03197,-1.03197 2.06394,0.51598 3.09591,0 1.57118,-0.78559 0.60424,-2.06394 3.0959,-2.06394 0.34399,0 0,0.68798 0,1.03197 0.68798,0 1.44859,0.30768 2.06394,0 0.30767,-0.15383 0,-0.68798 0,-1.03197 0.68798,-0.34399 1.29475,-1.03196 2.06393,-1.03196 0.34399,0 -0.24323,0.78873 0,1.03196 0.0468,0.0468 4.67327,0 5.15984,0 2.40793,0 4.81585,0 7.22378,0 0.34399,0 -1.37596,0 -1.03197,0 0.68798,0 1.37596,0 2.06394,0 0.34399,0 0.78873,-0.24323 1.03196,0 0.5439,0.5439 0.48808,1.52004 1.03197,2.06394 0.24324,0.24324 0.7243,-0.15384 1.03197,0 0.87023,0.43512 1.1937,1.62882 2.06394,2.06394 0.30767,0.15383 0.78873,-0.24324 1.03196,0 0.5439,0.54389 0.84542,1.31771 1.03197,2.06393 0.16686,0.66744 -0.48647,1.57746 0,2.06394 0.48648,0.48647 1.57746,-0.48648 2.06394,0 0.51598,0.51598 -0.51599,2.57992 0,3.0959 0.54389,0.5439 1.63727,0.39197 2.06393,1.03197 0.38163,0.57243 0,1.37596 0,2.06394 0,0.68797 0,1.37595 0,2.06393 0,0.34399 0,-1.37596 0,-1.03197 0,3.17366 0,2.98893 0,7.22378 0,1.03197 0,2.06394 0,3.0959 0,0.34399 0,-1.37595 0,-1.03196 0,10.14768 0,-4.98785 0,5.15984 0,0.68797 0.48648,1.57746 0,2.06393 -0.48647,0.48648 -1.44858,-0.30767 -2.06393,0 -0.30768,0.15384 0.10878,0.70563 0,1.03197 -0.24324,0.72971 -0.48807,1.52004 -1.03197,2.06394 -0.24324,0.24323 -1.03197,-0.34399 -1.03197,0 0,0.76918 1.37596,1.37595 1.03197,2.06393 -0.30767,0.61535 -1.57746,-0.48647 -2.06394,0 -0.48647,0.48648 0.48648,1.57746 0,2.06394 -0.34398,0.34399 -0.68797,-1.37596 -1.03196,-1.03197 -0.76919,0.76918 -0.26279,2.32672 -1.03197,3.0959 -0.34399,0.34399 -0.68798,-1.37595 -1.03197,-1.03196 -0.76918,0.76918 -0.26278,2.32672 -1.03197,3.0959 -0.34399,0.34399 -0.62719,-1.30182 -1.03197,-1.03197 -6.17682,-0.88847 -0.97614,3.04008 -2.06393,4.12787 -1.08779,1.08779 -3.04008,0.97615 -4.12787,2.06394 -0.5439,0.54389 -0.34399,1.71995 -1.03197,2.06393 -0.43512,0.21756 -0.68798,-1.37595 -1.03197,-1.03196 -0.76918,0.76918 -0.26278,2.32672 -1.03197,3.0959 -0.34399,0.34399 -0.57046,-1.1858 -1.03197,-1.03197 -0.92302,0.30768 -1.37595,1.37596 -2.06393,2.06394 -0.34399,0.34399 -0.54549,1.03197 -1.03197,1.03197 -0.76918,0 -1.52004,-1.57587 -2.06394,-1.03197 -0.72971,0.72971 0.72972,2.36619 0,3.0959 -0.54389,0.5439 -1.33422,-1.2752 -2.06393,-1.03197 -0.72971,0.24324 -0.6053,1.42394 -1.03197,2.06394 -0.26985,0.40477 -0.59685,0.81441 -1.03197,1.03197 -0.30767,0.15384 -0.72429,-0.15384 -1.03197,0 -4.72291,2.36145 4.37907,-0.42772 -3.0959,2.06393 -0.77398,0.258 -2.57992,-0.51598 -3.0959,0 -1.63491,1.63491 2.44323,3.09591 -2.06394,3.09591 -0.76918,0 -1.33422,-1.27521 -2.06393,-1.03197 -0.72972,0.24324 -0.60531,1.42394 -1.03197,2.06394 -0.26985,0.40477 -0.6272,0.76212 -1.03197,1.03196 -0.34989,0.23326 -6.05533,3.09591 -6.19181,3.09591 -0.48647,0 -0.57046,-1.18581 -1.03197,-1.03197 -0.92302,0.30767 -1.37595,1.37596 -2.06393,2.06394 -0.34399,0.34399 -0.5455,1.03196 -1.03197,1.03196 -0.34399,0 0.30767,-1.1858 0,-1.03196 -0.87023,0.43511 -1.37596,1.37595 -2.06394,2.06393 -0.34399,0.34399 -0.54549,1.03197 -1.03196,1.03197 -0.48648,0 -0.5455,-1.03197 -1.03197,-1.03197 -0.76919,0 -1.52004,0.48808 -2.06394,1.03197 -0.24324,0.24324 0.34399,1.03197 0,1.03197 -0.76918,0 -1.37596,-1.37596 -2.06393,-1.03197 -0.61535,0.30767 0.30767,1.44859 0,2.06394 -0.15384,0.30767 -0.7243,-0.15384 -1.03197,0 -0.43512,0.21755 -0.5455,1.03196 -1.03197,1.03196 -0.48647,0 -0.68798,-1.37595 -1.03197,-1.03196 -0.48647,0.48647 0.61535,1.75626 0,2.06393 -0.68798,0.34399 -1.37596,-1.37595 -2.06393,-1.03197 -0.61535,0.30768 0.38162,1.49151 0,2.06394 -0.42667,0.64 -1.29476,1.03197 -2.06394,1.03197 -0.34399,0 0.15384,-1.33964 0,-1.03197 -0.34399,1.03197 -0.68798,2.06394 -1.03197,3.0959 -0.34399,0 -0.78873,-0.24323 -1.03197,0 -0.54389,0.5439 -0.48807,1.52005 -1.03196,2.06394 -0.24324,0.24324 -0.78874,-0.24324 -1.03197,0 -0.5645,0.5645 -1.64992,3.92086 -2.06394,4.12787 -0.43511,0.21756 -0.68798,-1.37595 -1.03197,-1.03197 -0.76918,0.76919 -0.26278,2.32672 -1.03196,3.09591 -0.34399,0.34399 -0.59686,-1.24953 -1.03197,-1.03197 -0.68798,0.34399 -0.48808,1.52004 -1.03197,2.06394 -0.24324,0.24323 -0.87813,-0.30768 -1.03197,0 -0.30767,0.61534 0.48648,1.57746 0,2.06393 -0.34399,0.34399 -0.68798,-1.37596 -1.03197,-1.03197 -0.48647,0.48648 0.48648,1.57747 0,2.06394 -7.58491,6.75167 -2.06393,-0.68798 -2.06393,0 0,6.23284 -1.27834,0.24637 -2.06394,1.03197 -0.48647,0.48647 0.48648,1.57746 0,2.06393 -0.34399,0.34399 -0.68798,-1.37595 -1.03197,-1.03196 -0.48647,0.48647 0,1.37595 0,2.06393 0,0.34399 0,-1.37596 0,-1.03197 0,0.68798 0.30768,1.44859 0,2.06394 -0.15383,0.30767 -0.78873,-0.24324 -1.03196,0 -0.24324,0.24324 -0.24324,0.78873 0,1.03197 0.48647,0.48647 1.57746,-0.48648 2.06393,0 0.24324,0.24324 -0.34399,1.03197 0,1.03197 0.48648,0 0.59685,-0.81441 1.03197,-1.03197 0.30767,-0.15384 0.68798,0 1.03197,0 0.34399,0 0.78873,-0.24324 1.03197,0 0.24323,0.24324 -0.24324,0.78873 0,1.03197 0.24323,0.24323 0.68797,0 1.03196,0 0.34399,0 0.68798,0 1.03197,0 0.34399,0 0.68798,0 1.03197,0 0.34399,0 1.03197,-0.34399 1.03197,0 0,0.34399 -1.37596,0 -1.03197,0 0.68798,0 1.44859,0.30767 2.06394,0 0.30767,-0.15384 -0.24324,-0.78873 0,-1.03197 0.24323,-0.24324 0.68797,0 1.03196,0 2.75192,0 5.50383,0 8.25575,0 7.56776,0 15.13553,0 22.70329,0 2.40793,0 4.81585,0 7.22378,0 1.03197,0 2.09475,-0.25029 3.0959,0 0.47195,0.11799 0.56002,0.91398 1.03197,1.03197 1.00116,0.25029 2.08398,-0.20239 3.0959,0 0.75425,0.15085 1.31772,0.84541 2.06394,1.03196 0.66744,0.16686 1.37596,0 2.06394,0 1.57865,0 2.41675,-0.10877 4.12787,1.03197 1.90626,1.27085 -4.57021,2.06394 2.06393,2.06394 0.71573,0 2.03529,-1.56228 3.09591,-1.03197 1.57119,0.78559 0.60424,2.06394 3.0959,2.06394 0.34399,0 0,-0.68798 0,-1.03197 0.68798,0 1.41126,-0.21756 2.06394,0 0.46151,0.15383 0.57046,0.87813 1.03197,1.03197 0.47239,0.15746 4.58384,0 5.15984,0 0.34399,0 0.68798,0 1.03196,0 0.34399,0 1.03197,-0.34399 1.03197,0 0,0.34399 -1.37595,0 -1.03197,0 0.68798,0 1.37596,0 2.06394,0 0.34399,0 0.72429,-0.15384 1.03197,0 0.43511,0.21755 1.03197,0.54549 1.03197,1.03196 0,0.34399 -1.37596,0 -1.03197,0 0.68798,0 1.37596,0 2.06393,0 0.34399,0 -1.37595,0 -1.03196,0 1.37595,0 2.75191,0 4.12787,0 0.34399,0 1.03197,-0.34399 1.03197,0 0,0.48648 -0.93109,0.55607 -1.03197,1.03197 -0.26518,1.25092 0,2.55744 0,3.83616"
     id="path931"
     inkscape:connector-curvature="0" />
  <path
     style="fill:none;stroke:#000000;stroke-width:1px;stroke-linecap:butt;stroke-linejoin:miter;stroke-opacity:1"
     d="m 299.27072,298.38263 c 0,-6.38126 0,-3.87359 0,-7.22378 0,-0.34399 0,1.37596 0,1.03197 0,-0.68798 -0.30768,-1.44859 0,-2.06394 0.15383,-0.30767 0.78873,0.24324 1.03196,0 0.24324,-0.24323 -0.15383,-0.72429 0,-1.03196 0.43512,-0.87024 1.62882,-1.19371 2.06394,-2.06394 0.15384,-0.30767 -0.15384,-0.72429 0,-1.03197 0.21756,-0.43511 0.54549,-1.03197 1.03197,-1.03197 0.48647,0 1.03197,1.51845 1.03197,1.03197 0,-0.76918 -1.57587,-1.52004 -1.03197,-2.06393 0.54389,-0.5439 1.52004,1.57586 2.06393,1.03196 0.5439,-0.54389 -1.03196,-1.29475 -1.03196,-2.06393 0,-0.48648 0.59685,1.24952 1.03196,1.03197 0.68798,-0.34399 1.03197,-1.29476 1.03197,-2.06394 0,-0.34399 -1.37596,0 -1.03197,0 4.69782,0 1.03197,0.48647 1.03197,-1.03197 0,-0.39156 3.0959,0.79056 3.0959,-1.03197 0,-0.48647 -1.51844,-1.03196 -1.03196,-1.03196 0.76918,0 1.52004,0.48807 2.06393,1.03196 0.22933,0.22933 -4.93051,-0.11466 -1.03197,-2.06393 5.50383,2.75191 -0.34398,0.34399 1.03197,-1.03197 0.5439,-0.5439 1.52004,0.48807 2.06394,1.03197 0.24324,0.24324 -1.18581,0.30767 -1.03197,0 0.43512,-0.87023 1.62882,-1.19371 2.06394,-2.06394 0.25417,-0.50834 -5.93548,1.29052 1.03196,-1.03197 0.32634,-0.10878 1.03197,0.34399 1.03197,0 0,-0.48647 -1.51844,-1.03196 -1.03197,-1.03196 0.76919,0 1.52005,1.57586 2.06394,1.03196 0.5439,-0.54389 -1.57586,-1.52004 -1.03197,-2.06393 0.5439,-0.5439 1.52004,0.48807 2.06394,1.03197 0.24324,0.24323 -1.18581,0.30767 -1.03197,0 0.43512,-0.87024 1.37596,-1.37596 2.06394,-2.06394 0.28497,-0.28497 -4.06886,3.58238 1.03196,1.03197 0.61535,-0.30768 -0.61534,-1.75626 0,-2.06394 0.61535,-0.30767 1.37596,0 2.06394,0 0.34399,0 -1.37596,0 -1.03197,0 0.68798,0 1.44859,0.30768 2.06394,0 0.30767,-0.15383 -0.30767,-0.87813 0,-1.03197 0.61535,-0.30767 1.57746,0.48648 2.06393,0 0.34399,-0.34399 -1.51844,-1.03196 -1.03196,-1.03196 0.68798,0.34399 1.37595,0.68797 2.06393,1.03196 -0.34399,0 -1.33964,0.15384 -1.03197,0 0.97295,-0.48647 2.32673,-0.26278 3.09591,-1.03196 0.34399,-0.34399 -1.51844,-1.03197 -1.03197,-1.03197 0.8514,0 2.92966,2.23018 4.12787,1.03197 0.34399,-0.34399 -1.46708,-0.81441 -1.03197,-1.03197 0.92302,-0.46151 2.17289,0.46151 3.09591,0 0.43511,-0.21756 -1.46709,-0.81441 -1.03197,-1.03197 0.92302,-0.46151 2.06394,0 3.0959,0 0.34399,0 -1.37595,0 -1.03196,0 2.68548,0 7.18238,0 12.38361,0 0.34399,0 -1.37595,0 -1.03197,0 0.68798,0 1.37596,0 2.06394,0 0.34399,0 -1.37596,0 -1.03197,0 0.68798,0 1.37596,0 2.06394,0 0.34399,0 -1.37596,0 -1.03197,0 0.68798,0 1.37596,0 2.06394,0 0.34399,0 -1.03197,-0.34399 -1.03197,0 0,0.48647 0.76212,0.6272 1.03197,1.03197 0.42666,0.64 0.48807,1.52004 1.03196,2.06393 0.24324,0.24324 -0.34399,-1.03196 0,-1.03196 0.34399,0 -0.24323,0.78873 0,1.03196 0.5439,0.5439 1.29476,1.03197 2.06394,1.03197 0.48647,0 -1.03197,-1.51844 -1.03197,-1.03197 0,0.76919 0.48808,1.52005 1.03197,2.06394 0.24324,0.24324 1.03197,-0.34399 1.03197,0 0,0.34399 -1.27521,-0.24324 -1.03197,0 0.5439,0.54389 1.52004,0.48807 2.06394,1.03197 0.24323,0.24324 -1.27521,-0.24324 -1.03197,0 0.54389,0.54389 1.52004,0.48807 2.06393,1.03197 0.24324,0.24323 -1.03196,-0.34399 -1.03196,0 0,0.76918 0.48807,1.52004 1.03196,2.06393 0.24324,0.24324 0,-1.37596 0,-1.03197 0,5.84782 -0.68797,0.34399 1.03197,2.06394 0.24324,0.24324 0,0.68798 0,1.03197 0,0.68798 -0.30767,1.44859 0,2.06393 0.15384,0.30768 0.87813,-0.30767 1.03197,0 0.30767,0.61535 -0.30767,1.44859 0,2.06394 0.15384,0.30767 1.03197,-0.34399 1.03197,0 0,0.48647 -0.81441,0.59685 -1.03197,1.03197 -0.15384,0.30767 0,0.68798 0,1.03197 0,1.03196 -0.46151,2.17288 0,3.0959 0.15384,0.30767 0.92319,-0.32634 1.03197,0 0.32634,0.97901 0,2.06394 0,3.0959 0,0.34399 0,-1.37595 0,-1.03196 0,4.81585 0,9.6317 0,14.44755 0,2.40792 0,4.81585 0,7.22377 0,1.03197 0,2.06394 0,3.09591 0,0.68798 0.21756,1.41126 0,2.06393 -0.15384,0.46151 -0.81441,0.59686 -1.03197,1.03197 -0.15384,0.30767 0,0.68798 0,1.03197 -0.68798,1.03197 -1.18693,2.2189 -2.06394,3.0959 -0.54389,0.5439 -1.82069,0.30226 -2.06393,1.03197 -0.24324,0.72971 1.21852,1.31772 1.03197,2.06394 -0.47195,1.88779 -3.51253,2.28183 -4.12788,4.12787 -0.15383,0.46151 1.24953,0.59685 1.03197,1.03197 -0.34399,0.68798 -1.52004,0.48807 -2.06393,1.03196 -1.08779,1.08779 -1.14092,2.89718 -2.06394,4.12788 -0.58377,0.77836 -1.52424,1.25439 -2.06394,2.06393 -0.19081,0.28622 0.24324,0.78873 0,1.03197 -0.54389,0.5439 -1.71994,0.34399 -2.06393,1.03197 -0.46151,0.92302 0.61918,2.27033 0,3.0959 -0.65268,0.87023 -2.32672,0.26279 -3.09591,1.03197 -0.48647,0.48648 0.42978,1.52672 0,2.06394 -1.07444,1.34305 -2.78481,2.02146 -4.12787,3.0959 -0.37987,0.3039 -0.62719,0.76212 -1.03197,1.03197 -0.63999,0.42666 -1.52004,0.48807 -2.06393,1.03197 -0.87701,0.877 -1.50927,1.98657 -2.06394,3.0959 -0.15383,0.30767 0.24324,0.78873 0,1.03197 -1.21618,1.21618 -2.91168,1.87972 -4.12787,3.0959 -0.54389,0.5439 -0.57046,1.44859 -1.03197,2.06394 -0.87565,1.16754 -2.06393,2.06393 -3.0959,3.0959 -1.03197,1.03197 -2.06394,2.06394 -3.09591,3.09591 -0.34398,0.34399 -0.62719,0.76212 -1.03196,1.03196 -0.64,0.42667 -1.42394,0.60531 -2.06394,1.03197 -0.40477,0.26985 -0.59685,0.81441 -1.03197,1.03197 -0.97295,0.48647 -2.19081,0.42857 -3.0959,1.03197 -0.28622,0.19081 0.28622,0.84116 0,1.03197 -0.9051,0.60339 -2.08592,0.62797 -3.09591,1.03196 -2.10924,0.8437 -4.15912,2.07956 -6.1918,3.09591 -0.68798,0.34399 -1.31772,0.84541 -2.06394,1.03197 -0.66744,0.16686 -1.37596,0 -2.06393,0 -0.68798,0.34399 -1.31772,0.84541 -2.06394,1.03196 -0.66744,0.16686 -1.41126,-0.21755 -2.06394,0 -0.46151,0.15384 -0.57045,0.87814 -1.03196,1.03197 -6.84522,0 1.45942,-0.48647 -3.09591,1.03197 -0.65267,0.21756 -1.37596,0 -2.06393,0 -0.34399,0 -0.7243,-0.15384 -1.03197,0 -0.5734,0.2867 -1.73119,2.06394 -2.06394,2.06394 -0.48647,0 -0.54549,-1.03197 -1.03197,-1.03197 -0.34399,0 0.24324,0.78873 0,1.03197 -9.8e-4,9.8e-4 -3.09122,-0.002 -3.0959,0 -0.46151,0.15383 -0.59685,0.81441 -1.03197,1.03196 -0.61673,0.30837 -2.06393,-0.67933 -2.06393,1.03197 0,0.34399 0.68797,0 1.03196,0 -0.68798,0.68798 -1.25439,1.52424 -2.06393,2.06394 -0.57244,0.38162 -1.57746,-0.48648 -2.06394,0 -0.24324,0.24324 0.24324,0.78873 0,1.03197 -0.24324,0.24323 -0.78873,-0.24324 -1.03197,0 -0.54389,0.54389 -0.48807,1.52004 -1.03196,2.06393 -0.24324,0.24324 -0.78874,-0.24324 -1.03197,0 -0.24324,0.24324 0.24323,0.78873 0,1.03197 -0.5439,0.54389 -1.71995,0.34399 -2.06394,1.03197 -0.21756,0.43511 1.37596,0.68798 1.03197,1.03197 -0.48647,0.48647 -1.68231,-0.57244 -2.06394,0 -0.57243,0.85865 0.46151,2.17288 0,3.0959 -0.21755,0.43512 -0.54549,-1.03197 -1.03196,-1.03197 -0.48648,0 -1.03197,0.5455 -1.03197,1.03197 0,0.48647 0.81441,0.59685 1.03197,1.03197 0.77715,1.5543 -1.4301,1.43009 -2.06394,2.06393 -0.48647,0.48648 0.48647,1.57747 0,2.06394 -0.24324,0.24324 -0.87813,-0.30767 -1.03197,0 -0.30767,0.61535 0,1.37596 0,2.06394 0,0.34399 -0.24324,0.78873 0,1.03196 0.24324,0.24324 0.68798,0 1.03197,0 0.34399,0 0.78873,0.24324 1.03197,0 0.24323,-0.24323 -0.15384,-0.72429 0,-1.03196 0.21756,-0.43512 0.81441,-0.59686 1.03197,-1.03197 0.15383,-0.30768 -0.30768,-0.87813 0,-1.03197 0.61534,-0.30767 1.57746,0.48647 2.06393,0 0.34399,-0.34399 -1.24952,-0.59685 -1.03197,-1.03197 0.34399,-0.68798 1.52004,-0.48807 2.06394,-1.03197 0.24324,-0.24323 -0.15384,-0.72429 0,-1.03196 0.21756,-0.43512 0.81441,-0.59686 1.03197,-1.03197 0.15383,-0.30768 -0.30768,-0.87813 0,-1.03197 0.61534,-0.30767 1.57746,0.48647 2.06393,0 0.34399,-0.34399 -1.37595,-0.68798 -1.03196,-1.03197 0.48647,-0.48647 1.44858,0.30768 2.06393,0 0.30767,-0.15383 -0.15384,-0.72429 0,-1.03197 1.14087,-2.28173 0.64049,-0.32024 2.06394,-1.03196 0.43511,-0.21756 0.59685,-0.81441 1.03197,-1.03197 0.65221,-0.32611 5.06681,0.28125 6.1918,0 1.05531,-0.26383 2.0406,-0.76814 3.09591,-1.03197 0.33372,-0.0834 0.69825,0.0834 1.03197,0 1.05531,-0.26383 2.04059,-0.76814 3.0959,-1.03197 0.33372,-0.0834 0.68798,0 1.03197,0 1.03197,0 2.06393,0 3.0959,0 2.06394,0 4.12787,0 6.19181,0 0.68798,0 1.41126,0.21756 2.06394,0 0.46151,-0.15383 0.59685,-0.81441 1.03196,-1.03197 0.4752,-0.23759 5.12224,0 6.19181,0 3.78388,0 7.56777,0 11.35165,0 6.19181,0 12.38361,0 18.57542,0 1.71995,0 3.4399,0 5.15984,0 0.68798,0 1.41126,-0.21755 2.06394,0 0.46151,0.15384 0.56002,0.91398 1.03197,1.03197 1.00115,0.25029 2.11689,-0.32633 3.0959,0 0.32634,0.10878 -0.30767,0.87813 0,1.03197 0.61535,0.30767 1.41126,-0.21756 2.06394,0 0.46151,0.15384 0.59685,0.81441 1.03196,1.03197 3.03689,1.51844 -1.35867,-2.39064 2.06394,1.03197 2.42015,2.42014 -0.72971,-0.24324 3.0959,1.03196 0.61715,0.20572 1.4468,1.85823 2.06394,2.06394 0.65267,0.21756 1.44859,-0.30767 2.06394,0 0.30767,0.15384 -0.34399,1.03197 0,1.03197 0.48647,0 0.54549,-1.03197 1.03196,-1.03197 0.97295,0 1.12004,1.82796 2.06394,2.06394 1.00116,0.25028 2.06394,0 3.0959,0 0.34399,0 -1.37595,0 -1.03196,0 1.03196,0 2.06393,0 3.0959,0 0.34399,0 0.78873,-0.24324 1.03197,0 0.24324,0.24323 0,1.37595 0,1.03196 0,-1.81718 0,-3.63437 0,-5.45155"
     id="path933"
     inkscape:connector-curvature="0" />
  <path
     d="M451 222c18 93-37 188-128 221-23 13-6 39 12 33a234 234 0 0 0 151-261c-6-25-38-14-35 7z"
     id="path17" />
  <path
     sodipodi:nodetypes="cccc"
     style="opacity:1;fill:none;fill-opacity:1;stroke:#ff5800;stroke-width:40;stroke-linecap:round;stroke-linejoin:round;stroke-miterlimit:4;stroke-dasharray:none;stroke-dashoffset:0;stroke-opacity:1;paint-order:fill markers stroke"
     d="M 138,460.382 158,425.74098 354,86.259021 374,51.618005"
     id="path989"
     inkscape:connector-curvature="0" />
  <path
     sodipodi:nodetypes="cccc"
     inkscape:connector-curvature="0"
     id="path999"
     d="m 28.041505,194.91871 38.637033,10.35276 378.642922,101.45706 38.63704,10.35276"
     style="opacity:1;fill:none;fill-opacity:1;stroke:#ff00ff;stroke-width:40;stroke-linecap:round;stroke-linejoin:round;stroke-miterlimit:4;stroke-dasharray:none;stroke-dashoffset:0;stroke-opacity:0.98257841;paint-order:fill markers stroke" />
  <path
     sodipodi:nodetypes="cccc"
     style="opacity:1;fill:none;fill-opacity:1;stroke:#00ff00;stroke-width:40;stroke-linecap:round;stroke-linejoin:round;stroke-miterlimit:4;stroke-dasharray:none;stroke-dashoffset:0;stroke-opacity:1;paint-order:fill markers stroke"
     d="M 89.122802,89.122798 117.40707,117.40707 394.59293,394.59293 422.8772,422.8772"
     id="path993"
     inkscape:connector-curvature="0" />
  <path
     sodipodi:nodetypes="cccc"
     inkscape:connector-curvature="0"
     id="path995"
     d="M 194.91871,483.9585 205.27147,445.32146 306.72853,66.678538 317.08129,28.041505"
     style="opacity:1;fill:none;fill-opacity:1;stroke:#00a7ff;stroke-width:40;stroke-linecap:round;stroke-linejoin:round;stroke-miterlimit:4;stroke-dasharray:none;stroke-dashoffset:0;stroke-opacity:0.98257841;paint-order:fill markers stroke" />
  <path
     sodipodi:nodetypes="cccc"
     inkscape:connector-curvature="0"
     id="path987"
     d="M 460.382,374 425.74098,354 86.259021,158 51.618005,138"
     style="opacity:1;fill:none;fill-opacity:1;stroke:#ff0000;stroke-width:40;stroke-linecap:round;stroke-linejoin:round;stroke-miterlimit:4;stroke-dasharray:none;stroke-dashoffset:0;stroke-opacity:0.96864109;paint-order:fill markers stroke" />
  <path
     sodipodi:nodetypes="cccc"
     inkscape:connector-curvature="0"
     id="path991"
     d="M 374,460.382 354,425.74098 158,86.259021 138,51.618005"
     style="opacity:1;fill:none;fill-opacity:1;stroke:#ffff00;stroke-width:40;stroke-linecap:round;stroke-linejoin:round;stroke-miterlimit:4;stroke-dasharray:none;stroke-dashoffset:0;stroke-opacity:1;paint-order:fill markers stroke" />
  <path
     sodipodi:nodetypes="cccc"
     style="opacity:1;fill:none;fill-opacity:1;stroke:#0000ff;stroke-width:40;stroke-linecap:round;stroke-linejoin:round;stroke-miterlimit:4;stroke-dasharray:none;stroke-dashoffset:0;stroke-opacity:0.94901955;paint-order:fill markers stroke"
     d="M 28.041505,317.08129 66.678538,306.72853 445.32146,205.27147 483.9585,194.91871"
     id="path997"
     inkscape:connector-curvature="0" />
  <path
     style="opacity:1;fill:none;fill-opacity:1;stroke:#ffff00;stroke-width:40;stroke-linecap:round;stroke-linejoin:round;stroke-miterlimit:4;stroke-dasharray:none;stroke-dashoffset:0;stroke-opacity:1;paint-order:fill markers stroke"
     d="M 89.122798,422.8772 117.40707,394.59293 394.59293,117.40707 422.8772,89.122802"
     id="path1033"
     inkscape:connector-curvature="0"
     sodipodi:nodetypes="cccc" />
  <path
     style="opacity:1;fill:none;fill-opacity:1;stroke:#ff0000;stroke-width:40;stroke-linecap:round;stroke-linejoin:round;stroke-miterlimit:4;stroke-dasharray:none;stroke-dashoffset:0;stroke-opacity:0.96864109;paint-order:fill markers stroke"
     d="M 317.0813,483.9585 306.72853,445.32146 205.27147,66.678536 194.91871,28.041503"
     id="path1039"
     inkscape:connector-curvature="0"
     sodipodi:nodetypes="cccc" />
  <path
     inkscape:connector-curvature="0"
     id="path1041"
     d="M 51.618005,374 86.259021,354 425.74098,158 460.382,138"
     style="opacity:1;fill:none;fill-opacity:1;stroke:#00ff00;stroke-width:40;stroke-linecap:round;stroke-linejoin:round;stroke-miterlimit:4;stroke-dasharray:none;stroke-dashoffset:0;stroke-opacity:1;paint-order:fill markers stroke"
     sodipodi:nodetypes="cccc" />
  <path
     inkscape:connector-curvature="0"
     id="path1043"
     d="m 256,492 0,-40 0,-391.999995 10e-6,-40.000006"
     style="opacity:1;fill:none;fill-opacity:1;stroke:#0000ff;stroke-width:40;stroke-linecap:round;stroke-linejoin:round;stroke-miterlimit:4;stroke-dasharray:none;stroke-dashoffset:0;stroke-opacity:0.94901955;paint-order:fill markers stroke"
     sodipodi:nodetypes="cccc" />
  <path
     style="opacity:1;fill:none;fill-opacity:1;stroke:#ff00ff;stroke-width:40;stroke-linecap:round;stroke-linejoin:round;stroke-miterlimit:4;stroke-dasharray:none;stroke-dashoffset:0;stroke-opacity:0.98257841;paint-order:fill markers stroke"
     d="m 20.000001,256.00001 40,-10e-6 L 452,256 l 40,-1e-5"
     id="path1045"
     inkscape:connector-curvature="0"
     sodipodi:nodetypes="cccc" />
  <path
     inkscape:connector-curvature="0"
     id="path1047"
     d="m 68.768614,112.3323 31.734126,24.35046 310.99452,238.63448 31.73413,24.35046"
     style="opacity:1;fill:none;fill-opacity:1;stroke:#00ff00;stroke-width:40;stroke-linecap:round;stroke-linejoin:round;stroke-miterlimit:4;stroke-dasharray:none;stroke-dashoffset:0;stroke-opacity:1;paint-order:fill markers stroke"
     sodipodi:nodetypes="cccc" />
  <path
     style="opacity:1;fill:none;fill-opacity:1;stroke:#ff0000;stroke-width:40;stroke-linecap:round;stroke-linejoin:round;stroke-miterlimit:4;stroke-dasharray:none;stroke-dashoffset:0;stroke-opacity:0.96864109;paint-order:fill markers stroke"
     d="M 474.03557,346.31329 437.08039,331.00595 74.919612,180.99405 37.964431,165.68671"
     id="path1049"
     inkscape:connector-curvature="0"
     sodipodi:nodetypes="cccc" />
  <path
     style="opacity:1;fill:none;fill-opacity:1;stroke:#ff00ff;stroke-width:40;stroke-linecap:round;stroke-linejoin:round;stroke-miterlimit:4;stroke-dasharray:none;stroke-dashoffset:0;stroke-opacity:0.98257841;paint-order:fill markers stroke"
     d="m 22.019013,225.19582 39.657795,5.22105 388.646382,51.16626 39.6578,5.22105"
     id="path1051"
     inkscape:connector-curvature="0"
     sodipodi:nodetypes="cccc" />
  <path
     sodipodi:nodetypes="cccc"
     inkscape:connector-curvature="0"
     id="path1053"
     d="m 22.019015,286.80419 39.657793,-5.22106 388.646382,-51.16626 39.6578,-5.22106"
     style="opacity:1;fill:none;fill-opacity:1;stroke:#ff00ff;stroke-width:40;stroke-linecap:round;stroke-linejoin:round;stroke-miterlimit:4;stroke-dasharray:none;stroke-dashoffset:0;stroke-opacity:0.98257841;paint-order:fill markers stroke" />
  <path
     inkscape:connector-curvature="0"
     id="path1055"
     d="M 37.96443,346.31329 74.919611,331.00595 437.08039,180.99405 474.03558,165.68671"
     style="opacity:1;fill:none;fill-opacity:1;stroke:#0000ff;stroke-width:40;stroke-linecap:round;stroke-linejoin:round;stroke-miterlimit:4;stroke-dasharray:none;stroke-dashoffset:0;stroke-opacity:0.94901955;paint-order:fill markers stroke"
     sodipodi:nodetypes="cccc" />
  <path
     sodipodi:nodetypes="cccc"
     style="opacity:1;fill:none;fill-opacity:1;stroke:#00ff00;stroke-width:40;stroke-linecap:round;stroke-linejoin:round;stroke-miterlimit:4;stroke-dasharray:none;stroke-dashoffset:0;stroke-opacity:1;paint-order:fill markers stroke"
     d="M 68.768612,399.6677 100.50275,375.31724 411.49726,136.68276 443.23139,112.3323"
     id="path1057"
     inkscape:connector-curvature="0" />
  <path
     sodipodi:nodetypes="cccc"
     inkscape:connector-curvature="0"
     id="path1059"
     d="M 112.3323,443.23139 136.68276,411.49726 375.31724,100.50274 399.6677,68.768614"
     style="opacity:1;fill:none;fill-opacity:1;stroke:#ffff00;stroke-width:40;stroke-linecap:round;stroke-linejoin:round;stroke-miterlimit:4;stroke-dasharray:none;stroke-dashoffset:0;stroke-opacity:1;paint-order:fill markers stroke" />
  <path
     inkscape:connector-curvature="0"
     id="path1061"
     d="M 165.68671,474.03557 180.99405,437.08039 331.00595,74.919612 346.31329,37.964431"
     style="opacity:1;fill:none;fill-opacity:1;stroke:#ff5800;stroke-width:40;stroke-linecap:round;stroke-linejoin:round;stroke-miterlimit:4;stroke-dasharray:none;stroke-dashoffset:0;stroke-opacity:1;paint-order:fill markers stroke"
     sodipodi:nodetypes="cccc" />
  <path
     style="opacity:1;fill:none;fill-opacity:1;stroke:#00a7ff;stroke-width:40;stroke-linecap:round;stroke-linejoin:round;stroke-miterlimit:4;stroke-dasharray:none;stroke-dashoffset:0;stroke-opacity:0.98257841;paint-order:fill markers stroke"
     d="m 225.19582,489.98099 5.22105,-39.6578 51.16626,-388.646382 5.22105,-39.657795"
     id="path1063"
     inkscape:connector-curvature="0"
     sodipodi:nodetypes="cccc" />
  <path
     sodipodi:nodetypes="cccc"
     style="opacity:1;fill:none;fill-opacity:1;stroke:#0000ff;stroke-width:40;stroke-linecap:round;stroke-linejoin:round;stroke-miterlimit:4;stroke-dasharray:none;stroke-dashoffset:0;stroke-opacity:0.94901955;paint-order:fill markers stroke"
     d="M 286.80418,489.98099 281.58313,450.32319 230.41687,61.676813 225.19583,22.019011"
     id="path1065"
     inkscape:connector-curvature="0" />
  <path
     sodipodi:nodetypes="cccc"
     inkscape:connector-curvature="0"
     id="path1067"
     d="M 346.3133,474.03557 331.00595,437.08039 180.99405,74.91961 165.68671,37.964428"
     style="opacity:1;fill:none;fill-opacity:1;stroke:#ff0000;stroke-width:40;stroke-linecap:round;stroke-linejoin:round;stroke-miterlimit:4;stroke-dasharray:none;stroke-dashoffset:0;stroke-opacity:0.96864109;paint-order:fill markers stroke" />
  <path
     style="opacity:1;fill:none;fill-opacity:1;stroke:#ffff00;stroke-width:40;stroke-linecap:round;stroke-linejoin:round;stroke-miterlimit:4;stroke-dasharray:none;stroke-dashoffset:0;stroke-opacity:1;paint-order:fill markers stroke"
     d="M 399.6677,443.23139 375.31724,411.49726 136.68276,100.50275 112.3323,68.768612"
     id="path1069"
     inkscape:connector-curvature="0"
     sodipodi:nodetypes="cccc" />
</svg>
