<svg width="512" height="512">
    <g stroke-linecap="round" stroke-linejoin="round" stroke-width="5" color="#000" font-family="sans-serif" font-weight="400" paint-order="fill markers stroke">
        <path style="line-height:normal;font-variant-ligatures:normal;font-variant-position:normal;font-variant-caps:normal;font-variant-numeric:normal;font-variant-alternates:normal;font-feature-settings:normal;text-indent:0;text-align:start;text-decoration-line:none;text-decoration-style:solid;text-decoration-color:#000;text-transform:none;text-orientation:mixed;white-space:normal;shape-padding:0;isolation:auto;mix-blend-mode:normal;solid-color:#000;solid-opacity:1" stroke="silver" d="M481.6 195.6c-8.2-24-39.5-11.3-33.7 9 28.2 105.9-34.6 214.66-140.4 243.2-23.32 7.4-12.55 41.4 11.9 33 128.05-38.34 193.2-164.1 162.2-285.2z" opacity=".4" overflow="visible"/>
        <g fill="#ffebcd">
            <path d="M128.5 408.1c-59-51.4-80.8-121.3-66.2-195 3.8-24-29.6-29.3-34.2-7.6a232.6 232.6 0 0 0 78 229.4c19 15.1 39.4-12.5 22.4-26.8zm21.1 59.4c-8 23.4 24.3 33.6 32.4 13.3l15.3-37c8.2-23.2-22.96-32.65-31.46-15.4z" style="line-height:normal;font-variant-ligatures:normal;font-variant-position:normal;font-variant-caps:normal;font-variant-numeric:normal;font-variant-alternates:normal;font-feature-settings:normal;text-indent:0;text-align:start;text-decoration-line:none;text-decoration-style:solid;text-decoration-color:#000;text-transform:none;text-orientation:mixed;white-space:normal;shape-padding:0;isolation:auto;mix-blend-mode:normal;solid-color:#000;solid-opacity:1" stroke="silver" opacity=".4" overflow="visible"/>
            <path d="M224.3 441.9L200.4 479c-12.5 19.8 19.6 44.2 35.4 9.8 10 37.4 45.6 16.8 36.5-3.5l-17.1-40.7c-7.3-14.5-25-13.5-30.9-2.7z" style="line-height:normal;font-variant-ligatures:normal;font-variant-position:normal;font-variant-caps:normal;font-variant-numeric:normal;font-variant-alternates:normal;font-feature-settings:normal;text-indent:0;text-align:start;text-decoration-line:none;text-decoration-style:solid;text-decoration-color:#000;text-transform:none;text-orientation:mixed;white-space:normal;shape-padding:0;isolation:auto;mix-blend-mode:normal;solid-color:#000;solid-opacity:1" stroke="#d3d3d3" opacity=".4" overflow="visible"/>
        </g>
        <path d="M98.4 84A233.6 233.6 0 0 1 336 36.6c23.3 11 7.2 40.4-12 32.8a198.4 198.4 0 0 0-202 40.2C103.5 125.1 82.1 99.4 98.4 84zm263.2 5.9c-14.1 22.6 16.3 37.5 27.7 21.3l24.4-31.7c13.52-19.22-11.98-38.23-27.08-22.48zM42.9 153.3l34.6 20c20.8 11 37-18.4 17.5-30.3l-34.6-20c-21.4-11-36.9 18.7-17.5 30.3zM401 135.6c-6.57 12.64 3.9 27.41 18 25.4l43.8-5.6c27.2-5 16-45.8-15.2-33.3 21.6-31.3-15.06-47.27-26.82-24.74z" style="line-height:normal;font-variant-ligatures:normal;font-variant-position:normal;font-variant-caps:normal;font-variant-numeric:normal;font-variant-alternates:normal;font-feature-settings:normal;text-indent:0;text-align:start;text-decoration-line:none;text-decoration-style:solid;text-decoration-color:#000;text-transform:none;text-orientation:mixed;white-space:normal;shape-padding:0;isolation:auto;mix-blend-mode:normal;solid-color:#000;solid-opacity:1" fill="#bc8f8f" stroke="silver" opacity=".4" overflow="visible"/>
    </g>
</svg>


