<svg xmlns="http://www.w3.org/2000/svg" xmlns:xlink="http://www.w3.org/1999/xlink" viewBox="0 0 512 512">
    <defs>
        <pattern xlink:href="#a" id="g" patternTransform="rotate(-90 515 520)"/>
        <pattern xlink:href="#a" id="h" patternTransform="rotate(-90 515 520)"/>
        <pattern xlink:href="#b" id="f" patternTransform="translate(-10 531)"/>
        <linearGradient id="c">
            <stop offset="0" style="stop-color:#fff;stop-opacity:1"/>
            <stop style="stop-color:#fff;stop-opacity:1" offset="1"/>
            <stop offset="1" style="stop-color:red;stop-opacity:0"/>
            <stop offset="1" style="stop-color:red;stop-opacity:0"/>
        </linearGradient>
        <linearGradient xlink:href="#c" id="d" gradientUnits="userSpaceOnUse" gradientTransform="translate(310 -245)" x1="-310" y1="250" x2="-300" y2="250" spreadMethod="repeat"/>
        <pattern patternUnits="userSpaceOnUse" width="10" height="10" patternTransform="translate(-10 531)" id="b">
            <path style="opacity:1;fill:#fff;fill-opacity:1;stroke:url(#d);stroke-width:10;stroke-linecap:butt;stroke-linejoin:round;stroke-miterlimit:4;stroke-dasharray:none;stroke-dashoffset:0;stroke-opacity:1;paint-order:fill markers stroke" d="M0 5h10"/>
        </pattern>
        <linearGradient xlink:href="#c" id="e" x1="-10" y1="510" x2="0" y2="510" gradientUnits="userSpaceOnUse" gradientTransform="translate(10 -507)"/>
        <pattern patternUnits="userSpaceOnUse" width="10" height="5" patternTransform="translate(-10 507)" id="a">
            <path d="M10 3H0" style="opacity:1;fill:none;fill-opacity:1;stroke:url(#e);stroke-width:5;stroke-linecap:butt;stroke-linejoin:round;stroke-miterlimit:4;stroke-dasharray:none;stroke-dashoffset:0;stroke-opacity:1;paint-order:fill markers stroke"/>
        </pattern>
    </defs>
    <g transform="translate(0 -512)" style="display:none">
        <rect style="fill:url(#a);stroke:none" width="10" height="5" x="-10" y="507"/>
    </g>
    <g style="display:inline;opacity:1" transform="translate(0 -538)">
        <path d="M321 588a216 216 0 0 0-189 29" style="opacity:1;fill:none;fill-opacity:1;stroke:red;stroke-width:40;stroke-linecap:round;stroke-linejoin:round;stroke-miterlimit:4;stroke-dasharray:none;stroke-dashoffset:0;stroke-opacity:1;paint-order:fill markers stroke"/>
        <path style="opacity:1;fill:none;fill-opacity:1;stroke:#0f0;stroke-width:40.00000381;stroke-linecap:round;stroke-linejoin:round;stroke-miterlimit:4;stroke-dasharray:none;stroke-dashoffset:0;stroke-opacity:1;paint-order:fill markers stroke" d="M452 703a216 216 0 0 1-9 199 216 216 0 0 1-168 107"/>
        <path transform="scale(1 -1)" style="opacity:1;fill:none;fill-opacity:1;stroke:url(#a);stroke-width:30;stroke-linecap:round;stroke-linejoin:round;stroke-miterlimit:4;stroke-dasharray:none;stroke-dashoffset:0;stroke-opacity:1;paint-order:fill markers stroke" d="M321-588a216 216 0 0 1-189-29"/>
        <path d="M110 953a216 216 90 0 1-50-250" style="opacity:1;fill:none;fill-opacity:1;stroke:#000eff;stroke-width:40;stroke-linecap:round;stroke-linejoin:round;stroke-miterlimit:4;stroke-dasharray:none;stroke-dashoffset:0;stroke-opacity:1;paint-order:fill markers stroke"/>
        <path transform="rotate(90)" style="opacity:1;fill:none;fill-opacity:1;stroke:url(#f);stroke-width:30;stroke-linecap:round;stroke-linejoin:round;stroke-miterlimit:4;stroke-dasharray:none;stroke-dashoffset:0;stroke-opacity:1;paint-order:fill markers stroke" d="M953-110a216 216 0 0 1-250 50"/>
        <path transform="rotate(-60)" d="M-383 743a216 216 0 0 1-177 92 216 216 0 0 1-177-92" style="opacity:1;fill:none;fill-opacity:1;stroke:url(#b);stroke-width:30;stroke-linecap:round;stroke-linejoin:round;stroke-miterlimit:4;stroke-dasharray:none;stroke-dashoffset:0;stroke-opacity:1;paint-order:fill markers stroke"/>
    </g>
    <g style="display:inline;opacity:1" transform="translate(0 -512)">
        <path d="M75 616l31 26m337-18c-20 15-42 12-42 12s0-26 14-42m-32-25l-22 34" style="opacity:1;fill:none;fill-opacity:1;stroke:red;stroke-width:40;stroke-linecap:round;stroke-linejoin:round;stroke-miterlimit:4;stroke-dasharray:none;stroke-dashoffset:0;stroke-opacity:1;paint-order:fill markers stroke"/>
        <path style="opacity:1;fill:none;fill-opacity:1;stroke:url(#b);stroke-width:30;stroke-linecap:round;stroke-linejoin:round;stroke-miterlimit:4;stroke-dasharray:none;stroke-dashoffset:0;stroke-opacity:1;paint-order:fill markers stroke" d="M75 616l31 26m337-18c-20 15-42 12-42 12s0-26 14-42m-32-25l-22 34"/>
        <path d="M147 977l18-35m20 51c9-24 29-34 29-34s14 22 11 43" style="opacity:1;fill:none;fill-opacity:1;stroke:#00f;stroke-width:40;stroke-linecap:round;stroke-linejoin:round;stroke-miterlimit:4;stroke-dasharray:none;stroke-dashoffset:0;stroke-opacity:1;paint-order:fill markers stroke"/>
        <path style="opacity:1;fill:none;fill-opacity:1;stroke:url(#g);stroke-width:30;stroke-linecap:round;stroke-linejoin:round;stroke-miterlimit:4;stroke-dasharray:none;stroke-dashoffset:0;stroke-opacity:1;paint-order:fill markers stroke" d="M147 977l18-35"/>
        <path style="opacity:1;fill:none;fill-opacity:1;stroke:url(#h);stroke-width:30;stroke-linecap:round;stroke-linejoin:round;stroke-miterlimit:4;stroke-dasharray:none;stroke-dashoffset:0;stroke-opacity:1;paint-order:fill markers stroke" d="M185 993c9-24 29-34 29-34s14 22 11 43"/>
    </g>
</svg>


