<svg xmlns="http://www.w3.org/2000/svg" width="16" height="16" viewBox="0 0 16 16" version="1.1" id="svg1469">
    <rect id="rect1174" height="1" width="1" y="0" x="0" style="fill:#8b0000"/>
    <rect id="rect1176" height="1" width="1" y="0" x="1" style="fill:#8b0000"/>
    <rect id="rect1178" height="1" width="1" y="0" x="2" style="fill:#8b0000"/>
    <rect id="rect1180" height="1" width="1" y="0" x="3" style="fill:#8b0000"/>
    <rect id="rect1182" height="1" width="1" y="0" x="4" style="fill:#8b0000"/>
    <rect id="rect1184" height="1" width="1" y="0" x="5" style="fill:#8b0000"/>
    <rect id="rect1186" height="1" width="1" y="0" x="6" style="fill:#8b0000"/>
    <rect id="rect1188" height="1" width="1" y="0" x="8" style="fill:#8b0000"/>
    <rect id="rect1190" height="1" width="1" y="0" x="10" style="fill:#8b0000"/>
    <rect id="rect1192" height="1" width="1" y="0" x="12" style="fill:#8b0000"/>
    <rect id="rect1194" height="1" width="1" y="0" x="14" style="fill:#8b0000"/>
    <rect id="rect1196" height="1" width="1" y="1" x="0" style="fill:#8b0000"/>
    <rect id="rect1198" height="1" width="1" y="1" x="6" style="fill:#8b0000"/>
    <rect id="rect1200" height="1" width="1" y="1" x="8" style="fill:#8b0000"/>
    <rect id="rect1202" height="1" width="1" y="1" x="9" style="fill:#8b0000"/>
    <rect id="rect1204" height="1" width="1" y="1" x="10" style="fill:#8b0000"/>
    <rect id="rect1206" height="1" width="1" y="1" x="11" style="fill:#8b0000"/>
    <rect id="rect1208" height="1" width="1" y="1" x="14" style="fill:#8b0000"/>
    <rect id="rect1210" height="1" width="1" y="2" x="0" style="fill:#8b0000"/>
    <rect id="rect1212" height="1" width="1" y="2" x="2" style="fill:#8b0000"/>
    <rect id="rect1214" height="1" width="1" y="2" x="3" style="fill:#8b0000"/>
    <rect id="rect1216" height="1" width="1" y="2" x="4" style="fill:#8b0000"/>
    <rect id="rect1218" height="1" width="1" y="2" x="6" style="fill:#8b0000"/>
    <rect id="rect1220" height="1" width="1" y="2" x="8" style="fill:#8b0000"/>
    <rect id="rect1222" height="1" width="1" y="2" x="10" style="fill:#8b0000"/>
    <rect id="rect1224" height="1" width="1" y="2" x="11" style="fill:#8b0000"/>
    <rect id="rect1226" height="1" width="1" y="2" x="12" style="fill:#8b0000"/>
    <rect id="rect1228" height="1" width="1" y="2" x="14" style="fill:#8b0000"/>
    <rect id="rect1230" height="1" width="1" y="3" x="0" style="fill:#8b0000"/>
    <rect id="rect1232" height="1" width="1" y="3" x="2" style="fill:#8b0000"/>
    <rect id="rect1234" height="1" width="1" y="3" x="3" style="fill:#8b0000"/>
    <rect id="rect1236" height="1" width="1" y="3" x="4" style="fill:#8b0000"/>
    <rect id="rect1238" height="1" width="1" y="3" x="6" style="fill:#8b0000"/>
    <rect id="rect1240" height="1" width="1" y="3" x="8" style="fill:#8b0000"/>
    <rect id="rect1242" height="1" width="1" y="3" x="13" style="fill:#8b0000"/>
    <rect id="rect1244" height="1" width="1" y="4" x="0" style="fill:#006400"/>
    <rect id="rect1246" height="1" width="1" y="4" x="2" style="fill:#8b0000"/>
    <rect id="rect1248" height="1" width="1" y="4" x="3" style="fill:#8b0000"/>
    <rect id="rect1250" height="1" width="1" y="4" x="4" style="fill:#8b0000"/>
    <rect id="rect1252" height="1" width="1" y="4" x="6" style="fill:#8b0000"/>
    <rect id="rect1254" height="1" width="1" y="4" x="9" style="fill:#8b0000"/>
    <rect id="rect1256" height="1" width="1" y="5" x="0" style="fill:#006400"/>
    <rect id="rect1258" height="1" width="1" y="5" x="6" style="fill:#8b0000"/>
    <rect id="rect1260" height="1" width="1" y="5" x="11" style="fill:#8b0000"/>
    <rect id="rect1262" height="1" width="1" y="5" x="14" style="fill:#191970"/>
    <rect id="rect1264" height="1" width="1" y="6" x="0" style="fill:#006400"/>
    <rect id="rect1266" height="1" width="1" y="6" x="1" style="fill:#006400"/>
    <rect id="rect1268" height="1" width="1" y="6" x="2" style="fill:#006400"/>
    <rect id="rect1270" height="1" width="1" y="6" x="3" style="fill:#006400"/>
    <rect id="rect1272" height="1" width="1" y="6" x="4" style="fill:#006400"/>
    <rect id="rect1274" height="1" width="1" y="6" x="5" style="fill:#006400"/>
    <rect id="rect1276" height="1" width="1" y="6" x="6" style="fill:#8b0000"/>
    <rect id="rect1278" height="1" width="1" y="6" x="9" style="fill:#8b0000"/>
    <rect id="rect1280" height="1" width="1" y="6" x="10" style="fill:#8b0000"/>
    <rect id="rect1282" height="1" width="1" y="6" x="13" style="fill:#191970"/>
    <rect id="rect1284" height="1" width="1" y="6" x="14" style="fill:#191970"/>
    <rect id="rect1286" height="1" width="1" y="7" x="10" style="fill:#191970"/>
    <rect id="rect1288" height="1" width="1" y="7" x="11" style="fill:#191970"/>
    <rect id="rect1290" height="1" width="1" y="8" x="0" style="fill:#006400"/>
    <rect id="rect1292" height="1" width="1" y="8" x="4" style="fill:#006400"/>
    <rect id="rect1294" height="1" width="1" y="8" x="7" style="fill:#006400"/>
    <rect id="rect1296" height="1" width="1" y="8" x="8" style="fill:#191970"/>
    <rect id="rect1298" height="1" width="1" y="8" x="9" style="fill:#191970"/>
    <rect id="rect1300" height="1" width="1" y="8" x="10" style="fill:#191970"/>
    <rect id="rect1302" height="1" width="1" y="9" x="2" style="fill:#006400"/>
    <rect id="rect1304" height="1" width="1" y="9" x="5" style="fill:#006400"/>
    <rect id="rect1306" height="1" width="1" y="9" x="6" style="fill:#006400"/>
    <rect id="rect1308" height="1" width="1" y="9" x="7" style="fill:#006400"/>
    <rect id="rect1310" height="1" width="1" y="9" x="9" style="fill:#191970"/>
    <rect id="rect1312" height="1" width="1" y="9" x="13" style="fill:#191970"/>
    <rect id="rect1314" height="1" width="1" y="9" x="14" style="fill:#191970"/>
    <rect id="rect1316" height="1" width="1" y="10" x="0" style="fill:#006400"/>
    <rect id="rect1318" height="1" width="1" y="10" x="3" style="fill:#006400"/>
    <rect id="rect1320" height="1" width="1" y="10" x="4" style="fill:#006400"/>
    <rect id="rect1322" height="1" width="1" y="10" x="6" style="fill:#006400"/>
    <rect id="rect1324" height="1" width="1" y="10" x="7" style="fill:#006400"/>
    <rect id="rect1326" height="1" width="1" y="10" x="8" style="fill:#191970"/>
    <rect id="rect1328" height="1" width="1" y="10" x="11" style="fill:#191970"/>
    <rect id="rect1330" height="1" width="1" y="11" x="1" style="fill:#006400"/>
    <rect id="rect1332" height="1" width="1" y="11" x="3" style="fill:#006400"/>
    <rect id="rect1334" height="1" width="1" y="11" x="5" style="fill:#006400"/>
    <rect id="rect1336" height="1" width="1" y="11" x="9" style="fill:#191970"/>
    <rect id="rect1338" height="1" width="1" y="11" x="12" style="fill:#191970"/>
    <rect id="rect1340" height="1" width="1" y="11" x="13" style="fill:#191970"/>
    <rect id="rect1342" height="1" width="1" y="12" x="0" style="fill:#006400"/>
    <rect id="rect1344" height="1" width="1" y="12" x="1" style="fill:#006400"/>
    <rect id="rect1346" height="1" width="1" y="12" x="2" style="fill:#006400"/>
    <rect id="rect1348" height="1" width="1" y="12" x="5" style="fill:#006400"/>
    <rect id="rect1350" height="1" width="1" y="12" x="6" style="fill:#006400"/>
    <rect id="rect1352" height="1" width="1" y="12" x="8" style="fill:#191970"/>
    <rect id="rect1354" height="1" width="1" y="12" x="11" style="fill:#191970"/>
    <rect id="rect1356" height="1" width="1" y="12" x="12" style="fill:#191970"/>
    <rect id="rect1358" height="1" width="1" y="13" x="1" style="fill:#006400"/>
    <rect id="rect1360" height="1" width="1" y="13" x="6" style="fill:#006400"/>
    <rect id="rect1362" height="1" width="1" y="13" x="7" style="fill:#006400"/>
    <rect id="rect1364" height="1" width="1" y="13" x="10" style="fill:#191970"/>
    <rect id="rect1366" height="1" width="1" y="13" x="14" style="fill:#191970"/>
    <rect id="rect1368" height="1" width="1" y="14" x="0" style="fill:#006400"/>
    <rect id="rect1370" height="1" width="1" y="14" x="3" style="fill:#006400"/>
    <rect id="rect1372" height="1" width="1" y="14" x="4" style="fill:#006400"/>
    <rect id="rect1374" 
height="1" width="1" y="14" x="7" style="fill:#006400"/>
    <rect id="rect1376" height="1" width="1" y="14" x="8" style="fill:#191970"/>
    <rect id="rect1378" height="1" width="1" y="14" x="9" style="fill:#191970"/>
    <rect id="rect1380" height="1" width="1" y="14" x="10" style="fill:#191970"/>
    <rect id="rect1382" height="1" width="1" y="14" x="13" style="fill:#191970"/>
</svg>


