<svg xmlns="http://www.w3.org/2000/svg" width="16" height="16" viewBox="0 0 16 16" version="1.1" id="svg1469">
    <g id="layer1" transform="translate(0 -658)" style="display:inline">
        <rect id="rect4577" height="1" width="1" y="659" x="1" style="fill:red"/>
        <rect id="rect4579" height="1" width="1" y="659" x="2" style="fill:red"/>
        <rect id="rect4581" height="1" width="1" y="659" x="3" style="fill:red"/>
        <rect id="rect4583" height="1" width="1" y="659" x="4" style="fill:red"/>
        <rect id="rect4585" height="1" width="1" y="659" x="5" style="fill:red"/>
        <rect id="rect4587" height="1" width="1" y="659" x="6" style="fill:red"/>
        <rect id="rect4589" height="1" width="1" y="659" x="7" style="fill:red"/>
        <rect id="rect4591" height="1" width="1" y="659" x="9" style="fill:red"/>
        <rect id="rect4593" height="1" width="1" y="659" x="11" style="fill:red"/>
        <rect id="rect4595" height="1" width="1" y="659" x="13" style="fill:red"/>
        <rect id="rect4597" height="1" width="1" y="660" x="1" style="fill:red"/>
        <rect id="rect4599" height="1" width="1" y="660" x="7" style="fill:red"/>
        <rect id="rect4601" height="1" width="1" y="660" x="13" style="fill:red"/>
        <rect id="rect4603" height="1" width="1" y="661" x="1" style="fill:red"/>
        <rect id="rect4605" height="1" width="1" y="661" x="3" style="fill:red"/>
        <rect id="rect4607" height="1" width="1" y="661" x="4" style="fill:red"/>
        <rect id="rect4609" height="1" width="1" y="661" x="5" style="fill:red"/>
        <rect id="rect4611" height="1" width="1" y="661" x="7" style="fill:red"/>
        <rect id="rect4613" height="1" width="1" y="661" x="11" style="fill:red"/>
        <rect id="rect4615" height="1" width="1" y="661" x="12" style="fill:red"/>
        <rect id="rect4617" height="1" width="1" y="662" x="1" style="fill:#191970"/>
        <rect id="rect4619" height="1" width="1" y="662" x="3" style="fill:red"/>
        <rect id="rect4621" height="1" width="1" y="662" x="4" style="fill:red"/>
        <rect id="rect4623" height="1" width="1" y="662" x="5" style="fill:red"/>
        <rect id="rect4625" height="1" width="1" y="662" x="7" style="fill:red"/>
        <rect id="rect4627" height="1" width="1" y="662" x="11" style="fill:red"/>
        <rect id="rect4629" height="1" width="1" y="663" x="1" style="fill:#191970"/>
        <rect id="rect4631" height="1" width="1" y="663" x="3" style="fill:red"/>
        <rect id="rect4633" height="1" width="1" y="663" x="4" style="fill:red"/>
        <rect id="rect4635" height="1" width="1" y="663" x="5" style="fill:red"/>
        <rect id="rect4637" height="1" width="1" y="663" x="7" style="fill:red"/>
        <rect id="rect4639" height="1" width="1" y="664" x="1" style="fill:#191970"/>
        <rect id="rect4641" height="1" width="1" y="664" x="7" style="fill:red"/>
        <rect id="rect4643" height="1" width="1" y="664" x="10" style="fill:green"/>
        <rect id="rect4645" height="1" width="1" y="664" x="12" style="fill:green"/>
        <rect id="rect4647" height="1" width="1" y="664" x="13" style="fill:green"/>
        <rect id="rect4649" height="1" width="1" y="665" x="1" style="fill:#191970"/>
        <rect id="rect4651" height="1" width="1" y="665" x="2" style="fill:#191970"/>
        <rect id="rect4653" height="1" width="1" y="665" x="3" style="fill:#191970"/>
        <rect id="rect4655" height="1" width="1" y="665" x="4" style="fill:#191970"/>
        <rect id="rect4657" height="1" width="1" y="665" x="5" style="fill:#191970"/>
        <rect id="rect4659" height="1" width="1" y="665" x="6" style="fill:#191970"/>
        <rect id="rect4661" height="1" width="1" y="665" x="7" style="fill:red"/>
        <rect id="rect4663" height="1" width="1" y="665" x="10" style="fill:green"/>
        <rect id="rect4665" height="1" width="1" y="665" x="12" style="fill:green"/>
        <rect id="rect4667" height="1" width="1" y="665" x="13" style="fill:green"/>
        <rect id="rect4669" height="1" width="1" y="666" x="9" style="fill:green"/>
        <rect id="rect4671" height="1" width="1" y="666" x="10" style="fill:green"/>
        <rect id="rect4673" height="1" width="1" y="666" x="11" style="fill:green"/>
        <rect id="rect4675" height="1" width="1" y="666" x="13" style="fill:green"/>
        <rect id="rect4677" height="1" width="1" y="667" x="1" style="fill:#191970"/>
        <rect id="rect4679" height="1" width="1" y="667" x="2" style="fill:#191970"/>
        <rect id="rect4681" height="1" width="1" y="667" x="4" style="fill:#191970"/>
        <rect id="rect4683" height="1" width="1" y="667" x="5" style="fill:#191970"/>
        <rect id="rect4685" height="1" width="1" y="667" x="6" style="fill:#191970"/>
        <rect id="rect4687" height="1" width="1" y="667" x="7" style="fill:#191970"/>
        <rect id="rect4689" height="1" width="1" y="667" x="8" style="fill:green"/>
        <rect id="rect4691" height="1" width="1" y="667" x="9" style="fill:green"/>
        <rect id="rect4693" height="1" width="1" y="667" x="10" style="fill:green"/>
        <rect id="rect4695" height="1" width="1" y="667" x="11" style="fill:green"/>
        <rect id="rect4697" height="1" width="1" y="667" x="12" style="fill:green"/>
        <rect id="rect4699" height="1" width="1" y="667" x="13" style="fill:green"/>
        <rect id="rect4701" height="1" width="1" y="668" x="2" style="fill:#191970"/>
        <rect id="rect4703" height="1" width="1" y="668" x="4" style="fill:#191970"/>
        <rect id="rect4705" height="1" width="1" y="668" x="5" style="fill:#191970"/>
        <rect id="rect4707" height="1" width="1" y="668" x="9" style="fill:green"/>
        <rect id="rect4709" height="1" width="1" y="668" x="11" style="fill:green"/>
        <rect id="rect4711" height="1" width="1" y="668" x="12" style="fill:green"/>
        <rect id="rect4713" height="1" width="1" y="668" x="13" style="fill:green"/>
        <rect id="rect4715" height="1" width="1" y="669" x="1" style="fill:#191970"/>
        <rect id="rect4717" height="1" width="1" y="669" x="2" style="fill:#191970"/>
        <rect id="rect4719" height="1" width="1" y="669" x="4" style="fill:#191970"/>
        <rect id="rect4721" height="1" width="1" y="669" x="7" style="fill:#191970"/>
        <rect id="rect4723" height="1" width="1" y="669" x="9" style="fill:green"/>
        <rect id="rect4725" height="1" width="1" y="669" x="13" style="fill:green"/>
        <rect id="rect4727" height="1" width="1" y="670" x="2" style="fill:#191970"/>
        <rect id="rect4729" height="1" width="1" y="670" x="3" style="fill:#191970"/>
        <rect id="rect4731" height="1" width="1" y="670" x="4" style="fill:#191970"/>
        <rect id="rect4733" height="1" width="1" y="670" x="5" style="fill:#191970"/>
        <rect id="rect4735" height="1" width="1" y="670" x="9" style="fill:green"/>
        <rect id="rect4737" height="1" width="1" y="670" x="10" style="fill:green"/>
        <rect id="rect4739" height="1" width="1" y="670" x="11" style="fill:green"/>
        <rect id="rect4741" height="1" width="1" y="670" x="13" style="fill:green"/>
        <rect id="rect4743" height="1" width="1" y="671" x="1" style="fill:#191970"/>
        <rect id="rect4745" height="1" width="1" y="671" x="2" style="fill:#191970"/>
        <rect id="rect4747" height="1" width="1" y="671" x="3" style="fill:#191970"/>
        <rect id="rect4749" height="1" width="1" y="671" x="4" style="fill:#191970"/>
        <rect id="rect4751" height="1" width="1" y="671" x="8" style="fill:green"/>
        <rect id="rect4753" height="1" width="1" y="671" x="9" style="fill:green"/>
        <rect id="rect4755" height="1" width="1" y="671" x="10" style="fill:green"/>
        <rect id="rect4757" height="1" width="1" y="671" x="12" style="fill:green"/>
    </g>
</svg>


